# This file uses centimeters as units for non-parametric coordinates.

mtllib ArtFrames.mtl
g default
v -23.433007 82.161357 142.115744
v -23.433007 82.161357 188.229514
v -23.433007 115.631037 188.229514
v -23.433007 115.631037 142.115744
v -21.642156 112.357961 145.784052
v -21.642156 85.434445 145.784052
v -21.642156 112.357961 184.561194
v -21.642156 85.434445 184.561194
v -22.673366 112.357961 145.784052
v -22.673366 85.434445 145.784052
v -22.673366 112.357961 184.561194
v -22.673366 85.434445 184.561194
v -22.338052 82.439117 187.746201
v -22.338052 115.353300 187.746201
v -22.338052 115.353300 142.599046
v -22.338052 82.439117 142.599046
v -22.877926 81.914526 141.775665
v -22.616061 81.963713 141.865226
v -22.877926 81.914526 188.569592
v -22.616061 81.963713 188.480032
v -22.877926 115.877884 188.569570
v -22.616061 115.828688 188.480032
v -22.877926 115.877884 141.775665
v -22.616061 115.828688 141.865226
v -21.781462 84.834835 185.198781
v -21.781462 112.957574 185.198781
v -21.781462 112.957574 145.146477
v -21.781462 84.834835 145.146477
v -22.695967 82.439117 187.746201
v -22.695967 115.353300 187.746201
v -22.139379 84.834835 185.198781
v -22.139379 112.957574 185.198781
v -22.695967 115.353300 142.599046
v -22.139379 112.957574 145.146477
v -22.695967 82.439117 142.599046
v -22.139379 84.834835 145.146477
vt 0.829176 0.746107
vt 0.823932 0.962685
vt 0.718244 0.962685
vt 0.718244 0.865260
vt 0.833930 0.974529
vt 0.833930 0.853417
vt 0.708246 0.853417
vt 0.708246 0.974529
vt 0.823932 0.865260
vt 0.823932 0.962685
vt 0.718244 0.962685
vt 0.718244 0.865260
vt 0.709563 0.973523
vt 0.709563 0.854422
vt 0.716506 0.863091
vt 0.716506 0.964854
vt 0.832613 0.973523
vt 0.825670 0.964854
vt 0.832613 0.854422
vt 0.825670 0.863091
vt 0.834857 0.852524
vt 0.834613 0.852701
vt 0.707563 0.852701
vt 0.707319 0.852524
vt 0.834857 0.975422
vt 0.834613 0.975244
vt 0.707563 0.975244
vt 0.707319 0.975422
vt 0.832613 0.973523
vt 0.832613 0.854422
vt 0.709563 0.973523
vt 0.709563 0.854422
vt 0.716506 0.964854
vt 0.716506 0.863091
vt 0.825670 0.964854
vt 0.825670 0.863091
vt 0.823932 0.865260
vt 0.727333 0.746107
vt 0.727333 0.843531
vt 0.829176 0.843531
vt 0.808320 0.951330
vt 0.808320 0.876702
vt 0.733692 0.951330
vt 0.733692 0.876702
vn 1.000000 0.000000 0.000000
vn 1.000000 0.000000 0.000000
vn 1.000000 0.000000 0.000000
vn 1.000000 0.000000 0.000000
vn -1.000000 0.000000 0.000000
vn -1.000000 0.000000 0.000000
vn -1.000000 0.000000 0.000000
vn -1.000000 0.000000 0.000000
vn 0.000000 0.000000 1.000000
vn 0.000000 0.000000 1.000000
vn 0.000000 0.000000 1.000000
vn 0.000000 0.000000 1.000000
vn 0.000000 -1.000000 0.000000
vn 0.000000 -1.000000 0.000000
vn 0.000000 -1.000000 0.000000
vn 0.000000 -1.000000 0.000000
vn 0.000000 -0.000000 -1.000000
vn 0.000000 -0.000000 -1.000000
vn 0.000000 -0.000000 -1.000000
vn 0.000000 -0.000000 -1.000000
vn 0.000000 1.000000 0.000000
vn 0.000000 1.000000 0.000000
vn 0.000000 1.000000 0.000000
vn 0.000000 1.000000 0.000000
vn 0.986881 0.134793 0.088858
vn 0.986881 -0.134793 0.088858
vn 0.987211 -0.127279 0.095997
vn 0.987211 0.127279 0.095997
vn 0.986881 0.134793 -0.088858
vn 0.987211 0.127279 -0.095997
vn 0.986881 -0.134793 -0.088858
vn 0.987211 -0.127279 -0.095997
vn 0.184615 -0.982811 0.000000
vn 0.184615 -0.982811 0.000000
vn 0.184615 -0.982811 0.000000
vn 0.184615 -0.982811 0.000000
vn 0.323606 -0.000000 -0.946192
vn 0.323606 -0.000000 -0.946192
vn 0.323606 -0.000000 -0.946192
vn 0.323606 -0.000000 -0.946192
vn 0.323570 0.000000 0.946204
vn 0.323570 0.000000 0.946204
vn 0.323570 0.000000 0.946204
vn 0.323570 0.000000 0.946204
vn 0.184644 0.982805 0.000000
vn 0.184644 0.982806 0.000000
vn 0.184644 0.982806 0.000000
vn 0.184644 0.982805 0.000000
vn -0.406317 -0.913732 0.000000
vn -0.406317 -0.913732 0.000000
vn -0.406317 -0.913732 0.000000
vn -0.406317 -0.913732 0.000000
vn -0.522402 0.000000 0.852699
vn -0.522402 0.000000 0.852699
vn -0.522402 0.000000 0.852699
vn -0.522402 0.000000 0.852699
vn -0.406339 0.913723 0.000000
vn -0.406339 0.913723 0.000000
vn -0.406339 0.913723 0.000000
vn -0.406339 0.913723 0.000000
vn -0.522414 0.000000 -0.852692
vn -0.522414 0.000000 -0.852692
vn -0.522414 0.000000 -0.852692
vn -0.522414 0.000000 -0.852692
vn 0.935140 -0.000000 -0.354279
vn 0.935140 -0.000000 -0.354279
vn 0.935140 -0.000000 -0.354279
vn 0.935140 -0.000000 -0.354279
vn 0.863225 0.504820 0.000000
vn 0.863225 0.504820 0.000000
vn 0.863225 0.504820 0.000000
vn 0.863225 0.504820 0.000000
vn 0.935141 0.000000 0.354275
vn 0.935141 0.000000 0.354275
vn 0.935141 0.000000 0.354275
vn 0.935141 0.000000 0.354275
vn 0.863233 -0.504806 0.000000
vn 0.863233 -0.504806 0.000000
vn 0.863233 -0.504806 0.000000
vn 0.863233 -0.504806 0.000000
vn 0.986808 0.136202 0.087518
vn 0.986808 -0.136202 0.087518
vn 0.987156 -0.128720 0.094630
vn 0.987156 0.128720 0.094630
vn 0.986808 0.136203 -0.087518
vn 0.987156 0.128720 -0.094631
vn 0.986808 -0.136203 -0.087519
vn 0.987155 -0.128721 -0.094631
vn 0.000000 -0.000000 -1.000000
vn 0.000000 -0.000000 -1.000000
vn 0.000000 -0.000000 -1.000000
vn 0.000000 -0.000000 -1.000000
vn 0.000000 0.000000 1.000000
vn 0.000000 0.000000 1.000000
vn 0.000000 0.000000 1.000000
vn 0.000000 0.000000 1.000000
vn 0.000000 -1.000000 0.000000
vn 0.000000 -1.000000 0.000000
vn 0.000000 -1.000000 0.000000
vn 0.000000 -1.000000 0.000000
vn 0.000000 1.000000 0.000000
vn 0.000000 1.000000 0.000000
vn 0.000000 1.000000 0.000000
vn 0.000000 1.000000 0.000000
vn 0.000000 0.000000 1.000000
vn 0.000000 0.000000 1.000000
vn 0.000000 0.000000 1.000000
vn 0.000000 0.000000 1.000000
vn 0.000000 -0.000000 -1.000000
vn 0.000000 -0.000000 -1.000000
vn 0.000000 -0.000000 -1.000000
vn 0.000000 -0.000000 -1.000000
vn 0.000000 1.000000 0.000000
vn 0.000000 1.000000 0.000000
vn 0.000000 1.000000 0.000000
vn 0.000000 1.000000 0.000000
vn 0.000000 -1.000000 0.000000
vn 0.000000 -1.000000 0.000000
vn 0.000000 -1.000000 0.000000
vn 0.000000 -1.000000 0.000000
s off
g Frame_A2
usemtl blinn9SG
f 10/1/1 9/40/2 11/39/3 12/38/4
f 4/41/5 1/42/6 2/44/7 3/43/8
f 6/9/9 5/10/10 9/2/11 10/37/12
f 5/10/13 7/11/14 11/3/15 9/2/16
f 7/11/17 8/12/18 12/4/19 11/3/20
f 8/12/21 6/9/22 10/37/23 12/4/24
s 1
f 30/13/25 29/14/26 31/15/27 32/16/28
f 33/17/29 30/13/25 32/16/28 34/18/30
f 35/19/31 33/17/29 34/18/30 36/20/32
f 29/14/26 35/19/31 36/20/32 31/15/27
s off
f 17/21/33 18/22/34 20/23/35 19/24/36
f 18/22/37 17/21/38 23/25/39 24/26/40
f 19/24/41 20/23/42 22/27/43 21/28/44
f 21/28/45 22/27/46 24/26/47 23/25/48
f 1/6/49 17/21/50 19/24/51 2/7/52
f 2/7/53 19/24/54 21/28/55 3/8/56
f 3/8/57 21/28/58 23/25/59 4/5/60
f 4/5/61 23/25/62 17/21/63 1/6/64
f 18/22/65 24/26/66 15/29/67 16/30/68
f 24/26/69 22/27/70 14/31/71 15/29/72
f 22/27/73 20/23/74 13/32/75 14/31/76
f 20/23/77 18/22/78 16/30/79 13/32/80
s 2
f 26/33/81 25/34/82 8/12/83 7/11/84
f 27/35/85 26/33/81 7/11/84 5/10/86
f 28/36/87 27/35/85 5/10/86 6/9/88
f 25/34/82 28/36/87 6/9/88 8/12/83
s off
f 14/31/89 13/32/90 29/14/91 30/13/92
f 25/34/93 26/33/94 32/16/95 31/15/96
f 15/29/97 14/31/98 30/13/99 33/17/100
f 26/33/101 27/35/102 34/18/103 32/16/104
f 16/30/105 15/29/106 33/17/107 35/19/108
f 27/35/109 28/36/110 36/20/111 34/18/112
f 13/32/113 16/30/114 35/19/115 29/14/116
f 28/36/117 25/34/118 31/15/119 36/20/120
g default
v -23.433007 36.504634 142.115744
v -23.433007 36.504634 188.229514
v -23.433007 69.974314 188.229514
v -23.433007 69.974314 142.115744
v -21.642156 66.701238 145.784052
v -21.642156 39.777722 145.784052
v -21.642156 66.701238 184.561194
v -21.642156 39.777722 184.561194
v -22.673366 66.701238 145.784052
v -22.673366 39.777722 145.784052
v -22.673366 66.701238 184.561194
v -22.673366 39.777722 184.561194
v -22.338052 36.782394 187.746201
v -22.338052 69.696577 187.746201
v -22.338052 69.696577 142.599046
v -22.338052 36.782394 142.599046
v -22.877926 36.257803 141.775665
v -22.616061 36.306990 141.865226
v -22.877926 36.257803 188.569592
v -22.616061 36.306990 188.480032
v -22.877926 70.221161 188.569570
v -22.616061 70.171965 188.480032
v -22.877926 70.221161 141.775665
v -22.616061 70.171965 141.865226
v -21.781462 39.178112 185.198781
v -21.781462 67.300851 185.198781
v -21.781462 67.300851 145.146477
v -21.781462 39.178112 145.146477
v -22.695967 36.782394 187.746201
v -22.695967 69.696577 187.746201
v -22.139379 39.178112 185.198781
v -22.139379 67.300851 185.198781
v -22.695967 69.696577 142.599046
v -22.139379 67.300851 145.146477
v -22.695967 36.782394 142.599046
v -22.139379 39.178112 145.146477
vt 0.943985 0.865260
vt 0.822010 0.962685
vt 0.720166 0.962685
vt 0.720166 0.865260
vt 0.831644 0.974529
vt 0.831644 0.853417
vt 0.710532 0.853417
vt 0.710532 0.974529
vt 0.822010 0.865260
vt 0.822010 0.962685
vt 0.720166 0.962685
vt 0.720166 0.865260
vt 0.711801 0.973523
vt 0.711801 0.854422
vt 0.718492 0.863091
vt 0.718492 0.964854
vt 0.830375 0.973523
vt 0.823684 0.964854
vt 0.830375 0.854422
vt 0.823684 0.863091
vt 0.832537 0.852524
vt 0.832302 0.852701
vt 0.709874 0.852701
vt 0.709639 0.852524
vt 0.832537 0.975422
vt 0.832302 0.975244
vt 0.709874 0.975244
vt 0.709639 0.975422
vt 0.830375 0.973523
vt 0.830375 0.854422
vt 0.711801 0.973523
vt 0.711801 0.854422
vt 0.718492 0.964854
vt 0.718492 0.863091
vt 0.823684 0.964854
vt 0.823684 0.863091
vt 0.822010 0.865260
vt 0.842142 0.865260
vt 0.842142 0.962685
vt 0.943985 0.962685
vt 0.808320 0.951330
vt 0.808320 0.876702
vt 0.733692 0.951330
vt 0.733692 0.876702
vn 1.000000 0.000000 0.000000
vn 1.000000 0.000000 0.000000
vn 1.000000 0.000000 0.000000
vn 1.000000 0.000000 0.000000
vn -1.000000 0.000000 0.000000
vn -1.000000 0.000000 0.000000
vn -1.000000 0.000000 0.000000
vn -1.000000 0.000000 0.000000
vn 0.000000 0.000000 1.000000
vn 0.000000 0.000000 1.000000
vn 0.000000 0.000000 1.000000
vn 0.000000 0.000000 1.000000
vn 0.000000 -1.000000 0.000000
vn 0.000000 -1.000000 0.000000
vn 0.000000 -1.000000 0.000000
vn 0.000000 -1.000000 0.000000
vn 0.000000 -0.000000 -1.000000
vn 0.000000 -0.000000 -1.000000
vn 0.000000 -0.000000 -1.000000
vn 0.000000 -0.000000 -1.000000
vn 0.000000 1.000000 0.000000
vn 0.000000 1.000000 0.000000
vn 0.000000 1.000000 0.000000
vn 0.000000 1.000000 0.000000
vn 0.986881 0.134793 0.088858
vn 0.986881 -0.134793 0.088858
vn 0.987211 -0.127279 0.095997
vn 0.987211 0.127279 0.095997
vn 0.986881 0.134793 -0.088858
vn 0.987211 0.127279 -0.095997
vn 0.986881 -0.134793 -0.088858
vn 0.987211 -0.127279 -0.095997
vn 0.184615 -0.982811 0.000000
vn 0.184615 -0.982811 0.000000
vn 0.184615 -0.982811 0.000000
vn 0.184615 -0.982811 0.000000
vn 0.323606 -0.000000 -0.946192
vn 0.323606 -0.000000 -0.946192
vn 0.323606 -0.000000 -0.946192
vn 0.323606 -0.000000 -0.946192
vn 0.323570 0.000000 0.946204
vn 0.323570 0.000000 0.946204
vn 0.323570 0.000000 0.946204
vn 0.323570 0.000000 0.946204
vn 0.184644 0.982805 0.000000
vn 0.184644 0.982806 0.000000
vn 0.184644 0.982806 0.000000
vn 0.184644 0.982805 0.000000
vn -0.406317 -0.913732 0.000000
vn -0.406317 -0.913732 0.000000
vn -0.406317 -0.913732 0.000000
vn -0.406317 -0.913732 0.000000
vn -0.522402 0.000000 0.852699
vn -0.522402 0.000000 0.852699
vn -0.522402 0.000000 0.852699
vn -0.522402 0.000000 0.852699
vn -0.406339 0.913723 0.000000
vn -0.406339 0.913723 0.000000
vn -0.406339 0.913723 0.000000
vn -0.406339 0.913723 0.000000
vn -0.522414 0.000000 -0.852692
vn -0.522414 0.000000 -0.852692
vn -0.522414 0.000000 -0.852692
vn -0.522414 0.000000 -0.852692
vn 0.935140 -0.000000 -0.354279
vn 0.935140 -0.000000 -0.354279
vn 0.935140 -0.000000 -0.354279
vn 0.935140 -0.000000 -0.354279
vn 0.863225 0.504820 0.000000
vn 0.863225 0.504820 0.000000
vn 0.863225 0.504820 0.000000
vn 0.863225 0.504820 0.000000
vn 0.935141 0.000000 0.354275
vn 0.935141 0.000000 0.354275
vn 0.935141 0.000000 0.354275
vn 0.935141 0.000000 0.354275
vn 0.863233 -0.504806 0.000000
vn 0.863233 -0.504806 0.000000
vn 0.863233 -0.504806 0.000000
vn 0.863233 -0.504806 0.000000
vn 0.986808 0.136202 0.087518
vn 0.986808 -0.136202 0.087518
vn 0.987156 -0.128720 0.094630
vn 0.987156 0.128720 0.094630
vn 0.986808 0.136203 -0.087518
vn 0.987156 0.128720 -0.094631
vn 0.986808 -0.136203 -0.087519
vn 0.987155 -0.128721 -0.094631
vn 0.000000 -0.000000 -1.000000
vn 0.000000 -0.000000 -1.000000
vn 0.000000 -0.000000 -1.000000
vn 0.000000 -0.000000 -1.000000
vn 0.000000 0.000000 1.000000
vn 0.000000 0.000000 1.000000
vn 0.000000 0.000000 1.000000
vn 0.000000 0.000000 1.000000
vn 0.000000 -1.000000 0.000000
vn 0.000000 -1.000000 0.000000
vn 0.000000 -1.000000 0.000000
vn 0.000000 -1.000000 0.000000
vn 0.000000 1.000000 0.000000
vn 0.000000 1.000000 0.000000
vn 0.000000 1.000000 0.000000
vn 0.000000 1.000000 0.000000
vn 0.000000 0.000000 1.000000
vn 0.000000 0.000000 1.000000
vn 0.000000 0.000000 1.000000
vn 0.000000 0.000000 1.000000
vn 0.000000 -0.000000 -1.000000
vn 0.000000 -0.000000 -1.000000
vn 0.000000 -0.000000 -1.000000
vn 0.000000 -0.000000 -1.000000
vn 0.000000 1.000000 0.000000
vn 0.000000 1.000000 0.000000
vn 0.000000 1.000000 0.000000
vn 0.000000 1.000000 0.000000
vn 0.000000 -1.000000 0.000000
vn 0.000000 -1.000000 0.000000
vn 0.000000 -1.000000 0.000000
vn 0.000000 -1.000000 0.000000
s off
g Frame_A1
usemtl blinn9SG
f 46/45/121 45/84/122 47/83/123 48/82/124
f 40/85/125 37/86/126 38/88/127 39/87/128
f 42/53/129 41/54/130 45/46/131 46/81/132
f 41/54/133 43/55/134 47/47/135 45/46/136
f 43/55/137 44/56/138 48/48/139 47/47/140
f 44/56/141 42/53/142 46/81/143 48/48/144
s 1
f 66/57/145 65/58/146 67/59/147 68/60/148
f 69/61/149 66/57/145 68/60/148 70/62/150
f 71/63/151 69/61/149 70/62/150 72/64/152
f 65/58/146 71/63/151 72/64/152 67/59/147
s off
f 53/65/153 54/66/154 56/67/155 55/68/156
f 54/66/157 53/65/158 59/69/159 60/70/160
f 55/68/161 56/67/162 58/71/163 57/72/164
f 57/72/165 58/71/166 60/70/167 59/69/168
f 37/50/169 53/65/170 55/68/171 38/51/172
f 38/51/173 55/68/174 57/72/175 39/52/176
f 39/52/177 57/72/178 59/69/179 40/49/180
f 40/49/181 59/69/182 53/65/183 37/50/184
f 54/66/185 60/70/186 51/73/187 52/74/188
f 60/70/189 58/71/190 50/75/191 51/73/192
f 58/71/193 56/67/194 49/76/195 50/75/196
f 56/67/197 54/66/198 52/74/199 49/76/200
s 2
f 62/77/201 61/78/202 44/56/203 43/55/204
f 63/79/205 62/77/201 43/55/204 41/54/206
f 64/80/207 63/79/205 41/54/206 42/53/208
f 61/78/202 64/80/207 42/53/208 44/56/203
s off
f 50/75/209 49/76/210 65/58/211 66/57/212
f 61/78/213 62/77/214 68/60/215 67/59/216
f 51/73/217 50/75/218 66/57/219 69/61/220
f 62/77/221 63/79/222 70/62/223 68/60/224
f 52/74/225 51/73/226 69/61/227 71/63/228
f 63/79/229 64/80/230 72/64/231 70/62/232
f 49/76/233 52/74/234 71/63/235 65/58/236
f 64/80/237 61/78/238 67/59/239 72/64/240
g default
v -23.909712 30.206042 230.619453
v -22.955920 76.309951 230.619453
v -22.955920 76.309951 197.149757
v -23.909712 30.206042 197.149757
v -22.043370 33.836531 200.422845
v -22.043370 33.836531 227.346349
v -21.241325 72.605380 200.422845
v -21.241325 72.605380 227.346349
v -23.074359 33.857863 200.422845
v -23.074359 33.857863 227.346349
v -22.272315 72.626704 200.422845
v -22.272315 72.626704 227.346349
v -23.361784 29.854567 230.866268
v -22.393926 76.638464 230.866268
v -22.393928 76.638459 196.902910
v -23.361784 29.854567 196.902910
v -21.367414 73.245701 227.945951
v -21.367414 73.245701 199.823211
v -22.195833 33.201965 199.823211
v -22.195833 33.201965 227.945951
v -21.670956 74.545609 229.156262
v -21.670956 74.545609 198.612900
v -22.552609 31.928512 198.612900
v -22.552609 31.928512 229.156262
vt 0.852365 0.751288
vt 0.820761 0.861995
vt 0.820761 0.967772
vt 0.719574 0.967772
vt 0.833062 0.852032
vt 0.707273 0.852032
vt 0.707273 0.977821
vt 0.833062 0.977821
vt 0.719574 0.861937
vt 0.820761 0.861937
vt 0.820761 0.967714
vt 0.719574 0.967714
vt 0.712772 0.973007
vt 0.706345 0.978717
vt 0.706345 0.851073
vt 0.712772 0.856731
vt 0.833990 0.851073
vt 0.827563 0.856731
vt 0.833990 0.978717
vt 0.827563 0.973007
vt 0.823014 0.969461
vt 0.717320 0.969461
vt 0.823014 0.860206
vt 0.717320 0.860206
vt 0.806312 0.880020
vt 0.738017 0.880020
vt 0.806312 0.948314
vt 0.738017 0.948314
vt 0.719574 0.861995
vt 0.852365 0.843585
vt 0.940657 0.843585
vt 0.940657 0.751288
vn 0.999786 -0.020683 0.000000
vn 0.999786 -0.020683 0.000000
vn 0.999786 -0.020683 0.000000
vn 0.999786 -0.020683 0.000000
vn -0.999786 0.020683 0.000000
vn -0.999786 0.020683 0.000000
vn -0.999786 0.020683 0.000000
vn -0.999786 0.020683 0.000000
vn 0.020686 0.999786 0.000000
vn 0.020686 0.999786 0.000000
vn 0.020686 0.999786 0.000000
vn 0.020686 0.999786 0.000000
vn -0.000001 0.000000 1.000000
vn -0.000001 0.000000 1.000000
vn -0.000001 0.000000 1.000000
vn -0.000001 0.000000 1.000000
vn -0.020678 -0.999786 0.000000
vn -0.020678 -0.999786 0.000000
vn -0.020678 -0.999786 0.000000
vn -0.020678 -0.999786 0.000000
vn -0.000001 0.000000 -1.000000
vn -0.000001 0.000000 -1.000000
vn -0.000001 0.000000 -1.000000
vn -0.000001 0.000000 -1.000000
vn 0.969932 0.128285 0.206819
vn 0.912404 -0.018876 0.408856
vn 0.955737 -0.182808 0.230540
vn 0.963848 -0.168082 0.206752
vn 0.955736 -0.182808 -0.230541
vn 0.963847 -0.168082 -0.206752
vn 0.962259 0.143469 -0.231245
vn 0.945192 0.326514 -0.000000
vn 0.969932 0.128286 -0.206820
vn -0.406209 0.008404 0.913742
vn -0.406209 0.008404 0.913742
vn -0.406209 0.008404 0.913742
vn -0.406209 0.008404 0.913742
vn -0.504652 0.863323 -0.000000
vn -0.504652 0.863323 -0.000000
vn -0.504652 0.863323 -0.000000
vn -0.504652 0.863323 -0.000000
vn -0.406254 0.008405 -0.913722
vn -0.406254 0.008405 -0.913721
vn -0.406254 0.008405 -0.913722
vn -0.406254 0.008405 -0.913722
vn -0.539927 -0.841712 0.000000
vn -0.539927 -0.841712 0.000000
vn -0.539927 -0.841712 0.000000
vn -0.539927 -0.841712 0.000000
vn 0.988407 0.067087 -0.136201
vn 0.988407 0.067090 0.136204
vn 0.988901 0.074194 0.128722
vn 0.988902 0.074191 -0.128718
vn 0.984787 -0.107907 -0.136200
vn 0.984988 -0.115026 -0.128717
vn 0.984786 -0.107911 0.136203
vn 0.984987 -0.115028 0.128721
vn 0.984588 0.090662 -0.149557
vn 0.984588 0.090662 0.149557
vn 0.979839 -0.131871 -0.150087
vn 0.979839 -0.131871 0.150087
s off
g Frame_A1 Frame_B
usemtl blinn9SG
f 82/89/241 81/120/242 83/119/243 84/118/244
f 76/113/245 73/114/246 74/116/247 75/115/248
f 78/97/249 77/98/250 81/90/251 82/117/252
f 77/98/253 79/99/254 83/91/255 81/90/256
f 79/99/257 80/100/258 84/92/259 83/91/260
f 80/100/261 78/97/262 82/117/263 84/92/264
s 1
f 93/101/265 86/102/266 85/103/267 96/104/268
f 85/103/267 88/105/269 95/106/270 96/104/268
f 87/107/271 86/102/272 93/101/265 94/108/273
f 88/105/269 87/107/271 94/108/273 95/106/270
s off
f 73/94/274 85/103/275 86/102/276 74/95/277
f 74/95/278 86/102/279 87/107/280 75/96/281
f 75/96/282 87/107/283 88/105/284 76/93/285
f 76/93/286 88/105/287 85/103/288 73/94/289
s 3
f 90/109/290 89/110/291 80/100/292 79/99/293
f 91/111/294 90/109/290 79/99/293 77/98/295
f 92/112/296 91/111/294 77/98/295 78/97/297
f 89/110/291 92/112/296 78/97/297 80/100/292
s 1
f 90/109/298 94/108/273 93/101/265 89/110/299
f 91/111/300 95/106/270 94/108/273 90/109/298
f 92/112/301 96/104/268 95/106/270 91/111/300
f 89/110/299 93/101/265 96/104/268 92/112/301
