# This file uses meters as units for non-parametric coordinates.

mtllib ArtGallery_LeftWall.mtl
g default
v 135.288056 12.057524 90.656841
v 137.008672 95.227906 90.656841
v 137.008672 95.227906 -87.791374
v 135.288056 12.057524 -87.791374
v 135.413402 18.117786 -87.791374
v 135.413402 18.117786 90.656841
v 135.804257 37.010737 -87.791374
v 135.804257 37.010737 90.656841
v 136.538837 72.518557 -87.791374
v 136.538837 72.518557 90.656841
v 138.027453 18.063714 -85.239173
v 137.902079 12.003456 -85.239173
v 138.027453 18.063714 90.382956
v 137.902079 12.003456 90.382956
v 136.861074 18.440072 90.505928
v 136.864625 18.611747 -86.385064
v 136.728416 12.027736 -86.385064
v 136.728416 12.027736 90.505928
vt 0.240345 0.520016
vt 0.240375 0.579049
vt 0.024174 0.579158
vt 0.024145 0.520124
vt 0.240299 0.427715
vt 0.024098 0.427823
vt 0.240274 0.378604
vt 0.024074 0.378713
vt 0.189704 0.273972
vt 0.184113 0.280004
vt 0.030735 0.281328
vt 0.028058 0.269768
vt 0.190764 0.358564
vt 0.028671 0.361098
vt 0.028775 0.359069
vt 0.189455 0.356557
vt 0.028861 0.357416
vt 0.188389 0.354922
vt 0.025072 0.265900
vt 0.194700 0.266956
vt 0.193350 0.269069
vt 0.025203 0.268022
vt 0.051442 0.308805
vt 0.051442 0.293051
vt 0.054146 0.293051
vt 0.054146 0.309721
vt 0.056348 0.293051
vt 0.056348 0.308805
vn 0.999786 -0.020684 0.000000
vn 0.999786 -0.020685 0.000000
vn 0.999786 -0.020685 0.000000
vn 0.999786 -0.020684 0.000000
vn 0.999786 -0.020683 0.000000
vn 0.999786 -0.020683 0.000000
vn 0.999786 -0.020683 0.000000
vn 0.999786 -0.020683 0.000000
vn 0.999786 -0.020683 0.000000
vn 0.999786 -0.020683 0.000000
vn 0.999786 -0.020683 0.000000
vn 0.999786 -0.020683 0.000000
vn -0.271219 0.962518 0.000462
vn -0.271219 0.962518 0.000462
vn 0.005753 0.999983 0.000485
vn -0.083392 0.996517 0.000482
vn 0.104161 -0.002155 0.994558
vn 0.104161 -0.002155 0.994558
vn 0.104161 -0.002155 0.994558
vn 0.104161 -0.002155 0.994558
vn -0.020677 -0.999786 0.000000
vn -0.020677 -0.999786 0.000000
vn -0.020678 -0.999786 0.000000
vn -0.020679 -0.999786 0.000000
vn 0.368708 0.929545 0.000456
vn 0.368708 0.929545 0.000456
vn -0.020683 -0.999786 0.000000
vn -0.020683 -0.999786 0.000000
vn 0.104161 -0.002155 0.994558
vn 0.104161 -0.002155 0.994558
s 1
g MuseumGalleryMesh1
usemtl blinn9SG
f 9/1/1 3/2/2 2/3/3 10/4/4
s off
f 12/9/5 11/10/6 13/11/7 14/12/8
s 1
f 5/7/9 7/5/10 8/6/11 6/8/12
f 7/5/10 9/1/1 10/4/4 8/6/11
s 2
f 5/13/13 6/14/14 15/15/15 16/16/16
s 3
f 6/23/17 1/24/18 18/25/19 15/26/20
s 4
f 1/19/21 4/20/22 17/21/23 18/22/24
s 2
f 16/16/16 15/15/15 13/17/25 11/18/26
s 4
f 18/22/24 17/21/23 12/9/27 14/12/28
s 3
f 15/26/20 18/25/19 14/27/29 13/28/30
