# This file uses meters as units for non-parametric coordinates.

mtllib ArtGallery_RightWall.mtl
g default
v 319.313294 9.674027 90.656841
v 321.033910 92.844408 90.656841
v 321.033910 92.844408 -87.791374
v 319.313294 9.674027 -87.791374
v 319.438667 15.734275 90.656841
v 319.438667 15.734275 -87.791374
v 319.829522 34.627229 90.656841
v 319.829522 34.627229 -87.791374
v 320.583798 71.087067 90.656841
v 320.589762 71.375359 -87.791374
v 319.313294 9.674027 -44.396714
v 319.438667 15.734275 -44.396714
v 319.829522 34.627229 -44.396714
v 320.589762 71.375359 -44.396714
v 321.033910 92.844408 -44.396714
v 319.313294 9.674027 -16.118270
v 319.438667 15.734275 -16.118270
v 319.829522 34.627229 -16.118270
v 320.583798 71.087067 -16.118270
v 321.033910 92.844408 -16.118270
v 319.818795 34.108712 -83.315649
v 319.433699 15.494142 -83.315649
v 320.363922 60.458798 -83.315649
v 320.363922 60.458798 -48.872428
v 319.828025 34.554888 -48.872428
v 319.441711 15.881399 -48.872428
v 319.313709 9.694086 -48.872428
v 319.313709 9.694089 -83.315649
v 345.476577 33.577929 -83.315649
v 345.091413 14.963346 -83.315649
v 346.021704 59.928013 -83.315649
v 322.763369 60.409153 -48.872428
v 322.227493 34.505259 -48.872428
v 321.868079 17.131375 -48.872428
v 344.971456 9.163283 -83.315649
v 317.651459 9.708406 90.382956
v 317.776847 15.768667 90.382956
v 317.776847 15.768667 -15.616236
v 317.651459 9.708406 -15.616236
v 317.776847 15.768667 -43.085795
v 317.651459 9.708406 -43.085795
v 316.196022 15.915793 -49.033117
v 316.068029 9.728468 -49.033117
v 315.226157 9.708406 -85.239173
v 315.351541 15.768664 -85.239173
v 316.068030 9.728473 -80.961513
v 316.188030 15.528525 -80.961513
v 342.357423 9.217369 -80.891467
v 342.477400 15.017422 -80.891467
v 318.831649 15.997095 -15.933324
v 318.831649 15.997095 90.555929
v 318.706275 9.936836 90.555929
v 318.706275 9.936836 -15.933324
v 318.706275 9.936836 -43.913771
v 318.706680 9.687895 -49.070822
v 317.250841 16.144218 -49.070822
v 318.831649 15.997095 -43.913771
v 317.003028 15.931820 -86.477499
v 317.342412 15.691692 -82.067677
v 343.749458 15.171025 -82.067677
v 343.629467 9.370977 -82.067677
v 318.461904 9.891640 -82.067677
v 318.461506 9.871573 -86.477499
v 319.313507 9.684325 -85.493222
v 318.461716 9.881879 -84.213192
v 315.115867 9.718712 -83.006765
v 315.238494 15.645362 -83.006765
v 317.000466 15.808522 -84.213192
v 319.436116 15.610976 -85.493222
v 319.824014 34.360984 -85.493222
v 320.473800 65.770047 -85.493222
v 320.473800 65.770047 -46.694855
v 319.828753 34.590085 -46.694855
v 319.440230 15.809820 -46.694855
v 317.249360 16.072642 -46.187688
v 316.194555 15.844214 -45.318188
v 316.067827 9.718707 -45.318188
v 318.706488 9.947148 -46.187688
v 319.313507 9.684325 -48.294486
v 317.655126 15.610975 -85.493222
v 318.043024 34.360986 -85.493222
v 317.652709 15.494143 -83.315649
v 318.037805 34.108712 -83.315649
v 318.692810 65.770043 -85.493222
v 318.582931 60.458798 -83.315649
v 318.692810 65.770043 -46.694855
v 318.582931 60.458798 -48.872428
v 318.047763 34.590085 -46.694855
v 318.047035 34.554890 -48.872428
v 317.659240 15.809818 -46.694855
v 317.660721 15.881398 -48.872428
vt 0.672747 0.522272
vt 0.672776 0.578829
vt 0.543413 0.578896
vt 0.543384 0.522339
vt 0.509153 0.578914
vt 0.509124 0.523105
vt 0.672698 0.427494
vt 0.543335 0.427561
vt 0.456576 0.578941
vt 0.456547 0.523132
vt 0.509074 0.427579
vt 0.672673 0.378382
vt 0.543310 0.378449
vt 0.459324 0.508559
vt 0.506331 0.508535
vt 0.506290 0.427485
vt 0.509049 0.378467
vt 0.456498 0.427606
vt 0.459282 0.426911
vt 0.506264 0.378667
vt 0.456473 0.378494
vt 0.459257 0.378172
vt 0.518356 0.357107
vt 0.518543 0.345563
vt 0.612653 0.347085
vt 0.612466 0.358630
vt 0.637042 0.347480
vt 0.636855 0.359024
vt 0.639025 0.347431
vt 0.638836 0.359099
vt 0.642324 0.347347
vt 0.642133 0.359133
vt 0.657463 0.344069
vt 0.660167 0.344082
vt 0.660210 0.359488
vt 0.657508 0.359822
vt 0.662645 0.344152
vt 0.662689 0.359228
vt 0.722575 0.443372
vt 0.722579 0.394627
vt 0.725210 0.394332
vt 0.725214 0.442716
vt 0.722575 0.525019
vt 0.725214 0.511213
vt 0.769581 0.525018
vt 0.766944 0.511213
vt 0.769582 0.443967
vt 0.766944 0.443876
vt 0.769582 0.395148
vt 0.766944 0.395335
vt 0.785070 0.508979
vt 0.833216 0.508979
vt 0.789573 0.550709
vt 0.785070 0.550709
vt 0.781728 0.550709
vt 0.781728 0.508980
vt 0.644241 0.366506
vt 0.549436 0.365450
vt 0.549610 0.364610
vt 0.644159 0.365663
vt 0.524326 0.365170
vt 0.524766 0.364333
vt 0.549907 0.363169
vt 0.644024 0.364217
vt 0.522285 0.365147
vt 0.522771 0.362133
vt 0.525515 0.362897
vt 0.520353 0.365126
vt 0.520211 0.362105
vt 0.523558 0.360697
vt 0.520259 0.360660
vt 0.508807 0.333324
vt 0.603606 0.334858
vt 0.603502 0.335698
vt 0.508957 0.334168
vt 0.603325 0.337140
vt 0.509215 0.335617
vt 0.483700 0.332917
vt 0.484115 0.333766
vt 0.484826 0.335222
vt 0.480240 0.332861
vt 0.482097 0.333733
vt 0.482810 0.337368
vt 0.479726 0.332853
vt 0.479536 0.333685
vt 0.479512 0.337314
vt 0.257721 0.315388
vt 0.258568 0.316242
vt 0.259202 0.315388
vt 0.260026 0.316242
vt 0.259366 0.319466
vt 0.260606 0.315388
vt 0.261410 0.316242
vt 0.260804 0.319577
vt 0.260606 0.289782
vt 0.261410 0.291124
vt 0.262122 0.318628
vt 0.262168 0.292390
vt 0.268876 0.315390
vt 0.268029 0.317825
vt 0.267232 0.319469
vt 0.267395 0.315390
vt 0.266570 0.317825
vt 0.265792 0.319578
vt 0.265993 0.315390
vt 0.265189 0.317479
vt 0.264474 0.318629
vt 0.265993 0.289782
vt 0.265189 0.291125
vt 0.264430 0.292393
vt 0.722221 0.391300
vt 0.724844 0.391014
vt 0.769581 0.528360
vt 0.722576 0.528361
vt 0.773030 0.392627
vt 0.772924 0.395254
vt 0.769583 0.395139
vt 0.769690 0.392492
vt 0.785070 0.392096
vt 0.833216 0.392096
vt 0.833216 0.440483
vt 0.785070 0.440483
vt 0.781727 0.440387
vt 0.781727 0.391999
vt 0.781727 0.508884
vt 0.843524 0.391993
vt 0.848026 0.391993
vt 0.848026 0.459332
vt 0.843524 0.459332
vt 0.848026 0.504490
vt 0.843524 0.507868
vt 0.840181 0.459428
vt 0.840181 0.392088
vt 0.840181 0.507964
vt 0.711977 0.344088
vt 0.712022 0.359167
vt 0.714359 0.344548
vt 0.714404 0.359624
vt 0.716881 0.344073
vt 0.716926 0.359152
vt 0.047814 0.293051
vt 0.047814 0.308805
vt 0.046665 0.309456
vt 0.046665 0.293702
vt 0.044694 0.308805
vt 0.044694 0.293051
vt 0.066066 0.293610
vt 0.066066 0.309696
vt 0.064928 0.309744
vt 0.061947 0.293045
vt 0.059976 0.309782
vt 0.059976 0.293696
vt 0.719233 0.443468
vt 0.719233 0.394722
vt 0.722575 0.394626
vt 0.719233 0.525114
vt 0.772924 0.444063
vt 0.772923 0.525114
vn -0.999786 0.020683 0.000000
vn -0.999786 0.020683 0.000000
vn -0.999786 0.020683 0.000000
vn -0.999786 0.020683 0.000000
vn -0.999786 0.020685 0.000000
vn -0.999786 0.020685 0.000000
vn -0.999786 0.020686 0.000000
vn -0.999786 0.020686 0.000000
vn -0.999786 0.020683 0.000000
vn -0.999786 0.020683 0.000000
vn -0.999786 0.020683 0.000000
vn -0.999786 0.020683 0.000000
vn -0.999786 0.020683 0.000000
vn -0.999786 0.020683 0.000000
vn -0.999786 0.020683 0.000000
vn -0.999786 0.020683 0.000000
vn -0.998307 0.020655 0.054370
vn -0.998330 0.020656 0.053958
vn -0.999786 0.020683 0.000000
vn -0.999786 0.020683 0.000000
vn -0.999786 0.020683 0.000000
vn -0.999786 0.020683 0.000000
vn -0.999786 0.020683 0.000000
vn -0.999786 0.020683 0.000000
vn -0.999786 0.020683 0.000000
vn -0.999786 0.020683 0.000000
vn -0.999786 0.020683 0.000000
vn -0.999786 0.020683 0.000000
vn -0.968244 0.020031 0.249202
vn -0.966765 0.020001 0.254884
vn -0.998564 0.020660 -0.049427
vn -0.982004 0.020318 0.187762
vn -0.984386 0.020367 0.174841
vn -0.998564 0.020660 -0.049427
vn 0.000000 -0.000000 1.000000
vn 0.000000 -0.000000 1.000000
vn 0.000000 -0.000000 1.000000
vn -0.000000 0.000000 1.000000
vn 0.000000 0.000000 1.000000
vn -0.000000 0.000000 1.000000
vn -0.018354 -0.999832 -0.000000
vn -0.020683 -0.999786 -0.000000
vn -0.020683 -0.999786 -0.000000
vn -0.018354 -0.999832 -0.000000
vn 0.000000 -0.000000 -1.000000
vn 0.000000 0.000000 -1.000000
vn 0.000000 0.000000 -1.000000
vn 0.000001 -0.000000 -1.000000
vn 0.000000 0.000000 -1.000000
vn 0.000001 -0.000000 -1.000000
vn -0.002663 0.000055 0.999996
vn -0.002663 0.000055 0.999997
vn -0.002663 0.000055 0.999997
vn -0.002663 0.000055 0.999997
vn -0.162578 0.003363 0.986690
vn -0.162578 0.003363 0.986690
vn -0.162550 0.003363 0.986695
vn -0.162553 0.003363 0.986694
vn 0.397328 0.917677 0.000000
vn 0.397326 0.917677 0.000000
vn 0.041671 0.999131 0.000000
vn 0.040099 0.999196 0.000000
vn -0.397313 -0.917683 0.000000
vn -0.397314 -0.917683 0.000000
vn -0.040091 -0.999196 0.000000
vn -0.041662 -0.999132 0.000000
vn 0.343700 0.939053 -0.007006
vn 0.105037 0.994458 0.004510
vn -0.398193 -0.917302 -0.000491
vn -0.095315 -0.995434 -0.005213
vn 0.140228 0.990085 0.008273
vn -0.031135 0.998542 0.044088
vn 0.141732 0.014885 -0.989793
vn 0.141732 0.014885 -0.989793
vn 0.057323 0.006020 -0.998338
vn 0.044492 0.004673 -0.998999
vn -0.178546 -0.982520 0.052691
vn -0.033204 -0.999380 0.011684
vn -0.219523 -0.975597 0.004427
vn -0.219565 -0.975588 0.004427
vn -0.005903 -0.999982 0.001327
vn -0.036087 -0.999334 0.005430
vn 0.110114 0.992641 0.050392
vn 0.109136 0.992572 0.053769
vn 0.062164 0.996617 0.053759
vn 0.035225 0.997887 0.054598
vn -0.031357 -0.990301 0.135357
vn -0.020472 -0.989558 0.142673
vn -0.020453 -0.995654 0.090862
vn -0.015143 -0.996019 -0.087849
vn 0.679760 -0.014061 0.733300
vn 0.679760 -0.014061 0.733300
vn 0.679757 -0.014061 0.733302
vn 0.679757 -0.014061 0.733303
vn 0.020011 0.990868 -0.133346
vn 0.029088 0.992822 -0.116011
vn 0.020893 0.993747 0.109684
vn 0.019980 0.996189 -0.084904
vn -0.211653 0.977345 0.000000
vn -0.211653 0.977345 0.000000
vn -0.162537 0.003363 0.986697
vn -0.162537 0.003363 0.986697
vn 0.211653 -0.977345 0.000000
vn 0.211653 -0.977345 0.000000
vn 0.197408 -0.980306 -0.005503
vn 0.059505 -0.998106 0.015625
vn -0.020304 -0.002132 -0.999792
vn -0.020304 -0.002132 -0.999792
vn -0.157326 0.984774 0.073956
vn -0.202058 0.979294 0.012451
vn -0.057201 0.996944 0.053201
vn -0.055486 0.996408 0.063974
vn 0.000224 0.990767 0.135574
vn 0.019123 0.987356 0.157364
vn 0.679754 -0.014061 0.733306
vn 0.679754 -0.014061 0.733306
vn -0.019533 -0.985566 -0.168161
vn 0.022474 -0.996812 -0.076555
vn 0.052614 -0.998615 -0.000236
vn 0.051689 -0.998646 0.005842
vn -0.906447 0.018755 0.421903
vn -0.906447 0.018755 0.421903
vn -0.999786 0.020683 0.000000
vn -0.999786 0.020683 0.000000
vn -0.999786 0.020683 0.000000
vn -0.999786 0.020683 0.000000
vn -0.999786 0.020684 0.000000
vn -0.999786 0.020683 0.000000
vn -0.999786 0.020684 0.000000
vn -0.999786 0.020683 0.000000
vn -0.999786 0.020683 0.000000
vn -0.999786 0.020683 0.000000
vn -0.999786 0.020683 0.000000
vn -0.999786 0.020683 0.000000
vn 0.121015 0.992252 0.028139
vn -0.006338 0.999649 0.025717
vn -0.202907 0.978970 0.021149
vn -0.999786 0.020683 0.000002
vn -0.999786 0.020683 0.000002
vn 0.028709 -0.998746 0.041027
vn 0.042033 -0.998403 0.037754
vn -0.097373 -0.992673 0.071546
vn -0.000002 0.000000 -1.000000
vn -0.000001 0.000000 -1.000000
vn -0.000001 0.000000 -1.000000
vn -0.000002 0.000000 -1.000000
vn 0.000000 -0.998564 -0.053576
vn 0.000000 -0.998564 -0.053576
vn 0.000000 -0.998564 -0.053576
vn 0.000000 -0.998564 -0.053576
vn -0.000002 0.000000 1.000000
vn 0.000001 -0.000000 1.000000
vn -0.000003 0.000000 -1.000000
vn -0.000003 0.000000 -1.000000
vn -0.000004 0.000000 1.000000
vn -0.000002 1.000000 0.000000
vn -0.000002 1.000000 0.000000
vn -0.000002 1.000000 0.000000
vn -0.000002 1.000000 0.000000
vn -0.000000 -1.000000 0.000000
vn -0.000000 -1.000000 0.000000
vn -0.000001 0.000000 1.000000
vn -0.000001 0.000000 1.000000
vn -0.000001 0.000000 1.000000
vn -0.000001 0.000000 1.000000
vn 0.000001 -0.000000 -1.000000
vn 0.000001 -0.000000 -1.000000
vn -0.000000 0.000000 1.000000
vn -0.000000 0.000000 1.000000
vn 0.000002 -0.000000 -1.000000
vn 0.000001 -0.999460 -0.032854
vn 0.000001 -0.999460 -0.032854
vn 0.000001 -0.999460 -0.032854
vn 0.000001 -0.999460 -0.032854
s 1
g MuseumGalleryMesh2
usemtl blinn9SG
f 9/1/1 2/2/2 20/3/3 19/4/4
s 2
f 36/23/5 37/24/6 38/25/7 39/26/8
s 1
f 5/12/9 7/7/10 18/8/11 17/13/12
f 7/7/10 9/1/1 19/4/4 18/8/11
f 15/5/13 3/9/14 10/10/15 14/6/16
s 2
f 39/26/8 38/25/7 40/27/17 41/28/18
s 1
f 18/8/11 13/11/19 12/17/20 17/13/12
f 19/4/4 14/6/16 13/11/19 18/8/11
f 20/3/3 15/5/13 14/6/16 19/4/4
f 6/21/21 69/22/22 70/19/23 8/18/24
f 8/18/24 70/19/23 71/14/25 10/10/15
f 10/10/15 71/14/25 72/15/26 14/6/16
f 14/6/16 72/15/26 73/16/27 13/11/19
f 13/11/19 73/16/27 74/20/28 12/17/20
s 2
f 40/27/17 76/29/29 77/30/30 41/28/18
s 5
f 44/33/31 66/34/32 67/35/33 45/36/34
s 6
f 22/119/35 30/120/36 29/121/37 21/122/38
f 21/122/38 29/121/37 31/52/39 23/51/40
s 7
f 23/51/41 31/52/42 32/53/43 24/54/44
s 8
f 24/126/45 32/127/46 33/128/47 25/129/48
f 25/129/48 33/128/47 34/130/49 26/131/50
s off
f 46/37/51 48/135/52 49/136/53 47/38/54
s 9
f 1/141/55 5/142/56 51/143/57 52/144/58
s 10
f 5/57/59 17/58/60 50/59/61 51/60/62
s 11
f 16/72/63 1/73/64 52/74/65 53/75/66
s 10
f 17/58/60 12/61/67 57/62/68 50/59/61
s 11
f 11/78/69 16/72/63 53/75/66 54/79/70
s 10
f 12/61/67 74/65/71 75/66/72 57/62/68
s 12
f 26/147/73 27/148/74 55/149/75 56/150/76
s 11
f 79/81/77 11/78/69 54/79/70 78/82/78
s 13
f 4/87/79 64/89/80 65/90/81 63/88/82
s 14
f 69/102/83 6/99/84 58/100/85 68/103/86
s 13
f 28/92/87 35/95/88 61/96/89 62/93/90
s 16
f 35/139/91 30/140/92 60/138/93 61/137/94
s 14
f 30/108/95 22/105/96 59/106/97 60/109/98
s 10
f 51/60/62 50/59/61 38/63/99 37/64/100
s 9
f 52/144/58 51/143/57 37/145/101 36/146/102
s 11
f 53/75/66 52/74/65 36/76/103 39/77/104
f 54/79/70 53/75/66 39/77/104 41/80/105
f 78/82/78 54/79/70 41/80/105 77/83/106
s 12
f 56/150/76 55/149/75 43/151/107 42/152/108
s 10
f 57/62/68 75/66/72 76/70/109 40/67/110
f 50/59/61 57/62/68 40/67/110 38/63/99
s 14
f 68/103/86 58/100/85 45/101/111 67/104/112
f 60/109/98 59/106/97 47/107/113 49/110/114
s 16
f 61/137/94 60/138/93 49/136/115 48/135/116
s 13
f 62/93/90 61/96/89 48/98/117 46/97/118
f 63/88/82 65/90/81 66/94/119 44/91/120
f 64/89/80 28/92/87 62/93/90 65/90/81
f 66/94/119 65/90/81 62/93/90 46/97/118
s 5
f 67/35/33 66/34/32 46/37/121 47/38/122
s 14
f 59/106/97 68/103/86 67/104/112 47/107/113
f 22/105/96 69/102/83 68/103/86 59/106/97
s 17
f 81/39/123 80/40/124 82/41/125 83/42/126
f 84/43/127 81/39/123 83/42/126 85/44/128
f 86/45/129 84/43/127 85/44/128 87/46/130
f 88/47/131 86/45/129 87/46/130 89/48/132
f 90/49/133 88/47/131 89/48/132 91/50/134
s 10
f 75/66/72 74/65/71 26/68/135 56/69/136
f 76/70/109 75/66/72 56/69/136 42/71/137
s 2
f 77/30/30 76/29/29 42/31/138 43/32/139
s 11
f 55/85/140 78/82/78 77/83/106 43/86/141
f 27/84/142 79/81/77 78/82/78 55/85/140
s 18
f 70/153/143 69/154/144 80/155/145 81/39/146
s off
f 69/111/147 22/112/148 82/41/149 80/40/150
s 6
f 22/119/35 21/122/38 83/123/151 82/124/152
s 18
f 71/156/153 70/153/143 81/39/146 84/43/154
s 6
f 21/122/38 23/51/40 85/125/155 83/123/151
s off
f 72/113/156 71/114/157 84/43/158 86/45/159
s 7
f 23/51/41 24/54/44 87/55/160 85/56/161
s 19
f 73/157/162 72/158/163 86/45/164 88/47/165
s 8
f 24/126/45 25/129/48 89/132/166 87/133/167
s 19
f 74/116/168 73/157/162 88/47/165 90/117/169
s 8
f 25/129/48 26/131/50 91/134/170 89/132/166
s off
f 26/115/171 74/116/172 90/117/173 91/118/174
