# This file uses meters as units for non-parametric coordinates.

mtllib ArtGallery_BackWall.mtl
g default
v 492.883207 95.227906 -87.791374
v 608.095633 92.844408 -87.791374
v 491.162591 12.057524 -87.791374
v 606.375016 9.674027 -87.791374
v 606.500390 15.734275 -87.791374
v 491.287937 18.117786 -87.791374
v 606.891244 34.627229 -87.791374
v 491.678792 37.010737 -87.791374
v 607.651484 71.375359 -87.791374
v 492.413372 72.518557 -87.791374
v 520.138113 11.608729 -87.791374
v 520.200805 17.519640 -87.791374
v 520.591670 36.412582 -87.791374
v 521.321045 71.669185 -87.791374
v 521.796048 94.629761 -87.791374
v 558.269387 10.768889 -87.845428
v 558.392959 16.742025 -87.845428
v 558.750978 35.623148 -87.791374
v 559.480360 70.879750 -87.791374
v 559.955366 93.840347 -87.791374
v 524.750217 36.316945 -87.791374
v 525.270151 61.056233 -87.791374
v 555.111952 60.922725 -87.791374
v 554.592017 35.699586 -87.791374
v 554.200665 16.782619 -87.791374
v 554.082501 11.070844 -87.791374
v 524.300232 11.684929 -87.791374
v 524.359761 17.443217 -87.791374
v 558.359555 10.667363 -85.239173
v 558.484929 16.727624 -85.239173
v 602.287879 9.708406 -85.239173
v 602.413263 15.768664 -85.239173
v 493.901988 18.063714 -85.239173
v 493.776614 12.003456 -85.239173
v 520.607322 11.448376 -85.266769
v 520.732695 17.508624 -85.266769
v 492.739161 18.611747 -86.385064
v 520.507853 17.648773 -86.486082
v 520.379697 11.453090 -86.486077
v 492.602951 12.027736 -86.385064
v 558.436144 16.821363 -86.435469
v 604.064750 15.931820 -86.477499
v 605.523228 9.871573 -86.477499
v 558.310337 10.781331 -86.459518
v 524.750217 36.316945 -94.990317
v 525.270151 61.056233 -94.990317
v 555.111952 60.922725 -94.990317
v 554.592017 35.699586 -94.990317
v 554.200665 16.782619 -94.990317
v 554.082501 11.070844 -94.990317
v 524.240705 11.688207 -94.990317
v 524.359761 17.443217 -94.990317
v 523.428328 66.006018 -87.791374
v 557.149327 65.566568 -87.791374
v 559.366190 65.462433 -87.791374
v 521.202179 65.923478 -87.791374
v 524.359761 17.443217 -84.284902
v 524.750217 36.316945 -84.284902
v 525.270151 61.056233 -84.284902
v 523.428328 66.006018 -84.284902
v 521.202179 65.923478 -84.284902
v 520.591670 36.412582 -84.284902
v 520.200805 17.519640 -84.284902
v 520.138113 11.608729 -84.284902
v 524.300232 11.684929 -84.284902
v 555.118431 60.921708 -84.284918
v 557.155806 65.565561 -84.284918
v 554.095459 11.068813 -84.284934
v 554.213623 16.780585 -84.284934
v 558.282345 10.766846 -84.338988
v 558.405918 16.739991 -84.338988
v 558.763934 35.621108 -84.284934
v 559.379150 65.460403 -84.284934
v 554.604975 35.697553 -84.284934
vt 0.456576 0.578941
vt 0.456547 0.523132
vt 0.240345 0.520016
vt 0.240375 0.579049
vt 0.240299 0.427715
vt 0.240274 0.378604
vt 0.189704 0.273972
vt 0.184113 0.280004
vt 0.357758 0.326474
vt 0.357758 0.318304
vt 0.358599 0.318095
vt 0.358599 0.326662
vt 0.359385 0.318095
vt 0.359385 0.326474
vt 0.292585 0.362502
vt 0.292585 0.328299
vt 0.297225 0.328299
vt 0.297225 0.362502
vt 0.290326 0.362502
vt 0.290326 0.328299
vt 0.292585 0.302205
vt 0.297225 0.302205
vt 0.290326 0.302205
vt 0.292585 0.294245
vt 0.297225 0.294249
vt 0.290326 0.294245
vt 0.285769 0.328298
vt 0.285769 0.363171
vt 0.281131 0.363171
vt 0.281131 0.328298
vt 0.288030 0.328295
vt 0.288030 0.363169
vt 0.285769 0.302144
vt 0.281131 0.302144
vt 0.288030 0.302142
vt 0.285769 0.294248
vt 0.281131 0.294248
vt 0.288030 0.294245
vt 0.355829 0.318095
vt 0.355829 0.326474
vt 0.355058 0.326602
vt 0.355043 0.318252
vt 0.354150 0.326492
vt 0.354150 0.318233
vt 0.253396 0.364872
vt 0.253396 0.324072
vt 0.255655 0.324072
vt 0.255655 0.364872
vt 0.253396 0.297952
vt 0.255655 0.297952
vt 0.253396 0.289782
vt 0.255655 0.289782
vt 0.251402 0.289782
vt 0.251402 0.298041
vt 0.249142 0.298038
vt 0.249142 0.289780
vt 0.251366 0.324143
vt 0.249107 0.324141
vt 0.251366 0.365398
vt 0.249107 0.365395
vt 0.257686 0.363401
vt 0.257721 0.315388
vt 0.258568 0.316242
vt 0.258580 0.363362
vt 0.259366 0.319466
vt 0.259366 0.363310
vt 0.268876 0.315390
vt 0.268912 0.363401
vt 0.268003 0.363361
vt 0.268029 0.317825
vt 0.267232 0.363310
vt 0.267232 0.319469
vt 0.190764 0.358564
vt 0.189455 0.356557
vt 0.188389 0.354922
vt 0.190128 0.317886
vt 0.188934 0.317476
vt 0.187824 0.317173
vt 0.194700 0.266956
vt 0.193350 0.269069
vt 0.194434 0.309613
vt 0.193191 0.309966
vt 0.191825 0.307094
vt 0.242624 0.356740
vt 0.212858 0.356077
vt 0.212961 0.351439
vt 0.242727 0.352101
vt 0.242583 0.359000
vt 0.212806 0.358335
vt 0.338104 0.323869
vt 0.338104 0.326090
vt 0.335844 0.326090
vt 0.335844 0.323869
vt 0.338104 0.290220
vt 0.335844 0.290215
vt 0.338104 0.288006
vt 0.335844 0.287993
vt 0.341053 0.323179
vt 0.341053 0.319029
vt 0.343312 0.319029
vt 0.343312 0.323179
vt 0.345276 0.323225
vt 0.345242 0.319041
vt 0.347502 0.319029
vt 0.347536 0.323212
vt 0.366239 0.578986
vt 0.366208 0.519300
vt 0.294631 0.579022
vt 0.294601 0.519336
vt 0.366197 0.505219
vt 0.366162 0.427652
vt 0.456499 0.427606
vt 0.298768 0.504733
vt 0.362034 0.505371
vt 0.366200 0.378573
vt 0.456475 0.378494
vt 0.294555 0.427688
vt 0.294593 0.504400
vt 0.294530 0.378575
vt 0.333871 0.331837
vt 0.325492 0.331837
vt 0.325422 0.287994
vt 0.333802 0.287994
vt 0.183259 0.304430
vt 0.212796 0.298036
vt 0.212796 0.324130
vt 0.210865 0.365121
vt 0.208645 0.364943
vt 0.208645 0.324143
vt 0.208645 0.298023
vt 0.208705 0.289853
vt 0.212855 0.290077
vt 0.244521 0.365477
vt 0.242592 0.297974
vt 0.242592 0.290078
vt 0.246776 0.289780
vt 0.246776 0.298038
vt 0.246742 0.324141
vt 0.246741 0.365395
vt 0.242592 0.324128
vn -0.000000 0.000000 1.000000
vn -0.000000 0.000000 1.000000
vn -0.000000 0.000000 1.000000
vn -0.000000 0.000000 1.000000
vn -0.000000 0.000000 1.000000
vn -0.000000 0.000000 1.000000
vn -0.000000 0.000000 1.000000
vn -0.000000 0.000000 1.000000
vn -0.000203 -0.000488 1.000000
vn -0.000591 -0.001419 0.999999
vn -0.000591 -0.001419 0.999999
vn -0.000203 -0.000488 1.000000
vn -0.000000 0.000000 1.000000
vn 0.001028 -0.000021 0.999999
vn 0.001028 -0.000021 0.999999
vn 0.001028 -0.000021 0.999999
vn 0.001028 -0.000021 0.999999
vn 0.000000 0.000000 1.000000
vn 0.000000 0.000000 1.000000
vn 0.000000 0.000000 1.000000
vn 0.000000 0.000000 1.000000
vn 0.000000 0.000000 1.000000
vn 0.000000 0.000000 1.000000
vn 0.000000 0.000000 1.000000
vn 0.000000 0.000000 1.000000
vn 0.000000 0.000000 1.000000
vn -0.000000 0.000000 1.000000
vn -0.000000 0.000000 1.000000
vn -0.000000 0.000000 1.000000
vn 0.000000 -0.000000 1.000000
vn -0.000000 0.000000 1.000000
vn -0.000000 0.000000 1.000000
vn -0.000000 0.000000 1.000000
vn -0.000000 0.000000 1.000000
vn -0.000000 0.000000 1.000000
vn 0.000000 0.000000 1.000000
vn 0.000000 0.000000 1.000000
vn -0.021000 -0.997237 0.071258
vn -0.021000 -0.997237 0.071258
vn -0.020977 -0.998384 0.052816
vn -0.020812 -0.999519 -0.022982
vn 0.020177 0.996299 -0.083555
vn 0.020177 0.996299 -0.083555
vn 0.020444 0.999772 0.006118
vn 0.020269 0.998101 -0.058167
vn -0.018103 -0.998208 -0.057030
vn -0.018103 -0.998208 -0.057030
vn -0.019515 -0.999471 -0.026003
vn -0.018507 -0.998667 -0.048190
vn 0.026299 0.970406 -0.240041
vn 0.026299 0.970406 -0.240041
vn 0.027073 0.989291 -0.143425
vn 0.027815 0.998700 0.042723
vn 0.027426 0.964023 0.264401
vn 0.027426 0.964023 0.264401
vn -0.020684 -0.999786 -0.000005
vn -0.020684 -0.999786 -0.000005
vn 0.020547 0.992768 0.118276
vn 0.020547 0.992768 0.118276
vn -0.020330 -0.990229 -0.137959
vn -0.020330 -0.990229 -0.137959
vn -0.978475 0.015425 0.205789
vn -0.978475 0.015425 0.205789
vn -0.980811 0.018002 0.194128
vn -0.980623 0.017788 0.195098
vn -0.982799 0.020330 0.183557
vn -0.982799 0.020330 0.183557
vn 0.999779 -0.021012 0.000000
vn 0.999782 -0.020870 0.000000
vn 0.999782 -0.020870 0.000000
vn 0.999779 -0.021012 0.000000
vn -0.004479 -0.999990 -0.000046
vn -0.004479 -0.999990 -0.000046
vn -0.004474 -0.999990 0.000000
vn -0.004474 -0.999990 0.000000
vn -0.999787 0.020617 0.001041
vn -0.999788 0.020567 0.000910
vn -0.999788 0.020609 0.000000
vn -0.999787 0.020641 0.000000
vn -0.999785 0.020683 0.001214
vn -0.999786 0.020683 0.000000
vn -0.999785 0.020683 0.001215
vn -0.999786 0.020683 0.000000
vn 0.999818 -0.019078 -0.000650
vn 0.999901 -0.013814 -0.002782
vn 0.999871 -0.015509 -0.004137
vn 0.999810 -0.019474 -0.000967
vn 0.002546 -0.000400 0.999997
vn 0.002504 -0.000393 0.999997
vn 0.003694 -0.000580 0.999993
vn 0.003694 -0.000580 0.999993
vn 0.003694 -0.000580 0.999993
vn 0.003694 -0.000580 0.999993
vn 0.003694 -0.000580 0.999993
vn 0.003694 -0.000580 0.999993
vn 0.003694 -0.000580 0.999993
vn -0.998892 0.020651 0.042283
vn -0.998892 0.020651 0.042283
vn -0.999163 0.020671 0.035307
vn -0.999148 0.020670 0.035724
vn -0.999354 0.020687 0.029394
vn -0.999354 0.020687 0.029394
vn 0.999782 -0.020870 0.000000
vn 0.999833 -0.018265 0.000000
vn 0.999779 -0.021012 0.000000
vn 0.009941 0.999951 0.000123
vn -0.037052 0.999313 0.000000
vn -0.037052 0.999313 0.000000
vn 0.009941 0.999951 0.000123
vn -0.999786 0.020683 0.000000
vn -0.999786 0.020683 0.000000
vn -0.999786 0.020683 0.000000
vn -0.999786 0.020683 0.000000
vn -0.999833 0.018283 0.000000
vn -0.999833 0.018283 0.000000
vn -0.999944 0.010605 0.000000
vn -0.999944 0.010605 0.000000
vn 0.018305 -0.999832 0.000000
vn 0.018305 -0.999832 0.000000
vn 0.018305 -0.999832 0.000000
vn 0.018305 -0.999832 0.000000
vn 0.999947 -0.010337 0.000000
vn -0.004490 -0.999990 -0.000141
vn -0.004490 -0.999990 -0.000141
vn 0.015142 0.999885 0.000142
vn 0.015157 0.999885 0.000142
vn -0.999779 0.020683 0.003707
vn -0.999779 0.020683 0.003707
vn -0.071938 -0.997409 -0.000315
vn -0.071938 -0.997409 -0.000315
vn -0.071938 -0.997409 -0.000315
vn -0.071938 -0.997409 -0.000315
vn 0.999779 -0.020683 -0.003707
vn 0.999806 -0.019365 -0.003706
vn 0.999806 -0.019365 -0.003706
vn 0.999779 -0.020683 -0.003707
vn 0.999794 -0.019968 -0.003706
vn 0.999794 -0.019967 -0.003706
vn 0.999781 -0.020613 -0.003707
vn 0.999781 -0.020613 -0.003707
vn 0.047083 0.998891 0.000302
vn 0.047083 0.998891 0.000302
vn -0.999783 0.020567 0.003177
vn -0.999786 0.020480 0.002780
s 1
g MuseumGalleryMesh3
usemtl blinn9SG
f 20/106/1 19/107/2 9/2/3 2/1/4
s off
f 30/120/5 29/121/6 31/122/7 32/123/8
s 1
f 18/111/9 17/115/10 5/116/11 7/112/12
f 19/107/2 55/110/13 18/111/9 7/112/12 9/2/3
s off
f 33/8/14 34/7/15 35/83/16 36/124/17
s 1
f 8/5/18 6/6/19 12/119/20 13/117/21
f 10/3/22 8/5/18 13/117/21 56/118/23 14/109/24
f 1/4/25 10/3/22 14/109/24 15/108/26
f 15/108/26 14/109/24 19/107/2 20/106/1
s 3
f 57/125/27 58/126/28 59/89/29 60/127/30 61/128/31 62/129/32 63/130/33 64/131/34 65/132/35
s 1
f 14/109/24 53/113/36 54/114/37 19/107/2
f 54/114/37 55/110/13 19/107/2
s 4
f 16/61/38 4/62/39 43/63/40 44/64/41
s 5
f 5/67/42 17/68/43 41/69/44 42/70/45
s 6
f 3/79/46 11/81/47 39/82/48 40/80/49
s 7
f 12/76/50 6/73/51 37/74/52 38/77/53
f 38/77/53 37/74/52 33/75/54 36/78/55
s 6
f 40/80/49 39/82/48 35/83/56 34/7/57
s 5
f 42/70/45 41/69/44 30/71/58 32/72/59
s 4
f 44/64/41 43/63/40 31/65/60 29/66/61
s 8
f 12/9/62 11/10/63 39/11/64 38/12/65
f 38/12/65 39/11/64 35/13/66 36/14/67
s 9
f 22/15/68 21/16/69 45/17/70 46/18/71
s 10
f 23/84/72 22/85/73 46/86/74 47/87/75
s 11
f 24/27/76 23/28/77 47/29/78 48/30/79
f 25/33/80 24/27/76 48/30/79 49/34/81
f 26/36/82 25/33/80 49/34/81 50/37/83
s 9
f 28/21/84 27/24/85 51/25/86 52/22/87
f 21/16/69 28/21/84 52/22/87 45/17/70
s 3
f 60/127/30 59/89/29 66/88/88 67/133/89
s 1
f 56/118/23 53/113/36 14/109/24
s 3
f 69/134/90 68/135/91 70/136/92 71/137/93 72/138/94 73/139/95 67/133/89 66/88/88 74/140/96
s 13
f 29/39/97 30/40/98 41/41/99 44/42/100
f 44/42/100 41/41/99 17/43/101 16/44/102
s 9
f 28/21/84 21/16/69 58/20/103 57/23/104
f 21/16/69 22/15/68 59/19/105 58/20/103
s 14
f 53/90/106 56/91/107 61/92/108 60/93/109
s 15
f 56/45/110 13/46/111 62/47/112 61/48/113
f 13/46/111 12/49/114 63/50/115 62/47/112
f 12/49/114 11/51/116 64/52/117 63/50/115
s off
f 11/98/118 27/99/119 65/100/120 64/101/121
s 9
f 27/24/85 28/21/84 57/23/104 65/26/122
s 10
f 22/85/73 23/84/72 66/88/123 59/89/124
s 14
f 54/94/125 53/90/106 60/93/109 67/95/126
s 11
f 25/33/80 26/36/82 68/38/127 69/35/128
s off
f 26/102/129 16/103/130 70/104/131 68/105/132
s 16
f 16/53/133 17/54/134 71/55/135 70/56/136
f 17/54/134 18/57/137 72/58/138 71/55/135
f 18/57/137 55/59/139 73/60/140 72/58/138
s 14
f 55/96/141 54/94/125 67/95/126 73/97/142
s 11
f 23/28/77 24/27/76 74/31/143 66/32/144
f 24/27/76 25/33/80 69/35/128 74/31/143
