# This file uses meters as units for non-parametric coordinates.

mtllib Atrium_SecondFloor_Railway.mtl
g default
v -2599.504121 3237.111523 -821.335110
v -2589.184297 3237.111523 -821.335110
v -2599.504121 3055.562450 -821.335110
v -2589.184297 3055.562450 -821.335110
v -2599.504121 3055.562450 -1226.328397
v -2589.184297 3055.562450 -1226.328397
v -2599.504121 3237.111523 -1226.328397
v -2589.184297 3237.111523 -1226.328397
v -2596.780244 3237.111523 -1226.328397
v -2591.907930 3237.111523 -1226.328397
v -2591.907930 3237.111523 -821.335110
v -2596.780244 3237.111523 -821.335110
v -2596.780244 3296.977490 -1226.328397
v -2591.907930 3296.977490 -1226.328397
v -2591.907930 3296.977490 -821.335110
v -2596.780244 3296.977490 -821.335110
v -2591.907930 3243.205029 -1217.426541
v -2591.907930 3243.205029 -830.237088
v -2591.907930 3290.884228 -830.237088
v -2591.907930 3290.884228 -1217.426541
v -2596.780244 3243.205029 -1217.426541
v -2596.780244 3243.205029 -830.237088
v -2596.780244 3290.884228 -1217.426541
v -2596.780244 3290.884228 -830.237088
v -2594.344209 3243.205029 -830.237088
v -2594.344209 3290.884228 -830.237088
v -2594.344209 3290.884228 -1217.426541
v -2594.344209 3243.205029 -1217.426541
v -2607.901582 3046.758984 -821.335110
v -2580.786592 3046.758984 -821.335110
v -2607.901582 2987.643993 -821.335110
v -2580.786592 2987.643993 -821.335110
v -2607.901582 2987.643993 -1226.328397
v -2580.786592 2987.643993 -1226.328397
v -2607.901582 3046.758984 -1226.328397
v -2580.786592 3046.758984 -1226.328397
v -2598.764863 3046.758984 -1226.328397
v -2589.923311 3046.758984 -1226.328397
v -2589.923311 3046.758984 -821.335110
v -2598.764863 3046.758984 -821.335110
v -2598.764863 3056.913769 -1226.328397
v -2589.923311 3056.913769 -1226.328397
v -2589.923311 3056.913769 -821.335110
v -2598.764863 3056.913769 -821.335110
vt 0.874400 0.733941
vt 0.874400 0.678674
vt 0.874400 0.678674
vt 0.874400 0.733941
vt 0.938521 0.678674
vt 0.938521 0.678674
vt 0.938521 0.733941
vt 0.938521 0.733941
vt 0.938521 0.752165
vt 0.874400 0.752165
vt 0.874400 0.752165
vt 0.938521 0.752165
vt 0.938521 0.733941
vt 0.938521 0.733941
vt 0.874400 0.733941
vt 0.874400 0.733941
vt 0.937112 0.735796
vt 0.875809 0.735796
vt 0.875809 0.750310
vt 0.937112 0.750310
vt 0.875809 0.735796
vt 0.937112 0.735796
vt 0.937112 0.750310
vt 0.875809 0.750310
vt 0.875809 0.735796
vt 0.875809 0.750310
vt 0.937112 0.750310
vt 0.937112 0.735796
vt 0.874400 0.675994
vt 0.874400 0.657999
vt 0.874400 0.657999
vt 0.874400 0.675994
vt 0.938521 0.657999
vt 0.938521 0.657999
vt 0.938521 0.675994
vt 0.938521 0.675994
vt 0.938521 0.679086
vt 0.874400 0.679086
vt 0.874400 0.679086
vt 0.938521 0.679086
vt 0.938521 0.675994
vt 0.938521 0.675994
vt 0.874400 0.675994
vt 0.874400 0.675994
vn 0.000000 0.000000 1.000000
vn 0.000000 0.000000 1.000000
vn 0.000000 0.000000 1.000000
vn 0.000000 0.000000 1.000000
vn 0.000000 -1.000000 0.000000
vn 0.000000 -1.000000 0.000000
vn 0.000000 -1.000000 0.000000
vn 0.000000 -1.000000 0.000000
vn 0.000000 0.000000 -1.000000
vn 0.000000 0.000000 -1.000000
vn 0.000000 0.000000 -1.000000
vn 0.000000 0.000000 -1.000000
vn 0.000000 1.000000 0.000000
vn 0.000000 1.000000 0.000000
vn 0.000000 1.000000 0.000000
vn 0.000000 1.000000 0.000000
vn 1.000000 0.000000 0.000000
vn 1.000000 0.000000 0.000000
vn 1.000000 0.000000 0.000000
vn 1.000000 0.000000 0.000000
vn -1.000000 0.000000 0.000000
vn -1.000000 0.000000 0.000000
vn -1.000000 0.000000 0.000000
vn -1.000000 0.000000 0.000000
vn 0.000000 0.000000 0.000000
vn 0.000000 0.000000 0.000000
vn 0.000000 0.000000 0.000000
vn 0.000000 0.000000 0.000000
vn 0.000000 1.000000 0.000000
vn 0.000000 1.000000 0.000000
vn 0.000000 1.000000 0.000000
vn 0.000000 1.000000 0.000000
vn 0.000000 0.000000 0.000000
vn 0.000000 0.000000 0.000000
vn 0.000000 0.000000 0.000000
vn 0.000000 0.000000 0.000000
vn 0.000000 1.000000 0.000000
vn 0.000000 1.000000 0.000000
vn 0.000000 1.000000 0.000000
vn 0.000000 1.000000 0.000000
vn 0.000000 0.000000 -1.000000
vn 0.000000 0.000000 -1.000000
vn 0.000000 0.000000 -1.000000
vn 0.000000 0.000000 -1.000000
vn 0.000000 0.000000 1.000000
vn 0.000000 0.000000 1.000000
vn 0.000000 0.000000 1.000000
vn 0.000000 0.000000 1.000000
vn 1.000000 0.000000 0.000000
vn 1.000000 0.000000 0.000000
vn 1.000000 0.000000 0.000000
vn 1.000000 0.000000 0.000000
vn 1.000000 0.000000 0.000000
vn 1.000000 0.000000 0.000000
vn 1.000000 0.000000 0.000000
vn 1.000000 0.000000 0.000000
vn -1.000000 0.000001 0.000000
vn -1.000000 0.000001 0.000000
vn -1.000000 0.000001 0.000000
vn -1.000000 0.000001 0.000000
vn -1.000000 -0.000001 0.000000
vn -1.000000 -0.000001 0.000000
vn -1.000000 -0.000001 0.000000
vn -1.000000 -0.000001 0.000000
vn 0.000000 0.000000 -1.000000
vn 0.000000 0.000000 -1.000000
vn 0.000000 0.000000 -1.000000
vn 0.000000 0.000000 -1.000000
vn 0.000000 -1.000000 0.000000
vn 0.000000 -1.000000 0.000000
vn 0.000000 -1.000000 0.000000
vn 0.000000 -1.000000 0.000000
vn 0.000000 0.000000 1.000000
vn 0.000000 0.000000 1.000000
vn 0.000000 0.000000 1.000000
vn 0.000000 0.000000 1.000000
vn 0.000000 1.000000 0.000000
vn 0.000000 1.000000 0.000000
vn 0.000000 1.000000 0.000000
vn 0.000000 1.000000 0.000000
vn 0.000000 0.000000 -1.000000
vn 0.000000 0.000000 -1.000000
vn 0.000000 -1.000000 0.000000
vn 0.000000 -1.000000 0.000000
vn 0.000000 0.000000 1.000000
vn 0.000000 0.000000 1.000000
vn 0.000000 1.000000 0.000000
vn 0.000000 1.000000 0.000000
vn 0.000000 0.000000 1.000000
vn 0.000000 0.000000 1.000000
vn 0.000000 0.000000 1.000000
vn 0.000000 0.000000 1.000000
vn 0.000000 -1.000000 0.000000
vn 0.000000 -1.000000 0.000000
vn 0.000000 -1.000000 0.000000
vn 0.000000 -1.000000 0.000000
vn 0.000000 0.000000 -1.000000
vn 0.000000 0.000000 -1.000000
vn 0.000000 0.000000 -1.000000
vn 0.000000 0.000000 -1.000000
vn 0.000000 1.000000 0.000000
vn 0.000000 1.000000 0.000000
vn 0.000000 1.000000 0.000000
vn 0.000000 1.000000 0.000000
vn 1.000000 0.000000 0.000000
vn 1.000000 0.000000 0.000000
vn 1.000000 0.000000 0.000000
vn 1.000000 0.000000 0.000000
vn -1.000000 0.000000 0.000000
vn -1.000000 0.000000 0.000000
vn -1.000000 0.000000 0.000000
vn -1.000000 0.000000 0.000000
vn 0.000000 0.000000 -1.000000
vn 0.000000 0.000000 -1.000000
vn 0.000000 1.000000 0.000000
vn 0.000000 1.000000 0.000000
vn 0.000000 1.000000 0.000000
vn 0.000000 1.000000 0.000000
vn 0.000000 0.000000 1.000000
vn 0.000000 0.000000 1.000000
vn 0.000000 1.000000 0.000000
vn 0.000000 1.000000 0.000000
vn 0.000000 1.000000 0.000000
vn 0.000000 1.000000 0.000000
vn 0.000000 0.000000 -1.000000
vn 0.000000 0.000000 -1.000000
vn 1.000000 0.000000 0.000000
vn 1.000000 0.000000 0.000000
vn 1.000000 0.000000 0.000000
vn 1.000000 0.000000 0.000000
vn 0.000000 0.000000 1.000000
vn 0.000000 0.000000 1.000000
vn -1.000000 0.000000 0.000000
vn -1.000000 0.000000 0.000000
vn -1.000000 0.000000 0.000000
vn -1.000000 0.000000 0.000000
s off
g Atrium_Railing_Big16
usemtl blinn29SG
f 1/1/1 3/2/2 4/3/3 2/4/4
f 3/2/5 5/5/6 6/6/7 4/3/8
f 5/5/9 7/7/10 8/8/11 6/6/12
f 13/9/13 16/10/14 15/11/15 14/12/16
f 2/4/17 4/3/18 6/6/19 8/8/20
f 7/7/21 5/5/22 3/2/23 1/1/24
f 7/7/25 9/13/26 10/14/27 8/8/28
f 8/8/29 10/14/30 11/15/31 2/4/32
f 2/4/33 11/15/34 12/16/35 1/1/36
f 1/1/37 12/16/38 9/13/39 7/7/40
f 9/13/41 13/9/42 14/12/43 10/14/44
f 11/15/45 15/11/46 16/10/47 12/16/48
s 1
f 10/14/49 17/17/50 18/18/51 11/15/52
f 11/15/52 18/18/51 19/19/53 15/11/54
f 15/11/54 19/19/53 20/20/55 14/12/56
f 14/12/56 20/20/55 17/17/50 10/14/49
s 2
f 12/16/57 22/21/58 21/22/59 9/13/60
f 9/13/60 21/22/59 23/23/61 13/9/62
f 13/9/62 23/23/61 24/24/63 16/10/64
f 16/10/64 24/24/63 22/21/58 12/16/57
s 3
f 25/25/65 22/21/66 24/24/67 26/26/68
s 4
f 26/26/69 24/24/70 23/23/71 27/27/72
s 5
f 27/27/73 23/23/74 21/22/75 28/28/76
s 6
f 28/28/77 21/22/78 22/21/79 25/25/80
s 3
f 18/18/81 25/25/65 26/26/68 19/19/82
s 4
f 19/19/83 26/26/69 27/27/72 20/20/84
s 5
f 20/20/85 27/27/73 28/28/76 17/17/86
s 6
f 17/17/87 28/28/77 25/25/80 18/18/88
s 7
f 29/29/89 31/30/90 32/31/91 30/32/92
s off
f 31/30/93 33/33/94 34/34/95 32/31/96
s 8
f 33/33/97 35/35/98 36/36/99 34/34/100
s off
f 41/37/101 44/38/102 43/39/103 42/40/104
f 30/32/105 32/31/106 34/34/107 36/36/108
f 35/35/109 33/33/110 31/30/111 29/29/112
s 8
f 35/35/98 37/41/113 38/42/114 36/36/99
s off
f 36/36/115 38/42/116 39/43/117 30/32/118
s 7
f 30/32/92 39/43/119 40/44/120 29/29/89
s off
f 29/29/121 40/44/122 37/41/123 35/35/124
s 8
f 37/41/113 41/37/125 42/40/126 38/42/114
s off
f 38/42/127 42/40/128 43/39/129 39/43/130
s 7
f 39/43/119 43/39/131 44/38/132 40/44/120
s off
f 40/44/133 44/38/134 41/37/135 37/41/136
