# This file uses meters as units for non-parametric coordinates.

mtllib Atrium_Floor.mtl
g default
v 6973.899285 1055.935259 -2530.071470
v 3677.447715 1055.935259 -5745.461797
v -927.120280 1055.935259 -5688.143330
v -4142.510713 1055.935259 -2391.691493
v -4085.192566 1055.935259 2212.876064
v -788.740249 1055.935259 5428.266690
v 3815.827255 1055.935259 5370.948521
v 7031.218668 1055.935259 2074.496705
v 6973.899285 1266.291652 -2530.071470
v 3677.447715 1266.291652 -5745.461797
v -927.120280 1266.291652 -5688.143330
v -4142.510713 1266.291652 -2391.691493
v -4085.192566 1266.291652 2212.876064
v -788.740249 1266.291652 5428.266690
v 3815.827255 1266.291652 5370.948521
v 7031.218668 1266.291652 2074.496705
v 1444.353551 1055.935259 -158.597564
v 1444.353551 1266.291652 -158.597564
vt 0.327396 0.119318
vt 0.254290 0.042587
vt 0.254290 0.042587
vt 0.327396 0.119318
vt 0.152174 0.043955
vt 0.152174 0.043955
vt 0.080866 0.122620
vt 0.080866 0.122620
vt 0.082137 0.232503
vt 0.082137 0.232503
vt 0.155243 0.309234
vt 0.155243 0.309234
vt 0.257359 0.307866
vt 0.257359 0.307866
vt 0.328667 0.229200
vt 0.328667 0.229200
vt 0.204766 0.175910
vt 0.204766 0.175910
vn 0.698250 0.000000 -0.715854
vn 0.698250 0.000000 -0.715854
vn 0.698250 0.000000 -0.715854
vn 0.698250 0.000000 -0.715854
vn -0.012447 0.000000 -0.999923
vn -0.012447 0.000000 -0.999923
vn -0.012447 0.000000 -0.999923
vn -0.012447 0.000000 -0.999923
vn -0.715854 0.000000 -0.698250
vn -0.715854 0.000000 -0.698250
vn -0.715854 0.000000 -0.698250
vn -0.715854 0.000000 -0.698250
vn -0.999922 0.000000 0.012447
vn -0.999922 0.000000 0.012447
vn -0.999922 0.000000 0.012447
vn -0.999922 0.000000 0.012447
vn -0.698250 0.000000 0.715854
vn -0.698250 0.000000 0.715854
vn -0.698250 0.000000 0.715854
vn -0.698250 0.000000 0.715854
vn 0.012447 0.000000 0.999922
vn 0.012447 0.000000 0.999922
vn 0.012447 0.000000 0.999922
vn 0.012447 0.000000 0.999922
vn 0.715854 0.000000 0.698251
vn 0.715854 0.000000 0.698251
vn 0.715854 0.000000 0.698251
vn 0.715854 0.000000 0.698251
vn 0.999923 0.000000 -0.012447
vn 0.999923 0.000000 -0.012447
vn 0.999923 0.000000 -0.012447
vn 0.999923 0.000000 -0.012447
vn -0.000000 -1.000000 0.000000
vn 0.000000 -1.000000 -0.000000
vn 0.000000 -1.000000 -0.000000
vn 0.000000 -1.000000 -0.000000
vn 0.000000 -1.000000 -0.000000
vn -0.000000 -1.000000 0.000000
vn -0.000000 -1.000000 0.000000
vn 0.000000 -1.000000 0.000000
vn 0.000000 -1.000000 0.000000
vn 0.000000 1.000000 -0.000000
vn 0.000000 1.000000 -0.000000
vn 0.000000 1.000000 -0.000000
vn -0.000000 1.000000 0.000000
vn 0.000000 1.000000 0.000000
vn 0.000000 1.000000 0.000000
vn 0.000000 1.000000 -0.000000
vn 0.000000 1.000000 -0.000000
vn 0.000000 1.000000 0.000000
s off
g Atrium_Floor
usemtl blinn29SG
f 1/1/1 2/2/2 10/3/3 9/4/4
f 2/2/5 3/5/6 11/6/7 10/3/8
f 3/5/9 4/7/10 12/8/11 11/6/12
f 4/7/13 5/9/14 13/10/15 12/8/16
f 5/9/17 6/11/18 14/12/19 13/10/20
f 6/11/21 7/13/22 15/14/23 14/12/24
f 7/13/25 8/15/26 16/16/27 15/14/28
f 8/15/29 1/1/30 9/4/31 16/16/32
s 1
f 2/2/33 1/1/34 17/17/35
f 3/5/36 2/2/33 17/17/35
f 4/7/37 3/5/36 17/17/35
f 5/9/38 4/7/37 17/17/35
f 6/11/39 5/9/38 17/17/35
f 7/13/40 6/11/39 17/17/35
f 8/15/41 7/13/40 17/17/35
f 1/1/34 8/15/41 17/17/35
s 2
f 9/4/42 10/3/43 18/18/44
f 10/3/43 11/6/45 18/18/44
f 11/6/45 12/8/46 18/18/44
f 12/8/46 13/10/47 18/18/44
f 13/10/47 14/12/48 18/18/44
f 14/12/48 15/14/49 18/18/44
f 15/14/49 16/16/50 18/18/44
f 16/16/50 9/4/42 18/18/44
