# This file uses meters as units for non-parametric coordinates.

mtllib Atrium_Roof.mtl
g default
v 2073.373205 4619.636783 -2766.338215
v 1162.576398 4619.636783 -3349.111217
v 116.270120 4619.636783 -3621.909332
v -963.125393 4619.636783 -3558.029376
v -1969.951306 4619.636783 -3163.724261
v -2805.652971 4619.636783 -2477.591795
v -3388.425550 4619.636783 -1566.794927
v -3661.223387 4619.636783 -520.488967
v -3597.343369 4619.636783 558.906124
v -3203.038654 4619.636783 1565.731884
v -2516.906356 4619.636783 2401.433261
v -1606.109752 4619.636783 2984.205917
v -559.804205 4619.636783 3257.003842
v 519.590905 4619.636783 3193.124122
v 1526.416577 4619.636783 2798.819459
v 2362.117677 4619.636783 2112.687014
v 2944.890353 4619.636783 1201.890707
v 3217.688393 4619.636783 155.585093
v 3153.808477 4619.636783 -923.809825
v 2759.503862 4619.636783 -1930.635413
v 1988.250074 5153.539551 -2670.505911
v 1111.233105 5153.539551 -3231.664594
v 103.732904 5153.539551 -3494.344991
v -935.629463 5153.539551 -3432.834261
v -1905.113856 5153.539551 -3053.153482
v -2709.820532 5153.539551 -2392.468434
v -3270.978927 5153.539551 -1515.451634
v -3533.659276 5153.539551 -507.951616
v -3472.148485 5153.539551 531.410329
v -3092.467875 5153.539551 1500.894434
v -2431.783226 5153.539551 2305.600957
v -1554.766690 5153.539551 2866.759429
v -547.266854 5153.539551 3129.439731
v 492.095111 5153.539551 3067.929237
v 1461.578995 5153.539551 2688.248447
v 2266.285373 5153.539551 2027.563883
v 2827.443730 5153.539551 1150.547415
v 3090.124282 5153.539551 143.047742
v 3028.613592 5153.539551 -896.314030
v 2648.933083 5153.539551 -1865.797962
v 1848.708932 5660.817434 -2513.409437
v 1027.067157 5660.817434 -3039.136465
v 83.180712 5660.817434 -3285.231159
v -890.555966 5660.817434 -3227.604116
v -1798.826923 5660.817434 -2871.896679
v -2552.724193 5660.817434 -2252.927522
v -3078.450798 5660.817434 -1431.285686
v -3324.545512 5660.817434 -487.399538
v -3266.918604 5660.817434 486.336909
v -2911.211072 5660.817434 1394.607500
v -2292.242280 5660.817434 2148.504676
v -1470.600742 5660.817434 2674.231301
v -526.714661 5660.817434 2920.325900
v 447.021555 5660.817434 2862.699127
v 1355.292067 5660.817434 2506.991641
v 2109.189092 5660.817434 1888.022937
v 2634.915717 5660.817434 1066.381400
v 2881.010518 5660.817434 122.495664
v 2823.383711 5660.817434 -851.240610
v 2467.676280 5660.817434 -1759.511029
v 1658.185704 6128.979509 -2298.917016
v 912.150722 6128.979509 -2776.267290
v 55.119738 6128.979509 -2999.716585
v -829.014731 6128.979509 -2947.392358
v -1653.707415 6128.979509 -2624.416606
v -2338.231907 6128.979509 -2062.404525
v -2815.581623 6128.979509 -1316.369251
v -3039.030938 6128.979509 -459.338564
v -2986.706846 6128.979509 424.795674
v -2663.731229 6128.979509 1249.488128
v -2101.719283 6128.979509 1934.012390
v -1355.684240 6128.979509 2411.362240
v -498.653803 6128.979509 2634.811393
v 385.480320 6128.979509 2582.487368
v 1210.172701 6128.979509 2259.511794
v 1894.696863 6128.979509 1697.499907
v 2372.046676 6128.979509 951.465195
v 2595.496011 6128.979509 94.434806
v 2543.171987 6128.979509 -789.699317
v 2220.196437 6128.979509 -1614.391656
v 1421.371845 6546.498215 -2032.310224
v 769.313442 6546.498215 -2449.529572
v 20.240821 6546.498215 -2644.831412
v -752.520933 6546.498215 -2599.098395
v -1473.328717 6546.498215 -2316.807147
v -2071.625115 6546.498215 -1825.590666
v -2488.844088 6546.498215 -1173.532018
v -2684.145833 6546.498215 -424.459763
v -2638.412883 6546.498215 348.301876
v -2356.121770 6546.498215 1069.109430
v -1864.905424 6546.498215 1667.405598
v -1212.847007 6546.498215 2084.624706
v -463.774866 6546.498215 2279.926518
v 308.986658 6546.498215 2234.193636
v 1029.794148 6546.498215 1951.902560
v 1628.090071 6546.498215 1460.686047
v 2045.309257 6546.498215 808.627894
v 2240.611136 6546.498215 59.555869
v 2194.878254 6546.498215 -713.205655
v 1912.587209 6546.498215 -1434.013094
v 1144.098616 6903.093032 -1720.153855
v 602.072452 6903.093032 -2066.969075
v -20.597086 6903.093032 -2229.314555
v -662.958319 6903.093032 -2191.298713
v -1262.132579 6903.093032 -1956.643055
v -1759.468678 6903.093032 -1548.317322
v -2106.283658 6903.093032 -1006.291144
v -2268.628976 6903.093032 -383.621856
v -2230.613235 6903.093032 258.739204
v -1995.957793 6903.093032 857.913360
v -1587.632161 6903.093032 1355.249286
v -1045.606132 6903.093032 1702.064276
v -422.936960 6903.093032 1864.409661
v 219.424053 6903.093032 1826.394103
v 818.598088 6903.093032 1591.738577
v 1315.933952 6903.093032 1183.412981
v 1662.748827 6903.093032 641.387020
v 1825.094280 6903.093032 18.717963
v 1787.078755 6903.093032 -623.642993
v 1552.423232 6903.093032 -1222.817023
v 833.193182 7189.983089 -1370.134164
v 414.545787 7189.983089 -1638.005489
v -66.388395 7189.983089 -1763.397005
v -562.532056 7189.983089 -1734.034524
v -1025.319193 7189.983089 -1552.792497
v -1409.448987 7189.983089 -1237.411887
v -1677.320197 7189.983089 -818.764560
v -1802.711574 7189.983089 -337.830536
v -1773.349195 7189.983089 158.312951
v -1592.107235 7189.983089 621.099974
v -1276.726808 7189.983089 1005.229720
v -858.079514 7189.983089 1273.100872
v -377.145630 7189.983089 1398.492408
v 118.997800 7189.983089 1369.130063
v 581.784714 7189.983089 1187.888012
v 965.914386 7189.983089 872.507628
v 1233.785548 7189.983089 453.860483
v 1359.177027 7189.983089 -27.073367
v 1329.814813 7189.983089 -523.216836
v 1148.572789 7189.983089 -986.003704
v 496.311074 7400.104342 -990.869723
v 211.350981 7400.104342 -1173.201222
v -116.005763 7400.104342 -1258.551342
v -453.715054 7400.104342 -1238.565260
v -768.719616 7400.104342 -1115.199487
v -1030.184677 7400.104342 -900.529935
v -1212.516089 7400.104342 -615.569893
v -1297.866094 7400.104342 -288.213216
v -1277.880079 7400.104342 49.495960
v -1154.514340 7400.104342 364.500464
v -939.844880 7400.104342 625.965501
v -654.884929 7400.104342 808.296889
v -327.528310 7400.104342 893.646928
v 10.180809 7400.104342 873.660947
v 325.185285 7400.104342 750.295224
v 586.650230 7400.104342 535.625740
v 768.981680 7400.104342 250.665830
v 854.331729 7400.104342 -76.690640
v 834.345715 7400.104342 -414.399816
v 710.980009 7400.104342 -729.404262
v 141.747467 7528.283093 -591.699362
v -2.508576 7528.283093 -684.001527
v -168.227234 7528.283093 -727.208516
v -339.186672 7528.283093 -717.090903
v -498.652258 7528.283093 -654.639149
v -631.014381 7528.283093 -545.966406
v -723.316485 7528.283093 -401.710360
v -766.523434 7528.283093 -235.991764
v -756.405875 7528.283093 -65.032353
v -693.954118 7528.283093 94.433174
v -585.281458 7528.283093 226.795287
v -441.025403 7528.283093 319.097406
v -275.306882 7528.283093 362.304360
v -104.347470 7528.283093 352.186801
v 55.118042 7528.283093 289.735052
v 187.480109 7528.283093 181.062380
v 279.782231 7528.283093 36.806362
v 322.989201 7528.283093 -128.912130
v 312.871643 7528.283093 -299.871542
v 250.419902 7528.283093 -459.337039
v -221.767050 7571.362799 -182.451967
vt 0.348019 0.607493
vt 0.377501 0.585140
vt 0.410516 0.616447
vt 0.389385 0.646817
vt 0.320830 0.557312
vt 0.355776 0.545163
vt 0.406641 0.562941
vt 0.431370 0.586330
vt 0.451590 0.636020
vt 0.440877 0.671433
vt 0.318094 0.630093
vt 0.367908 0.677558
vt 0.310478 0.501184
vt 0.347468 0.500429
vt 0.390349 0.533055
vt 0.285385 0.569558
vt 0.435522 0.540820
vt 0.452002 0.556367
vt 0.462116 0.600932
vt 0.496702 0.641942
vt 0.497457 0.678932
vt 0.429951 0.707306
vt 0.287591 0.653064
vt 0.345996 0.708830
vt 0.317977 0.444605
vt 0.353390 0.455317
vt 0.384091 0.499598
vt 0.272984 0.501878
vt 0.424653 0.520942
vt 0.249277 0.581978
vt 0.464224 0.518716
vt 0.472468 0.526475
vt 0.472480 0.566060
vt 0.495870 0.605319
vt 0.541436 0.633634
vt 0.553584 0.668580
vt 0.498151 0.716426
vt 0.418776 0.743819
vt 0.342593 0.393112
vt 0.372962 0.414244
vt 0.388477 0.465844
vt 0.282103 0.433679
vt 0.420459 0.498678
vt 0.234805 0.502533
vt 0.458781 0.508788
vt 0.492841 0.496568
vt 0.482707 0.531307
vt 0.494951 0.568951
vt 0.529328 0.599060
vt 0.581413 0.611909
vt 0.603766 0.641391
vt 0.565831 0.704025
vt 0.498805 0.754605
vt 0.381917 0.351746
vt 0.404269 0.381228
vt 0.403080 0.435097
vt 0.311852 0.371635
vt 0.423349 0.476207
vt 0.245591 0.422503
vt 0.456672 0.497665
vt 0.493938 0.532738
vt 0.517215 0.564756
vt 0.559214 0.582769
vt 0.612720 0.578894
vt 0.643089 0.600025
vt 0.626366 0.671316
vt 0.578251 0.740133
vt 0.432098 0.324557
vt 0.444247 0.359503
vt 0.426469 0.410368
vt 0.359317 0.321821
vt 0.433043 0.455730
vt 0.280580 0.349724
vt 0.458103 0.486434
vt 0.505061 0.530629
vt 0.537093 0.553887
vt 0.582603 0.558040
vt 0.632293 0.537820
vt 0.667705 0.548532
vt 0.673830 0.621502
vt 0.649336 0.701819
vt 0.488226 0.314205
vt 0.488980 0.351195
vt 0.456355 0.394077
vt 0.419852 0.289112
vt 0.448589 0.439250
vt 0.336346 0.291318
vt 0.462935 0.476196
vt 0.514988 0.525186
vt 0.552640 0.537407
vt 0.597205 0.527293
vt 0.638215 0.492708
vt 0.675205 0.491953
vt 0.703579 0.559459
vt 0.705102 0.643414
vt 0.544805 0.321704
vt 0.534092 0.357117
vt 0.489812 0.387818
vt 0.487532 0.276711
vt 0.468468 0.428380
vt 0.407431 0.253004
vt 0.470694 0.467951
vt 0.522747 0.516941
vt 0.562333 0.516930
vt 0.601592 0.493539
vt 0.629907 0.447974
vt 0.664853 0.435826
vt 0.712699 0.491259
vt 0.740091 0.570634
vt 0.596298 0.346320
vt 0.575166 0.376690
vt 0.523566 0.392205
vt 0.555731 0.285831
vt 0.490732 0.424186
vt 0.486877 0.238532
vt 0.480621 0.462508
vt 0.527579 0.506702
vt 0.565224 0.494459
vt 0.595333 0.460082
vt 0.608182 0.407997
vt 0.637663 0.385644
vt 0.700297 0.423579
vt 0.750877 0.490605
vt 0.554312 0.406807
vt 0.617775 0.315579
vt 0.513202 0.427077
vt 0.566907 0.249318
vt 0.491745 0.460399
vt 0.529011 0.495472
vt 0.561029 0.472195
vt 0.579042 0.430196
vt 0.667589 0.363044
vt 0.736405 0.411159
vt 0.533680 0.436770
vt 0.639686 0.284307
vt 0.502975 0.461830
vt 0.526901 0.484349
vt 0.550160 0.452317
vt 0.698092 0.340074
vt 0.513214 0.466662
vt 0.521458 0.474421
vt 0.174039 0.607794
vt 0.212274 0.594675
vt 0.256323 0.676573
vt 0.224013 0.700866
vt 0.155271 0.503835
vt 0.195690 0.503173
vt 0.323523 0.740851
vt 0.300301 0.773939
vt 0.169548 0.399165
vt 0.208192 0.411025
vt 0.215470 0.304029
vt 0.248558 0.327251
vt 0.288544 0.227740
vt 0.312837 0.260050
vt 0.770211 0.689109
vt 0.737123 0.665887
vt 0.777490 0.582113
vt 0.816134 0.593974
vt 0.697138 0.765398
vt 0.672845 0.733087
vt 0.789993 0.489965
vt 0.830411 0.489303
vt 0.773408 0.398463
vt 0.811644 0.385344
vt 0.729360 0.316565
vt 0.761670 0.292272
vt 0.662160 0.252286
vt 0.685382 0.219198
vt 0.407298 0.781217
vt 0.395437 0.819862
vt 0.499446 0.793720
vt 0.500107 0.834138
vt 0.590947 0.777135
vt 0.604066 0.815371
vt 0.578385 0.211920
vt 0.590246 0.173275
vt 0.486237 0.199417
vt 0.485575 0.158999
vt 0.394735 0.216002
vt 0.381616 0.177766
vn -0.645749 -0.233445 0.726988
vn -0.632500 -0.304789 0.712072
vn -0.381500 -0.304789 0.872675
vn -0.389491 -0.233446 0.890954
vn -0.093157 -0.304789 0.947853
vn -0.095108 -0.233446 0.967707
vn 0.204305 -0.304789 0.930249
vn 0.208585 -0.233446 0.949734
vn 0.481769 -0.304789 0.821586
vn 0.491860 -0.233446 0.838795
vn 0.712073 -0.304789 0.632500
vn 0.726988 -0.233446 0.645748
vn 0.872675 -0.304789 0.381500
vn 0.890954 -0.233446 0.389491
vn 0.947853 -0.304789 0.093157
vn 0.967707 -0.233445 0.095108
vn 0.930249 -0.304788 -0.204305
vn 0.949735 -0.233445 -0.208585
vn 0.821586 -0.304789 -0.481769
vn 0.838795 -0.233445 -0.491860
vn 0.632500 -0.304789 -0.712073
vn 0.645748 -0.233445 -0.726988
vn 0.381500 -0.304788 -0.872675
vn 0.389491 -0.233445 -0.890954
vn 0.093157 -0.304789 -0.947853
vn 0.095108 -0.233445 -0.967707
vn -0.204305 -0.304789 -0.930249
vn -0.208585 -0.233445 -0.949735
vn -0.481769 -0.304789 -0.821586
vn -0.491860 -0.233446 -0.838795
vn -0.712073 -0.304789 -0.632500
vn -0.726988 -0.233446 -0.645748
vn -0.872675 -0.304789 -0.381500
vn -0.890954 -0.233445 -0.389491
vn -0.947853 -0.304789 -0.093157
vn -0.967707 -0.233446 -0.095108
vn -0.930249 -0.304789 0.204305
vn -0.949735 -0.233446 0.208585
vn -0.821586 -0.304789 0.481768
vn -0.838796 -0.233445 0.491859
vn -0.593728 -0.447994 0.668422
vn -0.358114 -0.447994 0.819180
vn -0.087446 -0.447994 0.889750
vn 0.191781 -0.447994 0.873225
vn 0.452236 -0.447994 0.771222
vn 0.668423 -0.447993 0.593727
vn 0.819180 -0.447994 0.358114
vn 0.889750 -0.447993 0.087446
vn 0.873225 -0.447993 -0.191781
vn 0.771223 -0.447993 -0.452236
vn 0.593728 -0.447993 -0.668423
vn 0.358114 -0.447993 -0.819180
vn 0.087446 -0.447993 -0.889750
vn -0.191781 -0.447994 -0.873225
vn -0.452236 -0.447993 -0.771222
vn -0.668423 -0.447993 -0.593728
vn -0.819180 -0.447993 -0.358114
vn -0.889750 -0.447993 -0.087446
vn -0.873225 -0.447993 0.191781
vn -0.771223 -0.447994 0.452235
vn -0.540796 -0.580401 0.608831
vn -0.326188 -0.580401 0.746148
vn -0.079650 -0.580401 0.810426
vn 0.174684 -0.580401 0.795375
vn 0.411918 -0.580401 0.702466
vn 0.608831 -0.580401 0.540795
vn 0.746148 -0.580401 0.326187
vn 0.810426 -0.580401 0.079650
vn 0.795375 -0.580401 -0.174684
vn 0.702466 -0.580401 -0.411918
vn 0.540795 -0.580401 -0.608831
vn 0.326188 -0.580401 -0.746148
vn 0.079650 -0.580401 -0.810426
vn -0.174684 -0.580401 -0.795375
vn -0.411918 -0.580401 -0.702466
vn -0.608831 -0.580401 -0.540795
vn -0.746148 -0.580400 -0.326188
vn -0.810426 -0.580401 -0.079650
vn -0.795375 -0.580401 0.174683
vn -0.702466 -0.580401 0.411917
vn -0.475048 -0.698789 0.534812
vn -0.286531 -0.698789 0.655435
vn -0.069967 -0.698789 0.711898
vn 0.153446 -0.698789 0.698676
vn 0.361839 -0.698789 0.617063
vn 0.534812 -0.698789 0.475048
vn 0.655435 -0.698789 0.286531
vn 0.711898 -0.698788 0.069967
vn 0.698676 -0.698789 -0.153446
vn 0.617063 -0.698789 -0.361839
vn 0.475048 -0.698789 -0.534812
vn 0.286531 -0.698789 -0.655435
vn 0.069967 -0.698789 -0.711898
vn -0.153446 -0.698788 -0.698677
vn -0.361839 -0.698789 -0.617063
vn -0.534812 -0.698789 -0.475048
vn -0.655435 -0.698788 -0.286531
vn -0.711898 -0.698788 -0.069967
vn -0.698677 -0.698788 0.153446
vn -0.617064 -0.698788 0.361838
vn -0.398236 -0.800252 0.448336
vn -0.240201 -0.800252 0.549455
vn -0.058653 -0.800252 0.596789
vn 0.128635 -0.800252 0.585705
vn 0.303332 -0.800252 0.517288
vn 0.448336 -0.800252 0.398235
vn 0.549455 -0.800252 0.240201
vn 0.596789 -0.800252 0.058654
vn 0.585705 -0.800252 -0.128635
vn 0.517288 -0.800252 -0.303332
vn 0.398235 -0.800252 -0.448336
vn 0.240201 -0.800252 -0.549455
vn 0.058654 -0.800252 -0.596789
vn -0.128635 -0.800252 -0.585705
vn -0.303332 -0.800252 -0.517288
vn -0.448337 -0.800252 -0.398235
vn -0.549455 -0.800252 -0.240201
vn -0.596789 -0.800252 -0.058654
vn -0.585705 -0.800252 0.128635
vn -0.517288 -0.800252 0.303331
vn -0.312625 -0.882266 0.351955
vn -0.188564 -0.882266 0.431336
vn -0.046044 -0.882266 0.468494
vn 0.100982 -0.882266 0.459793
vn 0.238123 -0.882266 0.406084
vn 0.351956 -0.882266 0.312625
vn 0.431336 -0.882266 0.188563
vn 0.468495 -0.882266 0.046045
vn 0.459793 -0.882266 -0.100982
vn 0.406084 -0.882266 -0.238123
vn 0.312625 -0.882266 -0.351955
vn 0.188564 -0.882266 -0.431336
vn 0.046044 -0.882266 -0.468495
vn -0.100982 -0.882266 -0.459793
vn -0.238123 -0.882266 -0.406084
vn -0.351956 -0.882266 -0.312625
vn -0.431336 -0.882266 -0.188564
vn -0.468495 -0.882266 -0.046045
vn -0.459793 -0.882266 0.100982
vn -0.406084 -0.882266 0.238123
vn -0.221529 -0.942723 0.249398
vn -0.133618 -0.942722 0.305648
vn -0.032627 -0.942723 0.331978
vn 0.071556 -0.942722 0.325813
vn 0.168736 -0.942723 0.287754
vn 0.249398 -0.942722 0.221528
vn 0.305648 -0.942722 0.133618
vn 0.331979 -0.942722 0.032628
vn 0.325813 -0.942722 -0.071557
vn 0.287754 -0.942722 -0.168736
vn 0.221528 -0.942722 -0.249398
vn 0.133617 -0.942722 -0.305648
vn 0.032628 -0.942723 -0.331978
vn -0.071556 -0.942723 -0.325813
vn -0.168736 -0.942722 -0.287754
vn -0.249398 -0.942723 -0.221528
vn -0.305648 -0.942722 -0.133618
vn -0.331979 -0.942722 -0.032628
vn -0.325813 -0.942722 0.071556
vn -0.287754 -0.942722 0.168736
vn -0.133060 -0.979722 0.149799
vn -0.080256 -0.979722 0.183585
vn -0.019598 -0.979722 0.199400
vn 0.042980 -0.979722 0.195697
vn 0.101350 -0.979722 0.172837
vn 0.149799 -0.979722 0.133059
vn 0.183585 -0.979722 0.080256
vn 0.199401 -0.979722 0.019598
vn 0.195697 -0.979722 -0.042980
vn 0.172838 -0.979722 -0.101350
vn 0.133059 -0.979722 -0.149800
vn 0.080257 -0.979722 -0.183585
vn 0.019598 -0.979722 -0.199400
vn -0.042980 -0.979722 -0.195697
vn -0.101350 -0.979722 -0.172837
vn -0.149799 -0.979722 -0.133059
vn -0.183585 -0.979722 -0.080256
vn -0.199401 -0.979722 -0.019598
vn -0.195697 -0.979722 0.042980
vn -0.172838 -0.979722 0.101350
vn -0.000000 -1.000000 -0.000000
s 1
g pSphere2
usemtl blinn31SG
f 1/142/1 21/143/2 22/144/3 2/145/4
f 2/145/4 22/144/3 23/148/5 3/149/6
f 3/149/6 23/148/5 24/170/7 4/171/8
f 4/171/8 24/170/7 25/172/9 5/173/10
f 5/173/10 25/172/9 26/174/11 6/175/12
f 6/175/12 26/174/11 27/161/13 7/160/14
f 7/160/14 27/161/13 28/157/15 8/156/16
f 8/156/16 28/157/15 29/158/17 9/159/18
f 9/159/18 29/158/17 30/162/19 10/163/20
f 10/163/20 30/162/19 31/164/21 11/165/22
f 11/165/22 31/164/21 32/166/23 12/167/24
f 12/167/24 32/166/23 33/168/25 13/169/26
f 13/169/26 33/168/25 34/176/27 14/177/28
f 14/177/28 34/176/27 35/178/29 15/179/30
f 15/179/30 35/178/29 36/180/31 16/181/32
f 16/181/32 36/180/31 37/155/33 17/154/34
f 17/154/34 37/155/33 38/153/35 18/152/36
f 18/152/36 38/153/35 39/151/37 19/150/38
f 19/150/38 39/151/37 40/147/39 20/146/40
f 20/146/40 40/147/39 21/143/2 1/142/1
f 21/143/2 41/30/41 42/23/42 22/144/3
f 22/144/3 42/23/42 43/24/43 23/148/5
f 23/148/5 43/24/43 44/38/44 24/170/7
f 24/170/7 44/38/44 45/53/45 25/172/9
f 25/172/9 45/53/45 46/67/46 26/174/11
f 26/174/11 46/67/46 47/81/47 27/161/13
f 27/161/13 47/81/47 48/95/48 28/157/15
f 28/157/15 48/95/48 49/109/49 29/158/17
f 29/158/17 49/109/49 50/123/50 30/162/19
f 30/162/19 50/123/50 51/133/51 31/164/21
f 31/164/21 51/133/51 52/139/52 32/166/23
f 32/166/23 52/139/52 53/135/53 33/168/25
f 33/168/25 53/135/53 54/127/54 34/176/27
f 34/176/27 54/127/54 55/115/55 35/178/29
f 35/178/29 55/115/55 56/101/56 36/180/31
f 36/180/31 56/101/56 57/87/57 37/155/33
f 37/155/33 57/87/57 58/73/58 38/153/35
f 38/153/35 58/73/58 59/59/59 39/151/37
f 39/151/37 59/59/59 60/44/60 40/147/39
f 40/147/39 60/44/60 41/30/41 21/143/2
f 41/30/41 61/16/61 62/11/62 42/23/42
f 42/23/42 62/11/62 63/12/63 43/24/43
f 43/24/43 63/12/63 64/22/64 44/38/44
f 44/38/44 64/22/64 65/37/65 45/53/45
f 45/53/45 65/37/65 66/52/66 46/67/46
f 46/67/46 66/52/66 67/66/67 47/81/47
f 47/81/47 67/66/67 68/80/68 48/95/48
f 48/95/48 68/80/68 69/94/69 49/109/49
f 49/109/49 69/94/69 70/108/70 50/123/50
f 50/123/50 70/108/70 71/122/71 51/133/51
f 51/133/51 71/122/71 72/132/72 52/139/52
f 52/139/52 72/132/72 73/125/73 53/135/53
f 53/135/53 73/125/73 74/113/74 54/127/54
f 54/127/54 74/113/74 75/99/75 55/115/55
f 55/115/55 75/99/75 76/85/76 56/101/56
f 56/101/56 76/85/76 77/71/77 57/87/57
f 57/87/57 77/71/77 78/57/78 58/73/58
f 58/73/58 78/57/78 79/42/79 59/59/59
f 59/59/59 79/42/79 80/28/80 60/44/60
f 60/44/60 80/28/80 61/16/61 41/30/41
f 61/16/61 81/5/81 82/1/82 62/11/62
f 62/11/62 82/1/82 83/4/83 63/12/63
f 63/12/63 83/4/83 84/10/84 64/22/64
f 64/22/64 84/10/84 85/21/85 65/37/65
f 65/37/65 85/21/85 86/36/86 66/52/66
f 66/52/66 86/36/86 87/51/87 67/66/67
f 67/66/67 87/51/87 88/65/88 68/80/68
f 68/80/68 88/65/88 89/79/89 69/94/69
f 69/94/69 89/79/89 90/93/90 70/108/70
f 70/108/70 90/93/90 91/107/91 71/122/71
f 71/122/71 91/107/91 92/121/92 72/132/72
f 72/132/72 92/121/92 93/110/93 73/125/73
f 73/125/73 93/110/93 94/96/94 74/113/74
f 74/113/74 94/96/94 95/82/95 75/99/75
f 75/99/75 95/82/95 96/68/96 76/85/76
f 76/85/76 96/68/96 97/54/97 77/71/77
f 77/71/77 97/54/97 98/39/98 78/57/78
f 78/57/78 98/39/98 99/25/99 79/42/79
f 79/42/79 99/25/99 100/13/100 80/28/80
f 80/28/80 100/13/100 81/5/81 61/16/61
f 81/5/81 101/6/101 102/2/102 82/1/82
f 82/1/82 102/2/102 103/3/103 83/4/83
f 83/4/83 103/3/103 104/9/104 84/10/84
f 84/10/84 104/9/104 105/20/105 85/21/85
f 85/21/85 105/20/105 106/35/106 86/36/86
f 86/36/86 106/35/106 107/50/107 87/51/87
f 87/51/87 107/50/107 108/64/108 88/65/88
f 88/65/88 108/64/108 109/78/109 89/79/89
f 89/79/89 109/78/109 110/92/110 90/93/90
f 90/93/90 110/92/110 111/106/111 91/107/91
f 91/107/91 111/106/111 112/120/112 92/121/92
f 92/121/92 112/120/112 113/111/113 93/110/93
f 93/110/93 113/111/113 114/97/114 94/96/94
f 94/96/94 114/97/114 115/83/115 95/82/95
f 95/82/95 115/83/115 116/69/116 96/68/96
f 96/68/96 116/69/116 117/55/117 97/54/97
f 97/54/97 117/55/117 118/40/118 98/39/98
f 98/39/98 118/40/118 119/26/119 99/25/99
f 99/25/99 119/26/119 120/14/120 100/13/100
f 100/13/100 120/14/120 101/6/101 81/5/81
f 101/6/101 121/15/121 122/7/122 102/2/102
f 102/2/102 122/7/122 123/8/123 103/3/103
f 103/3/103 123/8/123 124/19/124 104/9/104
f 104/9/104 124/19/124 125/34/125 105/20/105
f 105/20/105 125/34/125 126/49/126 106/35/106
f 106/35/106 126/49/126 127/63/127 107/50/107
f 107/50/107 127/63/127 128/77/128 108/64/108
f 108/64/108 128/77/128 129/91/129 109/78/109
f 109/78/109 129/91/129 130/105/130 110/92/110
f 110/92/110 130/105/130 131/119/131 111/106/111
f 111/106/111 131/119/131 132/131/132 112/120/112
f 112/120/112 132/131/132 133/124/133 113/111/113
f 113/111/113 133/124/133 134/112/134 114/97/114
f 114/97/114 134/112/134 135/98/135 115/83/115
f 115/83/115 135/98/135 136/84/136 116/69/116
f 116/69/116 136/84/136 137/70/137 117/55/117
f 117/55/117 137/70/137 138/56/138 118/40/118
f 118/40/118 138/56/138 139/41/139 119/26/119
f 119/26/119 139/41/139 140/27/140 120/14/120
f 120/14/120 140/27/140 121/15/121 101/6/101
f 121/15/121 141/29/141 142/17/142 122/7/122
f 122/7/122 142/17/142 143/18/143 123/8/123
f 123/8/123 143/18/143 144/33/144 124/19/124
f 124/19/124 144/33/144 145/48/145 125/34/125
f 125/34/125 145/48/145 146/62/146 126/49/126
f 126/49/126 146/62/146 147/76/147 127/63/127
f 127/63/127 147/76/147 148/90/148 128/77/128
f 128/77/128 148/90/148 149/104/149 129/91/129
f 129/91/129 149/104/149 150/118/150 130/105/130
f 130/105/130 150/118/150 151/130/151 131/119/131
f 131/119/131 151/130/151 152/138/152 132/131/132
f 132/131/132 152/138/152 153/134/153 133/124/133
f 133/124/133 153/134/153 154/126/154 134/112/134
f 134/112/134 154/126/154 155/114/155 135/98/135
f 135/98/135 155/114/155 156/100/156 136/84/136
f 136/84/136 156/100/156 157/86/157 137/70/137
f 137/70/137 157/86/157 158/72/158 138/56/138
f 138/56/138 158/72/158 159/58/159 139/41/139
f 139/41/139 159/58/159 160/43/160 140/27/140
f 140/27/140 160/43/160 141/29/141 121/15/121
f 141/29/141 161/45/161 162/31/162 142/17/142
f 142/17/142 162/31/162 163/32/163 143/18/143
f 143/18/143 163/32/163 164/47/164 144/33/144
f 144/33/144 164/47/164 165/61/165 145/48/145
f 145/48/145 165/61/165 166/75/166 146/62/146
f 146/62/146 166/75/166 167/89/167 147/76/147
f 147/76/147 167/89/167 168/103/168 148/90/148
f 148/90/148 168/103/168 169/117/169 149/104/149
f 149/104/149 169/117/169 170/129/170 150/118/150
f 150/118/150 170/129/170 171/137/171 151/130/151
f 151/130/151 171/137/171 172/141/172 152/138/152
f 152/138/152 172/141/172 173/140/173 153/134/153
f 153/134/153 173/140/173 174/136/174 154/126/154
f 154/126/154 174/136/174 175/128/175 155/114/155
f 155/114/155 175/128/175 176/116/176 156/100/156
f 156/100/156 176/116/176 177/102/177 157/86/157
f 157/86/157 177/102/177 178/88/178 158/72/158
f 158/72/158 178/88/178 179/74/179 159/58/159
f 159/58/159 179/74/179 180/60/180 160/43/160
f 160/43/160 180/60/180 161/45/161 141/29/141
f 161/45/161 181/46/181 162/31/162
f 162/31/162 181/46/181 163/32/163
f 163/32/163 181/46/181 164/47/164
f 164/47/164 181/46/181 165/61/165
f 165/61/165 181/46/181 166/75/166
f 166/75/166 181/46/181 167/89/167
f 167/89/167 181/46/181 168/103/168
f 168/103/168 181/46/181 169/117/169
f 169/117/169 181/46/181 170/129/170
f 170/129/170 181/46/181 171/137/171
f 171/137/171 181/46/181 172/141/172
f 172/141/172 181/46/181 173/140/173
f 173/140/173 181/46/181 174/136/174
f 174/136/174 181/46/181 175/128/175
f 175/128/175 181/46/181 176/116/176
f 176/116/176 181/46/181 177/102/177
f 177/102/177 181/46/181 178/88/178
f 178/88/178 181/46/181 179/74/179
f 179/74/179 181/46/181 180/60/180
f 180/60/180 181/46/181 161/45/161
