# This file uses meters as units for non-parametric coordinates.

mtllib GalleryFrame_A.mtl
g default
v -23.433007 82.161357 142.115744
v -23.433007 82.161357 188.229514
v -23.433007 115.631037 188.229514
v -23.433007 115.631037 142.115744
v -21.642156 112.357961 145.784052
v -21.642156 85.434445 145.784052
v -21.642156 112.357961 184.561194
v -21.642156 85.434445 184.561194
v -22.673366 112.357961 145.784052
v -22.673366 85.434445 145.784052
v -22.673366 112.357961 184.561194
v -22.673366 85.434445 184.561194
v -22.338052 82.439117 187.746201
v -22.338052 115.353300 187.746201
v -22.338052 115.353300 142.599046
v -22.338052 82.439117 142.599046
v -22.877926 81.914526 141.775665
v -22.616061 81.963713 141.865226
v -22.877926 81.914526 188.569592
v -22.616061 81.963713 188.480032
v -22.877926 115.877884 188.569570
v -22.616061 115.828688 188.480032
v -22.877926 115.877884 141.775665
v -22.616061 115.828688 141.865226
v -21.781462 84.834835 185.198781
v -21.781462 112.957574 185.198781
v -21.781462 112.957574 145.146477
v -21.781462 84.834835 145.146477
v -22.695967 82.439117 187.746201
v -22.695967 115.353300 187.746201
v -22.139379 84.834835 185.198781
v -22.139379 112.957574 185.198781
v -22.695967 115.353300 142.599046
v -22.139379 112.957574 145.146477
v -22.695967 82.439117 142.599046
v -22.139379 84.834835 145.146477
vt 0.829176 0.746107
vt 0.823932 0.962685
vt 0.718244 0.962685
vt 0.718244 0.865260
vt 0.833930 0.974529
vt 0.833930 0.853417
vt 0.708246 0.853417
vt 0.708246 0.974529
vt 0.823932 0.865260
vt 0.823932 0.962685
vt 0.718244 0.962685
vt 0.718244 0.865260
vt 0.709563 0.973523
vt 0.709563 0.854422
vt 0.716506 0.863091
vt 0.716506 0.964854
vt 0.832613 0.973523
vt 0.825670 0.964854
vt 0.832613 0.854422
vt 0.825670 0.863091
vt 0.834857 0.852524
vt 0.834613 0.852701
vt 0.707563 0.852701
vt 0.707319 0.852524
vt 0.834857 0.975422
vt 0.834613 0.975244
vt 0.707563 0.975244
vt 0.707319 0.975422
vt 0.832613 0.973523
vt 0.832613 0.854422
vt 0.709563 0.973523
vt 0.709563 0.854422
vt 0.716506 0.964854
vt 0.716506 0.863091
vt 0.825670 0.964854
vt 0.825670 0.863091
vt 0.823932 0.865260
vt 0.727333 0.746107
vt 0.727333 0.843531
vt 0.829176 0.843531
vt 0.808320 0.951330
vt 0.808320 0.876702
vt 0.733692 0.951330
vt 0.733692 0.876702
vn 1.000000 0.000000 0.000000
vn 1.000000 0.000000 0.000000
vn 1.000000 0.000000 0.000000
vn 1.000000 0.000000 0.000000
vn -1.000000 0.000000 0.000000
vn -1.000000 0.000000 0.000000
vn -1.000000 0.000000 0.000000
vn -1.000000 0.000000 0.000000
vn 0.000000 0.000000 1.000000
vn 0.000000 0.000000 1.000000
vn 0.000000 0.000000 1.000000
vn 0.000000 0.000000 1.000000
vn 0.000000 -1.000000 0.000000
vn 0.000000 -1.000000 0.000000
vn 0.000000 -1.000000 0.000000
vn 0.000000 -1.000000 0.000000
vn 0.000000 -0.000000 -1.000000
vn 0.000000 -0.000000 -1.000000
vn 0.000000 -0.000000 -1.000000
vn 0.000000 -0.000000 -1.000000
vn 0.000000 1.000000 0.000000
vn 0.000000 1.000000 0.000000
vn 0.000000 1.000000 0.000000
vn 0.000000 1.000000 0.000000
vn 0.986881 0.134793 0.088858
vn 0.986881 -0.134793 0.088858
vn 0.987211 -0.127279 0.095997
vn 0.987211 0.127279 0.095997
vn 0.986881 0.134793 -0.088858
vn 0.987211 0.127279 -0.095997
vn 0.986881 -0.134793 -0.088858
vn 0.987211 -0.127279 -0.095997
vn 0.184615 -0.982811 0.000000
vn 0.184615 -0.982811 0.000000
vn 0.184615 -0.982811 0.000000
vn 0.184615 -0.982811 0.000000
vn 0.323606 -0.000000 -0.946192
vn 0.323606 -0.000000 -0.946192
vn 0.323606 -0.000000 -0.946192
vn 0.323606 -0.000000 -0.946192
vn 0.323570 0.000000 0.946204
vn 0.323570 0.000000 0.946204
vn 0.323570 0.000000 0.946204
vn 0.323570 0.000000 0.946204
vn 0.184644 0.982805 0.000000
vn 0.184644 0.982806 0.000000
vn 0.184644 0.982806 0.000000
vn 0.184644 0.982805 0.000000
vn -0.406317 -0.913732 0.000000
vn -0.406317 -0.913732 0.000000
vn -0.406317 -0.913732 0.000000
vn -0.406317 -0.913732 0.000000
vn -0.522402 0.000000 0.852699
vn -0.522402 0.000000 0.852699
vn -0.522402 0.000000 0.852699
vn -0.522402 0.000000 0.852699
vn -0.406339 0.913723 0.000000
vn -0.406339 0.913723 0.000000
vn -0.406339 0.913723 0.000000
vn -0.406339 0.913723 0.000000
vn -0.522414 0.000000 -0.852692
vn -0.522414 0.000000 -0.852692
vn -0.522414 0.000000 -0.852692
vn -0.522414 0.000000 -0.852692
vn 0.935140 -0.000000 -0.354279
vn 0.935140 -0.000000 -0.354279
vn 0.935140 -0.000000 -0.354279
vn 0.935140 -0.000000 -0.354279
vn 0.863225 0.504820 0.000000
vn 0.863225 0.504820 0.000000
vn 0.863225 0.504820 0.000000
vn 0.863225 0.504820 0.000000
vn 0.935141 0.000000 0.354275
vn 0.935141 0.000000 0.354275
vn 0.935141 0.000000 0.354275
vn 0.935141 0.000000 0.354275
vn 0.863233 -0.504806 0.000000
vn 0.863233 -0.504806 0.000000
vn 0.863233 -0.504806 0.000000
vn 0.863233 -0.504806 0.000000
vn 0.986808 0.136202 0.087518
vn 0.986808 -0.136202 0.087518
vn 0.987156 -0.128720 0.094630
vn 0.987156 0.128720 0.094630
vn 0.986808 0.136203 -0.087518
vn 0.987156 0.128720 -0.094631
vn 0.986808 -0.136203 -0.087519
vn 0.987155 -0.128721 -0.094631
vn 0.000000 -0.000000 -1.000000
vn 0.000000 -0.000000 -1.000000
vn 0.000000 -0.000000 -1.000000
vn 0.000000 -0.000000 -1.000000
vn 0.000000 0.000000 1.000000
vn 0.000000 0.000000 1.000000
vn 0.000000 0.000000 1.000000
vn 0.000000 0.000000 1.000000
vn 0.000000 -1.000000 0.000000
vn 0.000000 -1.000000 0.000000
vn 0.000000 -1.000000 0.000000
vn 0.000000 -1.000000 0.000000
vn 0.000000 1.000000 0.000000
vn 0.000000 1.000000 0.000000
vn 0.000000 1.000000 0.000000
vn 0.000000 1.000000 0.000000
vn 0.000000 0.000000 1.000000
vn 0.000000 0.000000 1.000000
vn 0.000000 0.000000 1.000000
vn 0.000000 0.000000 1.000000
vn 0.000000 -0.000000 -1.000000
vn 0.000000 -0.000000 -1.000000
vn 0.000000 -0.000000 -1.000000
vn 0.000000 -0.000000 -1.000000
vn 0.000000 1.000000 0.000000
vn 0.000000 1.000000 0.000000
vn 0.000000 1.000000 0.000000
vn 0.000000 1.000000 0.000000
vn 0.000000 -1.000000 0.000000
vn 0.000000 -1.000000 0.000000
vn 0.000000 -1.000000 0.000000
vn 0.000000 -1.000000 0.000000
s off
g Frame_A2
usemtl blinn9SG
f 10/1/1 9/40/2 11/39/3 12/38/4
f 4/41/5 1/42/6 2/44/7 3/43/8
f 6/9/9 5/10/10 9/2/11 10/37/12
f 5/10/13 7/11/14 11/3/15 9/2/16
f 7/11/17 8/12/18 12/4/19 11/3/20
f 8/12/21 6/9/22 10/37/23 12/4/24
s 1
f 30/13/25 29/14/26 31/15/27 32/16/28
f 33/17/29 30/13/25 32/16/28 34/18/30
f 35/19/31 33/17/29 34/18/30 36/20/32
f 29/14/26 35/19/31 36/20/32 31/15/27
s off
f 17/21/33 18/22/34 20/23/35 19/24/36
f 18/22/37 17/21/38 23/25/39 24/26/40
f 19/24/41 20/23/42 22/27/43 21/28/44
f 21/28/45 22/27/46 24/26/47 23/25/48
f 1/6/49 17/21/50 19/24/51 2/7/52
f 2/7/53 19/24/54 21/28/55 3/8/56
f 3/8/57 21/28/58 23/25/59 4/5/60
f 4/5/61 23/25/62 17/21/63 1/6/64
f 18/22/65 24/26/66 15/29/67 16/30/68
f 24/26/69 22/27/70 14/31/71 15/29/72
f 22/27/73 20/23/74 13/32/75 14/31/76
f 20/23/77 18/22/78 16/30/79 13/32/80
s 2
f 26/33/81 25/34/82 8/12/83 7/11/84
f 27/35/85 26/33/81 7/11/84 5/10/86
f 28/36/87 27/35/85 5/10/86 6/9/88
f 25/34/82 28/36/87 6/9/88 8/12/83
s off
f 14/31/89 13/32/90 29/14/91 30/13/92
f 25/34/93 26/33/94 32/16/95 31/15/96
f 15/29/97 14/31/98 30/13/99 33/17/100
f 26/33/101 27/35/102 34/18/103 32/16/104
f 16/30/105 15/29/106 33/17/107 35/19/108
f 27/35/109 28/36/110 36/20/111 34/18/112
f 13/32/113 16/30/114 35/19/115 29/14/116
f 28/36/117 25/34/118 31/15/119 36/20/120
