# This file uses meters as units for non-parametric coordinates.

mtllib GalleryFrame_C.mtl
g default
v -53.831331 40.059331 149.799472
v -53.831331 40.059331 195.913243
v -53.831331 73.529011 195.913243
v -53.831331 73.529011 149.799472
v -52.040480 70.255935 153.467781
v -52.040480 43.332419 153.467781
v -52.040480 70.255935 192.244923
v -52.040480 43.332419 192.244923
v -53.071691 70.255935 153.467781
v -53.071691 43.332419 153.467781
v -53.071691 70.255935 192.244923
v -53.071691 43.332419 192.244923
v -52.736376 40.337092 195.429930
v -52.736376 73.251275 195.429930
v -52.736376 73.251275 150.282774
v -52.736376 40.337092 150.282774
v -53.276251 39.812500 149.459394
v -53.014385 39.861688 149.548954
v -53.276251 39.812500 196.253321
v -53.014385 39.861688 196.163761
v -53.276251 73.775858 196.253299
v -53.014385 73.726663 196.163761
v -53.276251 73.775858 149.459394
v -53.014385 73.726663 149.548954
v -52.179786 42.732810 192.882509
v -52.179786 70.855549 192.882509
v -52.179786 70.855549 152.830206
v -52.179786 42.732810 152.830206
v -53.094291 40.337092 195.429930
v -53.094291 73.251275 195.429930
v -52.537703 42.732810 192.882509
v -52.537703 70.855549 192.882509
v -53.094291 73.251275 150.282774
v -52.537703 70.855549 152.830206
v -53.094291 40.337092 150.282774
v -52.537703 42.732810 152.830206
vt 0.943985 0.865260
vt 0.822010 0.962685
vt 0.720166 0.962685
vt 0.720166 0.865260
vt 0.831644 0.974529
vt 0.831644 0.853417
vt 0.710532 0.853417
vt 0.710532 0.974529
vt 0.822010 0.865260
vt 0.822010 0.962685
vt 0.720166 0.962685
vt 0.720166 0.865260
vt 0.711801 0.973523
vt 0.711801 0.854422
vt 0.718492 0.863091
vt 0.718492 0.964854
vt 0.830375 0.973523
vt 0.823684 0.964854
vt 0.830375 0.854422
vt 0.823684 0.863091
vt 0.832537 0.852524
vt 0.832302 0.852701
vt 0.709874 0.852701
vt 0.709639 0.852524
vt 0.832537 0.975422
vt 0.832302 0.975244
vt 0.709874 0.975244
vt 0.709639 0.975422
vt 0.830375 0.973523
vt 0.830375 0.854422
vt 0.711801 0.973523
vt 0.711801 0.854422
vt 0.718492 0.964854
vt 0.718492 0.863091
vt 0.823684 0.964854
vt 0.823684 0.863091
vt 0.822010 0.865260
vt 0.842142 0.865260
vt 0.842142 0.962685
vt 0.943985 0.962685
vt 0.808320 0.951330
vt 0.808320 0.876702
vt 0.733692 0.951330
vt 0.733692 0.876702
vn 1.000000 0.000000 0.000000
vn 1.000000 0.000000 0.000000
vn 1.000000 0.000000 0.000000
vn 1.000000 0.000000 0.000000
vn -1.000000 0.000000 0.000000
vn -1.000000 0.000000 0.000000
vn -1.000000 0.000000 0.000000
vn -1.000000 0.000000 0.000000
vn 0.000000 0.000000 1.000000
vn 0.000000 0.000000 1.000000
vn 0.000000 0.000000 1.000000
vn 0.000000 0.000000 1.000000
vn 0.000000 -1.000000 0.000000
vn 0.000000 -1.000000 0.000000
vn 0.000000 -1.000000 0.000000
vn 0.000000 -1.000000 0.000000
vn 0.000000 -0.000000 -1.000000
vn 0.000000 -0.000000 -1.000000
vn 0.000000 -0.000000 -1.000000
vn 0.000000 -0.000000 -1.000000
vn 0.000000 1.000000 0.000000
vn 0.000000 1.000000 0.000000
vn 0.000000 1.000000 0.000000
vn 0.000000 1.000000 0.000000
vn 0.986881 0.134793 0.088858
vn 0.986881 -0.134793 0.088858
vn 0.987211 -0.127279 0.095997
vn 0.987211 0.127279 0.095997
vn 0.986881 0.134793 -0.088858
vn 0.987211 0.127279 -0.095997
vn 0.986881 -0.134793 -0.088858
vn 0.987211 -0.127279 -0.095997
vn 0.184615 -0.982811 0.000000
vn 0.184615 -0.982811 0.000000
vn 0.184615 -0.982811 0.000000
vn 0.184615 -0.982811 0.000000
vn 0.323606 -0.000000 -0.946192
vn 0.323606 -0.000000 -0.946192
vn 0.323606 -0.000000 -0.946192
vn 0.323606 -0.000000 -0.946192
vn 0.323570 0.000000 0.946204
vn 0.323570 0.000000 0.946204
vn 0.323570 0.000000 0.946204
vn 0.323570 0.000000 0.946204
vn 0.184644 0.982805 0.000000
vn 0.184644 0.982806 0.000000
vn 0.184644 0.982806 0.000000
vn 0.184644 0.982805 0.000000
vn -0.406317 -0.913732 0.000000
vn -0.406317 -0.913732 0.000000
vn -0.406317 -0.913732 0.000000
vn -0.406317 -0.913732 0.000000
vn -0.522402 0.000000 0.852699
vn -0.522402 0.000000 0.852699
vn -0.522402 0.000000 0.852699
vn -0.522402 0.000000 0.852699
vn -0.406339 0.913723 0.000000
vn -0.406339 0.913723 0.000000
vn -0.406339 0.913723 0.000000
vn -0.406339 0.913723 0.000000
vn -0.522414 0.000000 -0.852692
vn -0.522414 0.000000 -0.852692
vn -0.522414 0.000000 -0.852692
vn -0.522414 0.000000 -0.852692
vn 0.935140 -0.000000 -0.354279
vn 0.935140 -0.000000 -0.354279
vn 0.935140 -0.000000 -0.354279
vn 0.935140 -0.000000 -0.354279
vn 0.863225 0.504820 0.000000
vn 0.863225 0.504820 0.000000
vn 0.863225 0.504820 0.000000
vn 0.863225 0.504820 0.000000
vn 0.935141 0.000000 0.354275
vn 0.935141 0.000000 0.354275
vn 0.935141 0.000000 0.354275
vn 0.935141 0.000000 0.354275
vn 0.863233 -0.504806 0.000000
vn 0.863233 -0.504806 0.000000
vn 0.863233 -0.504806 0.000000
vn 0.863233 -0.504806 0.000000
vn 0.986808 0.136202 0.087518
vn 0.986808 -0.136202 0.087518
vn 0.987156 -0.128720 0.094630
vn 0.987156 0.128720 0.094630
vn 0.986808 0.136203 -0.087518
vn 0.987156 0.128720 -0.094631
vn 0.986808 -0.136203 -0.087519
vn 0.987155 -0.128721 -0.094631
vn 0.000000 -0.000000 -1.000000
vn 0.000000 -0.000000 -1.000000
vn 0.000000 -0.000000 -1.000000
vn 0.000000 -0.000000 -1.000000
vn 0.000000 0.000000 1.000000
vn 0.000000 0.000000 1.000000
vn 0.000000 0.000000 1.000000
vn 0.000000 0.000000 1.000000
vn 0.000000 -1.000000 0.000000
vn 0.000000 -1.000000 0.000000
vn 0.000000 -1.000000 0.000000
vn 0.000000 -1.000000 0.000000
vn 0.000000 1.000000 0.000000
vn 0.000000 1.000000 0.000000
vn 0.000000 1.000000 0.000000
vn 0.000000 1.000000 0.000000
vn 0.000000 0.000000 1.000000
vn 0.000000 0.000000 1.000000
vn 0.000000 0.000000 1.000000
vn 0.000000 0.000000 1.000000
vn 0.000000 -0.000000 -1.000000
vn 0.000000 -0.000000 -1.000000
vn 0.000000 -0.000000 -1.000000
vn 0.000000 -0.000000 -1.000000
vn 0.000000 1.000000 0.000000
vn 0.000000 1.000000 0.000000
vn 0.000000 1.000000 0.000000
vn 0.000000 1.000000 0.000000
vn 0.000000 -1.000000 0.000000
vn 0.000000 -1.000000 0.000000
vn 0.000000 -1.000000 0.000000
vn 0.000000 -1.000000 0.000000
s off
g Frame_A7
usemtl blinn9SG
f 10/1/1 9/40/2 11/39/3 12/38/4
f 4/41/5 1/42/6 2/44/7 3/43/8
f 6/9/9 5/10/10 9/2/11 10/37/12
f 5/10/13 7/11/14 11/3/15 9/2/16
f 7/11/17 8/12/18 12/4/19 11/3/20
f 8/12/21 6/9/22 10/37/23 12/4/24
s 1
f 30/13/25 29/14/26 31/15/27 32/16/28
f 33/17/29 30/13/25 32/16/28 34/18/30
f 35/19/31 33/17/29 34/18/30 36/20/32
f 29/14/26 35/19/31 36/20/32 31/15/27
s off
f 17/21/33 18/22/34 20/23/35 19/24/36
f 18/22/37 17/21/38 23/25/39 24/26/40
f 19/24/41 20/23/42 22/27/43 21/28/44
f 21/28/45 22/27/46 24/26/47 23/25/48
f 1/6/49 17/21/50 19/24/51 2/7/52
f 2/7/53 19/24/54 21/28/55 3/8/56
f 3/8/57 21/28/58 23/25/59 4/5/60
f 4/5/61 23/25/62 17/21/63 1/6/64
f 18/22/65 24/26/66 15/29/67 16/30/68
f 24/26/69 22/27/70 14/31/71 15/29/72
f 22/27/73 20/23/74 13/32/75 14/31/76
f 20/23/77 18/22/78 16/30/79 13/32/80
s 2
f 26/33/81 25/34/82 8/12/83 7/11/84
f 27/35/85 26/33/81 7/11/84 5/10/86
f 28/36/87 27/35/85 5/10/86 6/9/88
f 25/34/82 28/36/87 6/9/88 8/12/83
s off
f 14/31/89 13/32/90 29/14/91 30/13/92
f 25/34/93 26/33/94 32/16/95 31/15/96
f 15/29/97 14/31/98 30/13/99 33/17/100
f 26/33/101 27/35/102 34/18/103 32/16/104
f 16/30/105 15/29/106 33/17/107 35/19/108
f 27/35/109 28/36/110 36/20/111 34/18/112
f 13/32/113 16/30/114 35/19/115 29/14/116
f 28/36/117 25/34/118 31/15/119 36/20/120
g default
v -54.308037 33.760740 501.196140
v -53.354244 79.864649 501.196140
v -53.354244 79.864649 467.726444
v -54.308037 33.760740 467.726444
v -52.441694 37.391229 470.999532
v -52.441694 37.391229 497.923036
v -51.639650 76.160078 470.999532
v -51.639650 76.160078 497.923036
v -53.472684 37.412560 470.999532
v -53.472684 37.412560 497.923036
v -52.670640 76.181402 470.999532
v -52.670640 76.181402 497.923036
v -53.760109 33.409265 501.442955
v -52.792251 80.193162 501.442955
v -52.792252 80.193157 467.479597
v -53.760109 33.409265 467.479597
v -51.765739 76.800398 498.522638
v -51.765739 76.800398 470.399898
v -52.594158 36.756663 470.399898
v -52.594158 36.756663 498.522638
v -52.069281 78.100306 499.732949
v -52.069281 78.100306 469.189587
v -52.950934 35.483210 469.189587
v -52.950934 35.483210 499.732949
vt 0.852365 0.751288
vt 0.820761 0.861995
vt 0.820761 0.967772
vt 0.719574 0.967772
vt 0.833062 0.852032
vt 0.707273 0.852032
vt 0.707273 0.977821
vt 0.833062 0.977821
vt 0.719574 0.861937
vt 0.820761 0.861937
vt 0.820761 0.967714
vt 0.719574 0.967714
vt 0.712772 0.973007
vt 0.706345 0.978717
vt 0.706345 0.851073
vt 0.712772 0.856731
vt 0.833990 0.851073
vt 0.827563 0.856731
vt 0.833990 0.978717
vt 0.827563 0.973007
vt 0.823014 0.969461
vt 0.717320 0.969461
vt 0.823014 0.860206
vt 0.717320 0.860206
vt 0.806312 0.880020
vt 0.738017 0.880020
vt 0.806312 0.948314
vt 0.738017 0.948314
vt 0.719574 0.861995
vt 0.852365 0.843585
vt 0.940657 0.843585
vt 0.940657 0.751288
vn 0.999786 -0.020683 0.000000
vn 0.999786 -0.020683 0.000000
vn 0.999786 -0.020683 0.000000
vn 0.999786 -0.020683 0.000000
vn -0.999786 0.020683 0.000000
vn -0.999786 0.020683 0.000000
vn -0.999786 0.020683 0.000000
vn -0.999786 0.020683 0.000000
vn 0.020686 0.999786 0.000000
vn 0.020686 0.999786 0.000000
vn 0.020686 0.999786 0.000000
vn 0.020686 0.999786 0.000000
vn -0.000001 0.000000 1.000000
vn -0.000001 0.000000 1.000000
vn -0.000001 0.000000 1.000000
vn -0.000001 0.000000 1.000000
vn -0.020678 -0.999786 0.000000
vn -0.020678 -0.999786 0.000000
vn -0.020678 -0.999786 0.000000
vn -0.020678 -0.999786 0.000000
vn -0.000001 0.000000 -1.000000
vn -0.000001 0.000000 -1.000000
vn -0.000001 0.000000 -1.000000
vn -0.000001 0.000000 -1.000000
vn 0.969932 0.128285 0.206819
vn 0.912404 -0.018876 0.408856
vn 0.955737 -0.182808 0.230540
vn 0.963848 -0.168082 0.206752
vn 0.955736 -0.182808 -0.230541
vn 0.963847 -0.168082 -0.206752
vn 0.962259 0.143469 -0.231245
vn 0.945192 0.326514 -0.000000
vn 0.969932 0.128286 -0.206820
vn -0.406209 0.008404 0.913742
vn -0.406209 0.008404 0.913742
vn -0.406209 0.008404 0.913742
vn -0.406209 0.008404 0.913742
vn -0.504652 0.863323 -0.000000
vn -0.504652 0.863323 -0.000000
vn -0.504652 0.863323 -0.000000
vn -0.504652 0.863323 -0.000000
vn -0.406254 0.008405 -0.913722
vn -0.406254 0.008405 -0.913721
vn -0.406254 0.008405 -0.913722
vn -0.406254 0.008405 -0.913722
vn -0.539927 -0.841712 0.000000
vn -0.539927 -0.841712 0.000000
vn -0.539927 -0.841712 0.000000
vn -0.539927 -0.841712 0.000000
vn 0.988407 0.067087 -0.136201
vn 0.988407 0.067090 0.136204
vn 0.988901 0.074194 0.128722
vn 0.988902 0.074191 -0.128718
vn 0.984787 -0.107907 -0.136200
vn 0.984988 -0.115026 -0.128717
vn 0.984786 -0.107911 0.136203
vn 0.984987 -0.115028 0.128721
vn 0.984588 0.090662 -0.149557
vn 0.984588 0.090662 0.149557
vn 0.979839 -0.131871 -0.150087
vn 0.979839 -0.131871 0.150087
s off
g Frame_A7 Frame_B1
usemtl blinn9SG
f 46/45/121 45/76/122 47/75/123 48/74/124
f 40/69/125 37/70/126 38/72/127 39/71/128
f 42/53/129 41/54/130 45/46/131 46/73/132
f 41/54/133 43/55/134 47/47/135 45/46/136
f 43/55/137 44/56/138 48/48/139 47/47/140
f 44/56/141 42/53/142 46/73/143 48/48/144
s 1
f 57/57/145 50/58/146 49/59/147 60/60/148
f 49/59/147 52/61/149 59/62/150 60/60/148
f 51/63/151 50/58/152 57/57/145 58/64/153
f 52/61/149 51/63/151 58/64/153 59/62/150
s off
f 37/50/154 49/59/155 50/58/156 38/51/157
f 38/51/158 50/58/159 51/63/160 39/52/161
f 39/52/162 51/63/163 52/61/164 40/49/165
f 40/49/166 52/61/167 49/59/168 37/50/169
s 3
f 54/65/170 53/66/171 44/56/172 43/55/173
f 55/67/174 54/65/170 43/55/173 41/54/175
f 56/68/176 55/67/174 41/54/175 42/53/177
f 53/66/171 56/68/176 42/53/177 44/56/172
s 1
f 54/65/178 58/64/153 57/57/145 53/66/179
f 55/67/180 59/62/150 58/64/153 54/65/178
f 56/68/181 60/60/148 59/62/150 55/67/180
f 53/66/179 57/57/145 60/60/148 56/68/181
