# This file uses meters as units for non-parametric coordinates.

mtllib GrandHall_SideWalls.mtl
g default
v 1425.253103 506.947677 852.979550
v 1418.728801 506.947677 -868.154710
v 1399.114092 506.587468 -825.569343
v 1399.114092 506.587468 822.670468
v 1459.859515 506.587468 863.328607
v 1425.253425 31.582646 852.979550
v 1459.859802 31.222521 863.328607
v 1418.729016 31.582646 -868.154710
v 1399.114379 31.222521 -825.569343
v 1399.114379 31.222521 822.670468
v 1459.859802 465.656561 863.328607
v 1425.253425 466.016685 852.979550
v 1399.114379 465.656561 822.670468
v 1399.114379 465.656561 -825.569343
v 1418.729016 466.016685 -868.154642
v 1459.859802 335.365346 863.328607
v 1425.253425 335.725471 852.979550
v 1399.114379 335.365346 822.670468
v 1399.114379 335.365346 -825.569343
v 1418.729016 335.725471 -868.154642
vt 0.174283 0.929468
vt 0.188508 0.929325
vt 0.188508 0.913050
vt 0.174283 0.913193
vt 0.540105 0.928067
vt 0.530588 0.927926
vt 0.530588 0.911832
vt 0.540105 0.911974
vt 0.162242 0.927926
vt 0.162242 0.911832
vt 0.155469 0.928067
vt 0.155469 0.911974
vt 0.188508 0.861242
vt 0.174283 0.861385
vt 0.155469 0.860746
vt 0.162242 0.860605
vt 0.530588 0.860605
vt 0.540105 0.860746
vt 0.188508 0.740306
vt 0.174283 0.740449
vt 0.155469 0.741164
vt 0.162242 0.741022
vt 0.530588 0.741022
vt 0.540105 0.741164
vn 0.286514 0.000002 -0.958076
vn 0.286514 0.000002 -0.958076
vn 0.286513 0.000000 -0.958076
vn 0.286513 0.000001 -0.958076
vn 0.908284 0.000006 0.418354
vn 0.999876 0.000007 0.015747
vn 0.999905 0.000002 0.013774
vn 0.908284 0.000002 0.418353
vn 1.000000 0.000007 0.000000
vn 1.000000 0.000002 0.000000
vn 0.757279 0.000005 -0.653091
vn 0.757279 0.000005 -0.653091
vn 0.757280 0.000002 -0.653091
vn 0.757280 0.000001 -0.653091
vn 0.286512 0.000000 -0.958077
vn 0.286512 0.000000 -0.958077
vn 0.757280 0.000000 -0.653090
vn 0.757280 0.000000 -0.653090
vn 1.000000 0.000000 0.000000
vn 0.999912 -0.000000 0.013269
vn 0.908285 -0.000000 0.418353
vn 0.286512 0.000000 -0.958077
vn 0.286512 0.000000 -0.958077
vn 0.757280 0.000000 -0.653090
vn 0.757280 0.000000 -0.653090
vn 1.000000 0.000000 0.000000
vn 0.999973 -0.000000 0.007375
vn 0.908285 -0.000000 0.418353
s 1
g polySurface67 polySurface65 pCube14
usemtl blinn16SG
f 1/1/1 5/2/2 11/3/3 12/4/4
s 2
f 2/5/5 3/6/6 14/7/7 15/8/8
f 3/6/6 4/9/9 13/10/10 14/7/7
s 3
f 4/9/11 1/11/12 12/12/13 13/10/14
s 1
f 12/4/4 11/3/3 16/13/15 17/14/16
s 3
f 13/10/14 12/12/13 17/15/17 18/16/18
s 2
f 14/7/7 13/10/10 18/16/19 19/17/20
f 15/8/8 14/7/7 19/17/20 20/18/21
s 1
f 17/14/16 16/13/15 7/19/22 6/20/23
s 3
f 18/16/18 17/15/17 6/21/24 10/22/25
s 2
f 19/17/20 18/16/19 10/22/26 9/23/27
f 20/18/21 19/17/20 9/23/27 8/24/28
g default
v 2326.402201 506.947677 840.214688
v 2318.572910 506.947677 -868.154710
v 2338.187619 506.587468 -825.569343
v 2338.187619 506.587468 822.670468
v 2290.132427 506.587468 858.222581
v 2318.573268 31.582646 -868.154710
v 2338.187906 31.222521 -825.569343
v 2338.187906 31.222521 822.670468
v 2326.402416 31.582646 840.214688
v 2290.132750 31.222521 858.222581
v 2318.573268 466.016685 -868.154642
v 2338.187906 465.656561 -825.569343
v 2338.187906 465.656561 822.670468
v 2326.402416 466.016685 840.214688
v 2290.132750 465.656561 858.222581
v 2318.573268 335.725471 -868.154642
v 2338.187906 335.365346 -825.569343
v 2338.187906 335.365346 822.670468
v 2326.402416 335.725471 840.214688
v 2290.132750 335.365346 858.222581
vt 0.926488 0.860709
vt 0.916971 0.860567
vt 0.916971 0.740985
vt 0.926488 0.741126
vt 0.548625 0.860567
vt 0.548625 0.740984
vt 0.544704 0.861047
vt 0.544704 0.740788
vt 0.529795 0.929325
vt 0.544704 0.929468
vt 0.544704 0.913193
vt 0.529796 0.913050
vt 0.926488 0.928030
vt 0.916971 0.927888
vt 0.916971 0.911795
vt 0.926488 0.911937
vt 0.548625 0.927888
vt 0.548625 0.911795
vt 0.544704 0.928029
vt 0.544704 0.911936
vt 0.529796 0.861242
vt 0.529796 0.740306
vn 0.908285 0.000000 -0.418353
vn 0.999912 0.000000 -0.013269
vn 0.999973 0.000000 -0.007375
vn 0.908285 0.000000 -0.418353
vn 1.000000 0.000000 0.000000
vn 1.000000 0.000000 0.000000
vn 0.830095 0.000000 0.557622
vn 0.830094 0.000000 0.557623
vn 0.830095 0.000000 0.557622
vn 0.830095 0.000000 0.557622
vn -0.444702 -0.000003 -0.895678
vn -0.444702 -0.000003 -0.895678
vn -0.444703 -0.000001 -0.895678
vn -0.444704 -0.000000 -0.895678
vn 0.908284 0.000007 -0.418354
vn 0.999876 0.000006 -0.015747
vn 0.999905 0.000001 -0.013774
vn 0.908284 0.000003 -0.418353
vn 1.000000 0.000006 0.000000
vn 1.000000 0.000001 0.000000
vn 0.830095 0.000005 0.557623
vn 0.830095 0.000005 0.557623
vn 0.830094 0.000003 0.557623
vn 0.830094 0.000000 0.557624
vn -0.444704 0.000000 -0.895678
vn -0.444704 0.000000 -0.895678
vn -0.444704 0.000000 -0.895678
vn -0.444704 0.000000 -0.895678
s 1
g polySurface65 pCube14 polySurface68
usemtl blinn16SG
f 36/25/29 37/26/30 27/27/31 26/28/32
f 37/26/30 38/29/33 28/30/34 27/27/31
s 2
f 38/29/35 39/31/36 29/32/37 28/30/38
s 3
f 25/33/39 21/34/40 34/35/41 35/36/42
s 1
f 22/37/43 23/38/44 32/39/45 31/40/46
f 23/38/44 24/41/47 33/42/48 32/39/45
s 2
f 24/41/49 21/43/50 34/44/51 33/42/52
s 3
f 35/36/42 34/35/41 39/31/53 40/45/54
s 1
f 31/40/46 32/39/45 37/26/30 36/25/29
f 32/39/45 33/42/48 38/29/33 37/26/30
s 2
f 33/42/52 34/44/51 39/31/36 38/29/35
s 3
f 40/45/54 39/31/53 29/32/55 30/46/56
