# This file uses meters as units for non-parametric coordinates.

mtllib GrandHall_MainWall.mtl
g default
v 2827.445050 506.947677 852.979550
v 3728.594149 506.947677 840.214688
v 2801.306040 506.587468 822.670468
v 3740.379567 506.587468 822.670468
v 3692.324375 506.587468 858.222581
v 2862.051463 506.587468 863.328607
v 2827.445373 31.582646 852.979550
v 2862.051750 31.222521 863.328607
v 2801.306327 31.222521 822.670468
v 3740.379854 31.222521 822.670468
v 3728.594364 31.582646 840.214688
v 3692.324698 31.222521 858.222581
v 3740.379854 465.656561 822.670468
v 3728.594364 466.016685 840.214688
v 3692.324698 465.656561 858.222581
v 2862.051750 465.656561 863.328607
v 2827.445373 466.016685 852.979550
v 2801.306327 465.656561 822.670468
v 3740.379854 335.365346 822.670468
v 3728.594364 335.725471 840.214688
v 3692.324698 335.365346 858.222581
v 2862.051750 335.365346 863.328607
v 2827.445373 335.725471 852.979550
v 2801.306327 335.365346 822.670468
vt 0.155469 0.928067
vt 0.174283 0.929468
vt 0.188508 0.929325
vt 0.155469 0.911974
vt 0.162242 0.927926
vt 0.162242 0.911832
vt 0.548625 0.860567
vt 0.548625 0.740984
vt 0.544704 0.861047
vt 0.544704 0.740788
vt 0.188508 0.913050
vt 0.544704 0.928029
vt 0.544704 0.911936
vt 0.174283 0.913193
vt 0.548625 0.927888
vt 0.548625 0.911795
vt 0.529795 0.929325
vt 0.544704 0.929468
vt 0.155469 0.860746
vt 0.162242 0.860605
vt 0.544704 0.913193
vt 0.529796 0.913050
vt 0.155469 0.741164
vt 0.162242 0.741022
vt 0.529796 0.861242
vt 0.188508 0.861242
vt 0.174283 0.861385
vt 0.529796 0.740306
vt 0.188508 0.740306
vt 0.174283 0.740449
vn 0.286514 0.000002 -0.958076
vn 0.009822 0.000000 -0.999952
vn 0.008036 0.000000 -0.999968
vn 0.286513 0.000001 -0.958076
vn 0.757279 0.000005 -0.653091
vn 0.757279 0.000005 -0.653091
vn 0.757280 0.000002 -0.653091
vn 0.757280 0.000001 -0.653091
vn 0.830095 0.000000 0.557622
vn 0.830094 0.000000 0.557623
vn 0.830095 0.000000 0.557622
vn 0.830095 0.000000 0.557622
vn -0.032614 -0.000000 -0.999468
vn -0.444702 -0.000003 -0.895678
vn -0.444703 -0.000001 -0.895678
vn -0.029788 -0.000000 -0.999556
vn 0.830095 0.000005 0.557623
vn 0.830095 0.000005 0.557623
vn 0.830094 0.000003 0.557623
vn 0.830094 0.000000 0.557624
vn -0.444704 0.000000 -0.895678
vn -0.029063 0.000000 -0.999578
vn 0.007578 0.000000 -0.999971
vn 0.286512 0.000000 -0.958077
vn 0.757280 0.000000 -0.653090
vn 0.757280 0.000000 -0.653090
vn -0.444704 0.000000 -0.895678
vn -0.020558 0.000000 -0.999789
vn 0.002203 0.000000 -0.999998
vn 0.286512 0.000000 -0.958077
vn 0.757280 0.000000 -0.653090
vn 0.757280 0.000000 -0.653090
s 1
g polySurface66 pCube14
usemtl blinn16SG
f 1/2/1 6/3/2 16/11/3 17/14/4
s 2
f 3/5/5 1/1/6 17/4/7 18/6/8
s 3
f 19/7/9 20/9/10 11/10/11 10/8/12
s 1
f 5/17/13 2/18/14 14/21/15 15/22/16
f 6/3/2 5/17/13 15/22/16 16/11/3
s 3
f 4/15/17 2/12/18 14/13/19 13/16/20
s 1
f 15/22/16 14/21/15 20/9/21 21/25/22
f 16/11/3 15/22/16 21/25/22 22/26/23
f 17/14/4 16/11/3 22/26/23 23/27/24
s 2
f 18/6/8 17/4/7 23/19/25 24/20/26
s 3
f 13/16/20 14/13/19 20/9/10 19/7/9
s 1
f 21/25/22 20/9/21 11/10/27 12/28/28
f 22/26/23 21/25/22 12/28/28 8/29/29
f 23/27/24 22/26/23 8/29/29 7/30/30
s 2
f 24/20/26 23/19/25 7/23/31 9/24/32
