# This file uses meters as units for non-parametric coordinates.

mtllib NaturalHistory_Shelflarge.mtl
g default
v 0.181638 22.795870 -77.353232
v 20.027092 22.795870 -77.353232
v 0.181638 54.497064 -77.353232
v 20.027092 54.497064 -77.353232
v 0.181638 54.497064 -85.113940
v 20.027092 54.497064 -85.113940
v 0.181638 22.795870 -85.113940
v 20.027092 22.795870 -85.113940
v 0.181638 37.738482 -77.353232
v 20.027092 37.738482 -77.353232
v 20.027092 39.584108 -77.353232
v 0.181638 39.584108 -77.353232
v 2.004617 53.152483 -77.353232
v 18.204114 53.152483 -77.353232
v 2.004617 40.421979 -77.353232
v 18.204114 40.421979 -77.353232
v 1.691516 24.061749 -77.353232
v 18.517214 24.061749 -77.353232
v 18.517214 36.949652 -77.353232
v 1.691516 36.949652 -77.353232
v 1.691516 24.061749 -81.364705
v 18.517214 24.061749 -81.364705
v 18.517214 36.949652 -81.364705
v 1.691516 36.949652 -81.364705
v 2.004617 53.152483 -81.364705
v 18.204114 53.152483 -81.364705
v 2.004617 40.421979 -81.364705
v 18.204114 40.421979 -81.364705
vt 0.314282 0.355513
vt 0.458873 0.355513
vt 0.458873 0.367616
vt 0.314282 0.367616
vt 0.314282 0.465406
vt 0.458873 0.465406
vt 0.458873 0.465406
vt 0.314282 0.465406
vt 0.458873 0.257528
vt 0.314282 0.257528
vt 0.458873 0.257528
vt 0.314282 0.257528
vt 0.325283 0.265829
vt 0.447872 0.265829
vt 0.447872 0.350341
vt 0.325283 0.350341
vt 0.445591 0.456589
vt 0.327564 0.456589
vt 0.327564 0.373110
vt 0.445591 0.373110
vt 0.327564 0.456589
vt 0.445591 0.456589
vt 0.327564 0.373110
vt 0.445591 0.373110
vt 0.447872 0.265829
vt 0.325283 0.265829
vt 0.447872 0.350341
vt 0.325283 0.350341
vn 0.000000 0.000000 1.000000
vn 0.000000 0.000000 1.000000
vn 0.000000 0.000000 1.000000
vn 0.000000 0.000000 1.000000
vn 0.000000 1.000000 0.000000
vn 0.000000 1.000000 0.000000
vn 0.000000 1.000000 0.000000
vn 0.000000 1.000000 0.000000
vn 0.000000 0.000000 -1.000000
vn 0.000000 0.000000 -1.000000
vn 0.000000 0.000000 -1.000000
vn 0.000000 0.000000 -1.000000
vn 0.000000 -1.000000 0.000000
vn 0.000000 -1.000000 0.000000
vn 0.000000 -1.000000 0.000000
vn 0.000000 -1.000000 0.000000
vn 1.000000 0.000000 0.000000
vn 1.000000 0.000000 0.000000
vn 1.000000 0.000000 0.000000
vn 1.000000 0.000000 0.000000
vn -1.000000 0.000000 0.000000
vn -1.000000 0.000000 0.000000
vn -1.000000 0.000000 0.000000
vn -1.000000 0.000000 0.000000
vn 0.000000 0.000000 1.000000
vn 0.000000 0.000000 1.000000
vn 0.000000 0.000000 1.000000
vn 0.000000 0.000000 1.000000
vn 0.000000 0.000000 0.000000
vn 0.000000 0.000000 0.000000
vn 0.000000 0.000000 1.000000
vn 0.000000 0.000000 1.000000
vn 0.000000 0.000000 1.000000
vn 0.000000 0.000000 1.000000
vn 0.000000 0.000000 0.000000
vn 0.000000 0.000000 0.000000
vn 0.000000 0.000000 1.000000
vn 0.000000 0.000000 1.000000
vn 0.000000 0.000000 1.000000
vn 0.000000 0.000000 1.000000
vn 0.000000 0.000000 1.000000
vn 0.000000 0.000000 1.000000
vn 0.000000 0.000000 1.000000
vn 0.000000 0.000000 1.000000
vn 0.000000 0.000000 1.000000
vn 0.000000 0.000000 1.000000
vn 0.000000 0.000000 1.000000
vn 0.000000 0.000000 1.000000
vn 0.000000 1.000000 0.000000
vn 0.000000 1.000000 0.000000
vn 0.000000 1.000000 0.000000
vn 0.000000 1.000000 0.000000
vn -1.000000 0.000000 0.000000
vn -1.000000 0.000000 0.000000
vn -1.000000 0.000000 0.000000
vn -1.000000 0.000000 0.000000
vn 0.000000 -1.000000 0.000000
vn 0.000000 -1.000000 0.000000
vn 0.000000 -1.000000 0.000000
vn 0.000000 -1.000000 0.000000
vn 1.000000 0.000000 0.000000
vn 1.000000 0.000000 0.000000
vn 1.000000 0.000000 0.000000
vn 1.000000 0.000000 0.000000
vn 0.000000 -1.000000 0.000000
vn 0.000000 -1.000000 0.000000
vn 0.000000 -1.000000 0.000000
vn 0.000000 -1.000000 0.000000
vn 1.000000 0.000000 0.000000
vn 1.000000 0.000000 0.000000
vn 1.000000 0.000000 0.000000
vn 1.000000 0.000000 0.000000
vn 0.000000 1.000000 0.000000
vn 0.000000 1.000000 0.000000
vn 0.000000 1.000000 0.000000
vn 0.000000 1.000000 0.000000
vn -1.000000 0.000000 0.000000
vn -1.000000 0.000000 0.000000
vn -1.000000 0.000000 0.000000
vn -1.000000 0.000000 0.000000
s 1
g ShelfLarge
usemtl blinn13SG
f 9/1/1 10/2/2 11/3/3 12/4/4
s off
f 3/5/5 4/6/6 6/7/7 5/8/8
f 5/8/9 6/7/10 8/9/11 7/10/12
f 7/10/13 8/9/14 2/11/15 1/12/16
s 2
f 2/11/17 8/9/18 6/7/19 4/6/20
s 3
f 7/10/21 1/12/22 3/5/23 5/8/24
s off
f 21/13/25 22/14/26 23/15/27 24/16/28
s 2
f 2/11/17 4/6/20 11/3/29 10/2/30
s off
f 26/17/31 25/18/32 27/19/33 28/20/34
s 3
f 3/5/23 1/12/22 9/1/35 12/4/36
s 1
f 4/6/37 3/5/38 13/21/39 14/22/40
f 3/5/38 12/4/4 15/23/41 13/21/39
f 12/4/4 11/3/3 16/24/42 15/23/41
f 11/3/3 4/6/37 14/22/40 16/24/42
f 1/12/43 2/11/44 18/25/45 17/26/46
f 2/11/44 10/2/2 19/27/47 18/25/45
f 10/2/2 9/1/1 20/28/48 19/27/47
f 9/1/1 1/12/43 17/26/46 20/28/48
s off
f 17/26/49 18/25/50 22/14/51 21/13/52
f 18/25/53 19/27/54 23/15/55 22/14/56
f 19/27/57 20/28/58 24/16/59 23/15/60
f 20/28/61 17/26/62 21/13/63 24/16/64
f 14/22/65 13/21/66 25/18/67 26/17/68
f 13/21/69 15/23/70 27/19/71 25/18/72
f 15/23/73 16/24/74 28/20/75 27/19/76
f 16/24/77 14/22/78 26/17/79 28/20/80
