# This file uses meters as units for non-parametric coordinates.

mtllib NaturalHistory_Shelfsmall.mtl
g default
v -12.069683 26.345277 -81.067426
v -3.826668 26.345277 -81.067426
v -12.069683 39.402744 -81.067426
v -3.826668 39.402744 -81.067426
v -12.069683 39.402744 -84.264004
v -3.826668 39.402744 -84.264004
v -12.069683 26.345277 -84.264004
v -3.826668 26.345277 -84.264004
v -12.069683 32.500020 -81.067426
v -3.826668 32.500020 -81.067426
v -3.826668 33.260216 -81.067426
v -12.069683 33.260216 -81.067426
v -11.249984 38.848923 -81.067426
v -4.577538 38.848923 -81.067426
v -11.249984 33.605327 -81.067426
v -4.577538 33.605327 -81.067426
v -11.378946 26.866681 -81.067426
v -4.448575 26.866681 -81.067426
v -4.448575 32.175107 -81.067426
v -11.378946 32.175107 -81.067426
v -11.378946 26.866681 -82.719719
v -4.448575 26.866681 -82.719719
v -4.448575 32.175107 -82.719719
v -11.378946 32.175107 -82.719719
v -11.249984 38.848923 -82.719719
v -4.577538 38.848923 -82.719719
v -11.249984 33.605327 -82.719719
v -4.577538 33.605327 -82.719719
v -20.312697 26.345277 -81.067426
v -20.312697 39.402744 -81.067426
v -20.312697 39.402744 -84.264004
v -20.312697 26.345277 -84.264004
v -20.312697 32.500020 -81.067426
v -20.312697 33.260216 -81.067426
v -19.561829 38.848923 -81.067426
v -12.889383 38.848923 -81.067426
v -19.561829 33.605327 -81.067426
v -12.889383 33.605327 -81.067426
v -19.690793 26.866681 -81.067426
v -12.760420 26.866681 -81.067426
v -12.760420 32.175107 -81.067426
v -19.690793 32.175107 -81.067426
v -19.690793 26.866681 -82.719719
v -12.760420 26.866681 -82.719719
v -12.760420 32.175107 -82.719719
v -19.690793 32.175107 -82.719719
v -19.561829 38.848923 -82.719719
v -12.889383 38.848923 -82.719719
v -19.561829 33.605327 -82.719719
v -12.889383 33.605327 -82.719719
vt 0.165850 0.347682
vt 0.252681 0.347682
vt 0.252681 0.357217
vt 0.165850 0.357217
vt 0.165850 0.434263
vt 0.252681 0.434263
vt 0.252681 0.434263
vt 0.165850 0.434263
vt 0.252681 0.270482
vt 0.165850 0.270482
vt 0.252681 0.270482
vt 0.165850 0.270482
vt 0.173126 0.277022
vt 0.246130 0.277022
vt 0.246130 0.343606
vt 0.173126 0.343606
vt 0.244771 0.427317
vt 0.174485 0.427317
vt 0.174485 0.361545
vt 0.244771 0.361545
vt 0.174485 0.427317
vt 0.244771 0.427317
vt 0.174485 0.361545
vt 0.244771 0.361545
vt 0.246130 0.277022
vt 0.173126 0.277022
vt 0.246130 0.343606
vt 0.173126 0.343606
vt 0.079020 0.347682
vt 0.079020 0.357217
vt 0.079020 0.434263
vt 0.079020 0.434263
vt 0.079020 0.270482
vt 0.079020 0.270482
vt 0.085571 0.277022
vt 0.158574 0.277022
vt 0.158574 0.343606
vt 0.085571 0.343606
vt 0.157216 0.427317
vt 0.086929 0.427317
vt 0.086929 0.361545
vt 0.157216 0.361545
vt 0.086929 0.427317
vt 0.157216 0.427317
vt 0.086929 0.361545
vt 0.157216 0.361545
vt 0.158574 0.277022
vt 0.085571 0.277022
vt 0.158574 0.343606
vt 0.085571 0.343606
vn 0.000000 0.000000 1.000000
vn 0.000000 0.000000 1.000000
vn -0.000000 0.000000 1.000000
vn 0.000000 0.000000 1.000000
vn 0.000000 1.000000 0.000000
vn 0.000000 1.000000 0.000000
vn 0.000000 1.000000 0.000000
vn 0.000000 1.000000 0.000000
vn 0.000000 0.000000 -1.000000
vn 0.000000 0.000000 -1.000000
vn 0.000000 0.000000 -1.000000
vn 0.000000 0.000000 -1.000000
vn 0.000000 -1.000000 0.000000
vn 0.000000 -1.000000 0.000000
vn 0.000000 -1.000000 0.000000
vn 0.000000 -1.000000 0.000000
vn 1.000000 0.000000 0.000000
vn 1.000000 0.000000 0.000000
vn 1.000000 0.000000 0.000000
vn 1.000000 0.000000 0.000000
vn 0.000000 0.000000 1.000000
vn 0.000000 0.000000 1.000000
vn 0.000000 0.000000 1.000000
vn 0.000000 0.000000 1.000000
vn 0.000000 0.000000 0.000000
vn 0.000000 0.000000 0.000000
vn 0.000000 0.000000 1.000000
vn 0.000000 0.000000 1.000000
vn 0.000000 0.000000 1.000000
vn 0.000000 0.000000 1.000000
vn 0.000000 0.000000 0.000000
vn 0.000000 0.000000 0.000000
vn 0.000000 0.000000 0.000000
vn 0.000000 0.000000 0.000000
vn -0.000000 0.000000 1.000000
vn 0.000001 0.000000 1.000000
vn 0.000001 0.000000 1.000000
vn -0.000000 0.000000 1.000000
vn 0.000001 0.000000 1.000000
vn -0.000000 0.000000 1.000000
vn 0.000001 0.000000 1.000000
vn 0.000000 0.000000 1.000000
vn 0.000000 0.000000 1.000000
vn 0.000001 0.000000 1.000000
vn 0.000000 0.000000 1.000000
vn 0.000001 0.000000 1.000000
vn 0.000000 1.000000 0.000000
vn 0.000000 1.000000 0.000000
vn 0.000000 1.000000 0.000000
vn 0.000000 1.000000 0.000000
vn -1.000000 0.000000 0.000000
vn -1.000000 0.000000 0.000000
vn -1.000000 0.000000 0.000000
vn -1.000000 0.000000 0.000000
vn 0.000000 -1.000000 0.000000
vn 0.000000 -1.000000 0.000000
vn 0.000000 -1.000000 0.000000
vn 0.000000 -1.000000 0.000000
vn 1.000000 0.000000 0.000000
vn 1.000000 0.000000 0.000000
vn 1.000000 0.000000 0.000000
vn 1.000000 0.000000 0.000000
vn 0.000000 -1.000000 0.000000
vn 0.000000 -1.000000 0.000000
vn 0.000000 -1.000000 0.000000
vn 0.000000 -1.000000 0.000000
vn 1.000000 0.000000 0.000000
vn 1.000000 0.000000 0.000000
vn 1.000000 0.000000 0.000000
vn 1.000000 0.000000 0.000000
vn 0.000000 1.000000 0.000000
vn 0.000000 1.000000 0.000000
vn 0.000000 1.000000 0.000000
vn 0.000000 1.000000 0.000000
vn -1.000000 0.000000 0.000000
vn -1.000000 0.000000 0.000000
vn -1.000000 0.000000 0.000000
vn -1.000000 0.000000 0.000000
vn 0.000000 0.000000 1.000000
vn 0.000000 0.000000 1.000000
vn -0.000000 0.000000 1.000000
vn 0.000000 0.000000 1.000000
vn 0.000000 1.000000 0.000000
vn 0.000000 1.000000 0.000000
vn 0.000000 1.000000 0.000000
vn 0.000000 1.000000 0.000000
vn 0.000000 0.000000 -1.000000
vn 0.000000 0.000000 -1.000000
vn 0.000000 0.000000 -1.000000
vn 0.000000 0.000000 -1.000000
vn 0.000000 -1.000000 0.000000
vn 0.000000 -1.000000 0.000000
vn 0.000000 -1.000000 0.000000
vn 0.000000 -1.000000 0.000000
vn -1.000000 0.000000 0.000000
vn -1.000000 0.000000 0.000000
vn -1.000000 0.000000 0.000000
vn -1.000000 0.000000 0.000000
vn 0.000000 0.000000 1.000000
vn 0.000000 0.000000 1.000000
vn 0.000000 0.000000 1.000000
vn 0.000000 0.000000 1.000000
vn 0.000000 0.000000 0.000000
vn 0.000000 0.000000 0.000000
vn 0.000000 0.000000 1.000000
vn 0.000000 0.000000 1.000000
vn 0.000000 0.000000 1.000000
vn 0.000000 0.000000 1.000000
vn 0.000000 0.000000 0.000000
vn 0.000000 0.000000 0.000000
vn -0.000000 0.000000 1.000000
vn 0.000001 0.000000 1.000000
vn 0.000001 0.000000 1.000000
vn -0.000000 0.000000 1.000000
vn 0.000001 0.000000 1.000000
vn -0.000000 0.000000 1.000000
vn 0.000001 0.000000 1.000000
vn 0.000000 0.000000 1.000000
vn 0.000000 0.000000 1.000000
vn 0.000001 0.000000 1.000000
vn 0.000000 0.000000 1.000000
vn 0.000001 0.000000 1.000000
vn 0.000000 1.000000 0.000000
vn 0.000000 1.000000 0.000000
vn 0.000000 1.000000 0.000000
vn 0.000000 1.000000 0.000000
vn -1.000000 0.000000 0.000000
vn -1.000000 0.000000 0.000000
vn -1.000000 0.000000 0.000000
vn -1.000000 0.000000 0.000000
vn 0.000000 -1.000000 0.000000
vn 0.000000 -1.000000 0.000000
vn 0.000000 -1.000000 0.000000
vn 0.000000 -1.000000 0.000000
vn 1.000000 0.000000 0.000000
vn 1.000000 0.000000 0.000000
vn 1.000000 0.000000 0.000000
vn 1.000000 0.000000 0.000000
vn 0.000000 -1.000000 0.000000
vn 0.000000 -1.000000 0.000000
vn 0.000000 -1.000000 0.000000
vn 0.000000 -1.000000 0.000000
vn 1.000000 0.000000 0.000000
vn 1.000000 0.000000 0.000000
vn 1.000000 0.000000 0.000000
vn 1.000000 0.000000 0.000000
vn 0.000000 1.000000 0.000000
vn 0.000000 1.000000 0.000000
vn 0.000000 1.000000 0.000000
vn 0.000000 1.000000 0.000000
vn -1.000000 0.000000 0.000000
vn -1.000000 0.000000 0.000000
vn -1.000000 0.000000 0.000000
vn -1.000000 0.000000 0.000000
s 1
g Shelf_small
usemtl blinn13SG
f 9/1/1 10/2/2 11/3/3 12/4/4
s off
f 3/5/5 4/6/6 6/7/7 5/8/8
f 5/8/9 6/7/10 8/9/11 7/10/12
f 7/10/13 8/9/14 2/11/15 1/12/16
s 2
f 2/11/17 8/9/18 6/7/19 4/6/20
s off
f 21/13/21 22/14/22 23/15/23 24/16/24
s 2
f 2/11/17 4/6/20 11/3/25 10/2/26
s off
f 26/17/27 25/18/28 27/19/29 28/20/30
s 3
f 3/5/31 1/12/32 9/1/33 12/4/34
s 1
f 4/6/35 3/5/36 13/21/37 14/22/38
f 3/5/36 12/4/4 15/23/39 13/21/37
f 12/4/4 11/3/3 16/24/40 15/23/39
f 11/3/3 4/6/35 14/22/38 16/24/40
f 1/12/41 2/11/42 18/25/43 17/26/44
f 2/11/42 10/2/2 19/27/45 18/25/43
f 10/2/2 9/1/1 20/28/46 19/27/45
f 9/1/1 1/12/41 17/26/44 20/28/46
s off
f 17/26/47 18/25/48 22/14/49 21/13/50
f 18/25/51 19/27/52 23/15/53 22/14/54
f 19/27/55 20/28/56 24/16/57 23/15/58
f 20/28/59 17/26/60 21/13/61 24/16/62
f 14/22/63 13/21/64 25/18/65 26/17/66
f 13/21/67 15/23/68 27/19/69 25/18/70
f 15/23/71 16/24/72 28/20/73 27/19/74
f 16/24/75 14/22/76 26/17/77 28/20/78
s 6
f 33/29/79 9/1/80 12/4/81 34/30/82
s off
f 30/31/83 3/5/84 5/8/85 31/32/86
f 31/32/87 5/8/88 7/10/89 32/33/90
f 32/33/91 7/10/92 1/12/93 29/34/94
s 7
f 32/33/95 29/34/96 30/31/97 31/32/98
s off
f 43/35/99 44/36/100 45/37/101 46/38/102
s 3
f 1/12/32 3/5/31 12/4/103 9/1/104
s off
f 48/39/105 47/40/106 49/41/107 50/42/108
s 7
f 30/31/97 29/34/96 33/29/109 34/30/110
s 6
f 3/5/111 30/31/112 35/43/113 36/44/114
f 30/31/112 34/30/82 37/45/115 35/43/113
f 34/30/82 12/4/81 38/46/116 37/45/115
f 12/4/81 3/5/111 36/44/114 38/46/116
f 29/34/117 1/12/118 40/47/119 39/48/120
f 1/12/118 9/1/80 41/49/121 40/47/119
f 9/1/80 33/29/79 42/50/122 41/49/121
f 33/29/79 29/34/117 39/48/120 42/50/122
s off
f 39/48/123 40/47/124 44/36/125 43/35/126
f 40/47/127 41/49/128 45/37/129 44/36/130
f 41/49/131 42/50/132 46/38/133 45/37/134
f 42/50/135 39/48/136 43/35/137 46/38/138
f 36/44/139 35/43/140 47/40/141 48/39/142
f 35/43/143 37/45/144 49/41/145 47/40/146
f 37/45/147 38/46/148 50/42/149 49/41/150
f 38/46/151 36/44/152 48/39/153 50/42/154
