# This file uses meters as units for non-parametric coordinates.

mtllib NaturalHistoryGallery_RightWalls.mtl
g default
v 742.639970 0.271601 90.656841
v 744.360600 83.441984 90.656841
v 744.360600 83.441984 -87.791374
v 742.639970 0.271601 -87.791374
v 742.765343 6.331847 90.656841
v 742.765343 6.331847 -87.791374
v 743.156198 25.224801 90.656841
v 743.156198 25.224801 -87.791374
v 743.910474 61.684641 90.656841
v 743.916438 61.972932 -87.791374
v 742.639970 0.271601 -44.396714
v 742.765343 6.331847 -44.396714
v 743.156198 25.224801 -44.396714
v 743.916438 61.972932 -44.396714
v 744.360600 83.441984 -44.396714
v 742.639970 0.271601 -16.118270
v 742.765343 6.331847 -16.118270
v 743.156198 25.224801 -16.118270
v 743.910474 61.684641 -16.118270
v 744.360600 83.441984 -16.118270
v 743.145471 24.706285 -83.315649
v 742.760375 6.091713 -83.315649
v 743.690598 51.056374 -83.315649
v 743.690598 51.056374 -48.872428
v 743.154701 25.152463 -48.872428
v 742.768387 6.478971 -48.872428
v 742.640398 0.291658 -48.872428
v 742.640398 0.291660 -83.315649
v 768.803267 24.175500 -83.315649
v 768.418102 5.560917 -83.315649
v 769.348394 50.525585 -83.315649
v 746.090051 51.006725 -48.872428
v 745.554176 25.102831 -48.872428
v 745.194762 7.728951 -48.872428
v 768.298139 -0.239146 -83.315649
v 740.978142 0.305980 90.382956
v 741.103536 6.366238 90.382956
v 741.103536 6.366238 -15.616236
v 740.978142 0.305980 -15.616236
v 741.103536 6.366238 -43.085795
v 740.978142 0.305980 -43.085795
v 739.522704 6.513365 -49.033117
v 739.394702 0.326040 -49.033117
v 738.552839 0.305977 -85.239173
v 738.678227 6.366240 -85.239173
v 739.394709 0.326044 -80.961513
v 739.514713 6.126099 -80.961513
v 765.684099 -0.185059 -80.891467
v 765.804076 5.614993 -80.891467
v 742.158328 6.594664 -15.933324
v 742.158328 6.594664 90.555929
v 742.032961 0.534408 90.555929
v 742.032961 0.534408 -15.933324
v 742.032961 0.534408 -43.913771
v 742.033355 0.285467 -49.070822
v 740.577524 6.741790 -49.070822
v 742.158328 6.594664 -43.913771
v 740.329714 6.529392 -86.477499
v 740.669091 6.289269 -82.067677
v 767.076134 5.768597 -82.067677
v 766.956143 -0.031451 -82.067677
v 741.788590 0.489212 -82.067677
v 741.788188 0.469144 -86.477499
v 742.640183 0.281897 -85.493222
v 741.788388 0.479451 -84.213192
v 738.442553 0.316283 -83.006765
v 738.565170 6.242939 -83.006765
v 740.327149 6.406093 -84.213192
v 742.762792 6.208545 -85.493222
v 743.150690 24.958559 -85.493222
v 743.800476 56.367623 -85.493222
v 743.800476 56.367623 -46.694855
v 743.155443 25.187660 -46.694855
v 742.766920 6.407391 -46.694855
v 740.576043 6.670211 -46.187682
v 739.521237 6.441790 -45.318183
v 739.394514 0.316281 -45.318183
v 742.033175 0.544719 -46.187682
v 742.640183 0.281897 -48.294486
v 740.981805 6.208549 -85.493222
v 741.369703 24.958559 -85.493222
v 740.979382 6.091714 -83.315649
v 741.364491 24.706282 -83.315649
v 742.019489 56.367614 -85.493222
v 741.909604 51.056375 -83.315649
v 742.019489 56.367614 -46.694855
v 741.909604 51.056375 -48.872428
v 741.374443 25.187659 -46.694855
v 741.373714 25.152464 -48.872428
v 740.985919 6.407390 -46.694855
v 740.987393 6.478969 -48.872428
vt 0.231114 0.898882
vt 0.231114 0.848704
vt 0.274608 0.894188
vt 0.274608 0.898882
vt 0.274608 0.902368
vt 0.231114 0.902368
vt 0.105283 0.620407
vt 0.105283 0.755233
vt 0.104084 0.754998
vt 0.104084 0.620531
vt 0.105283 0.790940
vt 0.104084 0.790331
vt 0.102032 0.754600
vt 0.102032 0.620752
vt 0.105283 0.793841
vt 0.100989 0.793204
vt 0.102032 0.789286
vt 0.105283 0.796594
vt 0.100989 0.796843
vt 0.098937 0.792106
vt 0.101799 0.793841
vt 0.101799 0.796594
vt 0.098937 0.796795
vt 0.088026 0.755233
vt 0.088026 0.620407
vt 0.089225 0.620531
vt 0.089225 0.754998
vt 0.091277 0.620752
vt 0.091277 0.754600
vt 0.088026 0.790940
vt 0.089225 0.790331
vt 0.091277 0.789286
vt 0.088026 0.795865
vt 0.089225 0.793204
vt 0.094372 0.792106
vt 0.088026 0.796594
vt 0.089213 0.796843
vt 0.094372 0.796795
vt 0.137828 0.632028
vt 0.137491 0.631683
vt 0.137234 0.632024
vt 0.136906 0.631679
vt 0.137180 0.630388
vt 0.136672 0.632020
vt 0.136351 0.631675
vt 0.136604 0.630339
vt 0.136597 0.642288
vt 0.136278 0.641748
vt 0.136073 0.630717
vt 0.135977 0.641238
vt 0.044557 0.631345
vt 0.044903 0.630371
vt 0.045228 0.629714
vt 0.045151 0.631349
vt 0.045488 0.630375
vt 0.045805 0.629674
vt 0.045713 0.631353
vt 0.046042 0.630517
vt 0.046331 0.630059
vt 0.045718 0.630640
vt 0.045156 0.630636
vt 0.045637 0.641622
vt 0.045964 0.641086
vt 0.046272 0.640580
vt 0.283859 0.848704
vt 0.283859 0.897698
vt 0.280375 0.897698
vt 0.280375 0.848704
vt 0.983354 0.701732
vt 0.983657 0.757860
vt 0.855280 0.758553
vt 0.854977 0.702424
vt 0.821280 0.758736
vt 0.820982 0.703352
vt 0.982847 0.607678
vt 0.854470 0.608371
vt 0.769107 0.759018
vt 0.768806 0.703633
vt 0.820470 0.608554
vt 0.982584 0.558941
vt 0.854207 0.559634
vt 0.771491 0.689160
vt 0.818142 0.688908
vt 0.817708 0.608473
vt 0.820207 0.559817
vt 0.768296 0.608835
vt 0.771054 0.608131
vt 0.817446 0.560024
vt 0.768033 0.560099
vt 0.770794 0.559764
vt 0.083406 0.796452
vt 0.066989 0.796452
vt 0.066989 0.662604
vt 0.083406 0.662604
vt 0.066989 0.627918
vt 0.083406 0.627918
vt 0.066874 0.625099
vt 0.083469 0.625099
vt 0.066677 0.620409
vt 0.083440 0.620409
vt 0.319490 0.848706
vt 0.322310 0.848728
vt 0.322310 0.864785
vt 0.319490 0.865125
vt 0.324889 0.848808
vt 0.324889 0.864522
vt 0.065795 0.896254
vt 0.065795 0.845455
vt 0.068542 0.845139
vt 0.068542 0.895571
vt 0.065795 0.981350
vt 0.068542 0.966960
vt 0.114789 0.981350
vt 0.112036 0.966960
vt 0.114789 0.896875
vt 0.112036 0.896781
vt 0.114789 0.845995
vt 0.112036 0.846189
vt 0.140420 0.848807
vt 0.190600 0.848807
vt 0.190600 0.899238
vt 0.140420 0.899238
vt 0.190600 0.970629
vt 0.140420 0.970629
vt 0.136936 0.899139
vt 0.136936 0.848706
vt 0.136936 0.970528
vt 0.201034 0.969579
vt 0.196342 0.969579
vt 0.196342 0.899397
vt 0.201034 0.899397
vt 0.196342 0.852326
vt 0.201034 0.848806
vt 0.204517 0.899298
vt 0.204517 0.969478
vt 0.204517 0.848706
vt 0.209381 0.905233
vt 0.209470 0.853820
vt 0.225183 0.853820
vt 0.225097 0.905233
vt 0.209957 0.851339
vt 0.225672 0.851339
vt 0.209470 0.848706
vt 0.225183 0.848706
vt 0.314053 0.848706
vt 0.314053 0.865125
vt 0.312854 0.865804
vt 0.312854 0.849385
vt 0.310802 0.865125
vt 0.310802 0.848706
vt 0.289066 0.865558
vt 0.289066 0.848795
vt 0.290253 0.848743
vt 0.293360 0.866146
vt 0.295412 0.848706
vt 0.295412 0.865469
vt 0.119552 0.896037
vt 0.119552 0.845240
vt 0.123036 0.845139
vt 0.123036 0.895938
vt 0.119552 0.981134
vt 0.123036 0.981033
vt 0.131726 0.899686
vt 0.131726 0.984162
vt 0.128243 0.984061
vt 0.128243 0.899587
vt 0.131726 0.848806
vt 0.128243 0.848706
vn -0.999786 0.020684 0.000000
vn -0.999786 0.020684 0.000000
vn -0.999786 0.020684 0.000000
vn -0.999786 0.020684 0.000000
vn -0.999786 0.020687 0.000000
vn -0.999786 0.020687 0.000000
vn -0.999786 0.020687 0.000000
vn -0.999786 0.020687 0.000000
vn -0.999786 0.020683 0.000000
vn -0.999786 0.020683 0.000000
vn -0.999786 0.020683 0.000000
vn -0.999786 0.020683 0.000000
vn -0.999786 0.020684 0.000000
vn -0.999786 0.020684 0.000000
vn -0.999786 0.020684 0.000000
vn -0.999786 0.020684 -0.000000
vn -0.998307 0.020656 0.054370
vn -0.998330 0.020657 0.053958
vn -0.999786 0.020683 -0.000000
vn -0.999786 0.020683 -0.000000
vn -0.999786 0.020683 0.000000
vn -0.999786 0.020683 0.000000
vn -0.999786 0.020683 0.000000
vn -0.999786 0.020683 0.000000
vn -0.999786 0.020683 0.000000
vn -0.999786 0.020682 -0.000001
vn -0.999786 0.020683 -0.000004
vn -0.999786 0.020683 -0.000006
vn -0.968244 0.020032 0.249203
vn -0.966764 0.020001 0.254885
vn -0.998564 0.020658 -0.049428
vn -0.982005 0.020316 0.187761
vn -0.984386 0.020366 0.174840
vn -0.998564 0.020658 -0.049428
vn 0.000000 -0.000000 1.000000
vn 0.000000 -0.000000 1.000000
vn 0.000000 -0.000000 1.000000
vn -0.000000 0.000000 1.000000
vn 0.000000 0.000000 1.000000
vn -0.000000 0.000000 1.000000
vn -0.018354 -0.999832 -0.000000
vn -0.020683 -0.999786 -0.000000
vn -0.020683 -0.999786 -0.000000
vn -0.018354 -0.999832 -0.000000
vn 0.000000 -0.000000 -1.000000
vn 0.000000 0.000000 -1.000000
vn 0.000000 0.000000 -1.000000
vn 0.000000 -0.000000 -1.000000
vn 0.000000 0.000000 -1.000000
vn 0.000000 -0.000000 -1.000000
vn -0.002664 0.000055 0.999997
vn -0.002664 0.000055 0.999997
vn -0.002664 0.000055 0.999996
vn -0.002664 0.000055 0.999996
vn -0.162580 0.003363 0.986690
vn -0.162580 0.003363 0.986690
vn -0.162551 0.003363 0.986694
vn -0.162554 0.003363 0.986694
vn 0.397322 0.917679 0.000000
vn 0.397322 0.917679 0.000000
vn 0.041671 0.999131 0.000000
vn 0.040099 0.999196 0.000000
vn -0.397312 -0.917684 0.000000
vn -0.397312 -0.917684 0.000000
vn -0.040091 -0.999196 0.000000
vn -0.041663 -0.999132 0.000000
vn 0.343697 0.939054 -0.007005
vn 0.105037 0.994458 0.004510
vn -0.398197 -0.917300 -0.000491
vn -0.095317 -0.995433 -0.005213
vn 0.140227 0.990085 0.008275
vn -0.031133 0.998542 0.044089
vn 0.141732 0.014885 -0.989793
vn 0.141732 0.014885 -0.989793
vn 0.057323 0.006020 -0.998338
vn 0.044492 0.004673 -0.998999
vn -0.178542 -0.982521 0.052689
vn -0.033205 -0.999380 0.011684
vn -0.219526 -0.975596 0.004426
vn -0.219567 -0.975587 0.004426
vn -0.005903 -0.999982 0.001327
vn -0.036088 -0.999334 0.005430
vn 0.110115 0.992640 0.050393
vn 0.109137 0.992571 0.053771
vn 0.062166 0.996617 0.053761
vn 0.035226 0.997887 0.054598
vn -0.031357 -0.990301 0.135356
vn -0.020472 -0.989558 0.142671
vn -0.020453 -0.995654 0.090861
vn -0.015143 -0.996019 -0.087849
vn 0.679758 -0.014061 0.733302
vn 0.679758 -0.014061 0.733302
vn 0.679756 -0.014062 0.733304
vn 0.679756 -0.014062 0.733304
vn 0.020011 0.990867 -0.133349
vn 0.029088 0.992822 -0.116013
vn 0.020893 0.993747 0.109685
vn 0.019980 0.996189 -0.084906
vn -0.211654 0.977345 0.000000
vn -0.211654 0.977345 0.000000
vn -0.162537 0.003363 0.986697
vn -0.162537 0.003363 0.986697
vn 0.211650 -0.977346 0.000000
vn 0.211650 -0.977346 0.000000
vn 0.197405 -0.980307 -0.005504
vn 0.059504 -0.998106 0.015626
vn -0.020304 -0.002132 -0.999792
vn -0.020304 -0.002132 -0.999792
vn -0.157322 0.984774 0.073956
vn -0.202058 0.979294 0.012451
vn -0.057198 0.996944 0.053202
vn -0.055484 0.996408 0.063973
vn 0.000224 0.990767 0.135574
vn 0.019123 0.987355 0.157366
vn 0.679753 -0.014063 0.733306
vn 0.679753 -0.014063 0.733306
vn -0.019533 -0.985566 -0.168161
vn 0.022474 -0.996812 -0.076554
vn 0.052615 -0.998615 -0.000235
vn 0.051689 -0.998646 0.005842
vn -0.906447 0.018754 0.421903
vn -0.906447 0.018754 0.421903
vn -0.999786 0.020683 -0.000000
vn -0.999786 0.020684 0.000000
vn -0.999786 0.020684 0.000000
vn -0.999786 0.020684 -0.000000
vn -0.999786 0.020684 -0.000000
vn -0.999786 0.020683 -0.000000
vn -0.999786 0.020684 0.000000
vn -0.999786 0.020684 0.000001
vn -0.999786 0.020683 0.000002
vn -0.999786 0.020683 0.000002
vn -0.999786 0.020684 0.000002
vn -0.999786 0.020684 0.000002
vn 0.121015 0.992252 0.028140
vn -0.006337 0.999649 0.025718
vn -0.202902 0.978971 0.021148
vn -0.999786 0.020683 0.000004
vn -0.999786 0.020683 0.000004
vn 0.028709 -0.998745 0.041027
vn 0.042032 -0.998403 0.037755
vn -0.097369 -0.992674 0.071542
vn -0.000003 0.000000 -1.000000
vn -0.000001 0.000000 -1.000000
vn -0.000001 0.000000 -1.000000
vn -0.000002 0.000000 -1.000000
vn -0.000001 -0.998564 -0.053575
vn -0.000001 -0.998564 -0.053575
vn -0.000001 -0.998564 -0.053575
vn -0.000001 -0.998564 -0.053575
vn -0.000003 0.000000 1.000000
vn -0.000002 0.000000 1.000000
vn -0.000003 0.000000 -1.000000
vn -0.000003 0.000000 -1.000000
vn -0.000004 0.000000 1.000000
vn -0.000005 1.000000 0.000000
vn -0.000005 1.000000 0.000000
vn -0.000005 1.000000 0.000000
vn -0.000005 1.000000 0.000000
vn -0.000001 -1.000000 0.000000
vn -0.000001 -1.000000 0.000000
vn -0.000000 0.000000 1.000000
vn -0.000000 0.000000 1.000000
vn -0.000000 0.000000 1.000000
vn -0.000000 0.000000 1.000000
vn 0.000000 -0.000000 -1.000000
vn 0.000000 -0.000000 -1.000000
vn -0.000000 0.000000 1.000000
vn -0.000000 0.000000 1.000000
vn 0.000000 -0.000000 -1.000000
vn 0.000001 -0.999460 -0.032855
vn 0.000001 -0.999460 -0.032855
vn 0.000001 -0.999460 -0.032855
vn 0.000001 -0.999460 -0.032855
s 1
g NautralHistoryGallery3
usemtl blinn13SG
f 9/69/1 2/70/2 20/71/3 19/72/4
s 2
f 36/91/5 37/92/6 38/93/7 39/94/8
s 1
f 5/80/9 7/75/10 18/76/11 17/81/12
f 7/75/10 9/69/1 19/72/4 18/76/11
f 15/73/13 3/77/14 10/78/15 14/74/16
s 2
f 39/94/8 38/93/7 40/95/17 41/96/18
s 1
f 18/76/11 13/79/19 12/85/20 17/81/12
f 19/72/4 14/74/16 13/79/19 18/76/11
f 20/71/3 15/73/13 14/74/16 19/72/4
f 6/89/21 69/90/22 70/87/23 8/86/24
f 8/86/24 70/87/23 71/82/25 10/78/15
f 10/78/15 71/82/25 72/83/26 14/74/16
f 14/74/16 72/83/26 73/84/27 13/79/19
f 13/79/19 73/84/27 74/88/28 12/85/20
s 2
f 40/95/17 76/97/29 77/98/30 41/96/18
s 5
f 44/101/31 66/102/32 67/103/33 45/104/34
s 6
f 22/119/35 30/120/36 29/121/37 21/122/38
f 21/122/38 29/121/37 31/123/39 23/124/40
s 7
f 23/1/41 31/2/42 32/3/43 24/4/44
s 8
f 24/128/45 32/129/46 33/130/47 25/131/48
f 25/131/48 33/130/47 34/132/49 26/133/50
s off
f 46/137/51 48/138/52 49/139/53 47/140/54
s 9
f 1/145/55 5/146/56 51/147/57 52/148/58
s 10
f 5/7/59 17/8/60 50/9/61 51/10/62
s 11
f 16/24/63 1/25/64 52/26/65 53/27/66
s 10
f 17/8/60 12/11/67 57/12/68 50/9/61
s 11
f 11/30/69 16/24/63 53/27/66 54/31/70
s 10
f 12/11/67 74/15/71 75/16/72 57/12/68
s 12
f 26/151/73 27/152/74 55/153/75 56/154/76
s 11
f 79/33/77 11/30/69 54/31/70 78/34/78
s 13
f 4/39/79 64/41/80 65/42/81 63/40/82
s 14
f 69/54/83 6/51/84 58/52/85 68/55/86
s 13
f 28/44/87 35/47/88 61/48/89 62/45/90
s 16
f 35/143/91 30/144/92 60/142/93 61/141/94
s 14
f 30/62/95 22/57/96 59/58/97 60/63/98
s 10
f 51/10/62 50/9/61 38/13/99 37/14/100
s 9
f 52/148/58 51/147/57 37/149/101 36/150/102
s 11
f 53/27/66 52/26/65 36/28/103 39/29/104
f 54/31/70 53/27/66 39/29/104 41/32/105
f 78/34/78 54/31/70 41/32/105 77/35/106
s 12
f 56/154/76 55/153/75 43/155/107 42/156/108
s 10
f 57/12/68 75/16/72 76/20/109 40/17/110
f 50/9/61 57/12/68 40/17/110 38/13/99
s 14
f 68/55/86 58/52/85 45/53/111 67/56/112
f 60/63/98 59/58/97 47/59/113 49/64/114
s 16
f 61/141/94 60/142/93 49/139/115 48/138/116
s 13
f 62/45/90 61/48/89 48/50/117 46/49/118
f 63/40/82 65/42/81 66/46/119 44/43/120
f 64/41/80 28/44/87 62/45/90 65/42/81
f 66/46/119 65/42/81 62/45/90 46/49/118
s 5
f 67/103/33 66/102/32 46/105/121 47/106/122
s 14
f 59/58/97 68/55/86 67/56/112 47/59/113
f 22/57/96 69/54/83 68/55/86 59/58/97
s 17
f 81/107/123 80/108/124 82/109/125 83/110/126
f 84/111/127 81/107/123 83/110/126 85/112/128
f 86/113/129 84/111/127 85/112/128 87/114/130
f 88/115/131 86/113/129 87/114/130 89/116/132
f 90/117/133 88/115/131 89/116/132 91/118/134
s 10
f 75/16/72 74/15/71 26/18/135 56/19/136
f 76/20/109 75/16/72 56/19/136 42/23/137
s 2
f 77/98/30 76/97/29 42/99/138 43/100/139
s 11
f 55/37/140 78/34/78 77/35/106 43/38/141
f 27/36/142 79/33/77 78/34/78 55/37/140
s 18
f 70/157/143 69/158/144 80/159/145 81/160/146
s off
f 69/54/147 22/57/148 82/60/149 80/61/150
s 6
f 22/119/35 21/122/38 83/125/151 82/126/152
s 18
f 71/161/153 70/157/143 81/160/146 84/162/154
s 6
f 21/122/38 23/124/40 85/127/155 83/125/151
s off
f 72/65/156 71/66/157 84/67/158 86/68/159
s 7
f 23/1/41 24/4/44 87/5/160 85/6/161
s 19
f 73/163/162 72/164/163 86/165/164 88/166/165
s 8
f 24/128/45 25/131/48 89/134/166 87/135/167
s 19
f 74/167/168 73/163/162 88/166/165 90/168/169
s 8
f 25/131/48 26/133/50 91/136/170 89/134/166
s off
f 26/18/171 74/15/172 90/21/173 91/22/174
