# This file uses centimeters as units for non-parametric coordinates.

mtllib NaturalHistoryGallery_Walls.mtl
g default
v -49.354232 2.655096 90.656836
v 98.831142 0.271598 90.656836
v -47.633615 85.825482 90.656836
v 100.551766 83.441984 90.656836
v -47.633615 85.825482 -87.791374
v 100.551766 83.441984 -87.791374
v -49.354232 2.655096 -87.791374
v 98.831142 0.271598 -87.791374
v -20.511766 88.810156 55.523050
v 73.576616 87.545769 55.523050
v 73.576616 87.545769 -52.657583
v -20.511766 88.810156 -52.657583
v 98.956516 6.331847 90.656836
v 98.956516 6.331847 -87.791374
v -49.228886 8.715355 -87.791374
v -49.228886 8.715355 90.656836
v 99.347370 25.224801 90.656836
v 99.347370 25.224801 -87.791374
v -48.838031 27.608309 -87.791374
v -48.838031 27.608309 90.656836
v 100.101646 61.684643 90.656836
v 100.107610 61.972932 -87.791374
v -48.103451 63.116129 -87.791374
v -48.103451 63.116129 90.656836
v -20.378707 2.206298 -87.791374
v -20.316018 8.117210 -87.791374
v -19.925153 27.010156 -87.791374
v -19.195776 62.266755 -87.791374
v -18.720775 85.227338 -87.791374
v -5.174711 88.492806 -52.657583
v 50.725513 1.366463 -87.845428
v 50.849085 7.339599 -87.845428
v 51.207103 26.220722 -87.791374
v 50.893168 61.674679 -87.791374
v 52.411492 84.437923 -87.791374
v 48.040157 88.074104 -52.657583
v 98.831142 0.271598 -44.396714
v 98.956516 6.331847 -44.396714
v 99.347370 25.224801 -44.396714
v 100.107610 61.972932 -44.396714
v 100.551766 83.441984 -44.396714
v 73.576616 87.545769 -44.170553
v 98.831142 0.271598 -16.118271
v 98.956516 6.331847 -16.118271
v 99.347370 25.224801 -16.118271
v 100.101646 61.684643 -16.118271
v 100.551766 83.441984 -16.118271
v 73.576616 87.545769 -16.118216
v 99.336643 24.706285 -83.315649
v 98.951548 6.091713 -83.315649
v 99.881770 51.056374 -83.315649
v 99.881770 51.056374 -48.872428
v 99.345874 25.152463 -48.872428
v 98.959559 6.478970 -48.872428
v 98.831564 0.291655 -48.872428
v 98.831564 0.291660 -83.315649
v 124.994433 24.175500 -83.315649
v 124.609268 5.560920 -83.315649
v 125.539559 50.525585 -83.315649
v 102.281217 51.006725 -48.872428
v 101.745342 25.102831 -48.872428
v 101.385927 7.728951 -48.872428
v 124.489305 -0.239148 -83.315649
v 97.169308 0.305978 90.382950
v 97.294702 6.366236 90.382950
v 97.294702 6.366236 -15.616236
v 97.169308 0.305978 -15.616236
v 97.294702 6.366236 -43.085792
v 97.169308 0.305978 -43.085792
v 95.713870 6.513367 -49.033117
v 95.585868 0.326040 -49.033117
v 50.815683 1.264940 -85.239173
v 50.941053 7.325196 -85.239173
v 94.744005 0.305977 -85.239173
v 94.869392 6.366238 -85.239173
v 95.585875 0.326044 -80.961508
v 95.705879 6.126099 -80.961508
v 121.875258 -0.185059 -80.891473
v 121.995242 5.614993 -80.891473
v -46.614828 8.661291 -85.239173
v -46.740202 2.601027 -85.239173
v -46.614828 8.661291 90.382950
v -46.740202 2.601027 90.382950
v -19.909499 2.045948 -85.266769
v -19.784129 8.106196 -85.266769
v 98.349494 6.594664 -15.933324
v 98.349494 6.594664 90.555929
v 98.224127 0.534408 90.555929
v 98.224127 0.534408 -15.933324
v 98.224127 0.534408 -43.913771
v 98.224521 0.285465 -49.070822
v 96.768689 6.741792 -49.070822
v 98.349494 6.594664 -43.913771
v -47.781210 9.037646 90.505928
v -47.777662 9.209319 -86.385064
v -20.008971 8.246345 -86.486082
v -20.137126 2.050662 -86.486077
v -47.913871 2.625308 -86.385064
v -47.913871 2.625308 90.505928
v 50.892270 7.418937 -86.435475
v 96.520879 6.529392 -86.477499
v 96.860257 6.289266 -82.067677
v 123.267306 5.768597 -82.067677
v 123.147316 -0.031454 -82.067677
v 97.979756 0.489212 -82.067677
v 97.979354 0.469147 -86.477499
v 50.766463 1.378902 -86.459524
v 98.831355 0.281897 -85.493222
v 97.979554 0.479451 -84.213186
v 94.633719 0.316283 -83.006765
v 94.756335 6.242936 -83.006765
v 96.518315 6.406093 -84.213186
v 98.953965 6.208545 -85.493222
v 99.341862 24.958559 -85.493222
v 99.991648 56.367623 -85.493222
v 99.991648 56.367623 -46.694855
v 99.346609 25.187660 -46.694855
v 98.958085 6.407391 -46.694855
v 96.767208 6.670213 -46.187682
v 95.712403 6.441788 -45.318183
v 95.585679 0.316278 -45.318183
v 98.224340 0.544717 -46.187682
v 98.831355 0.281897 -48.294486
v 97.172971 6.208549 -85.493222
v 97.560869 24.958560 -85.493222
v 97.170547 6.091717 -83.315649
v 97.555656 24.706284 -83.315649
v 98.210654 56.367614 -85.493222
v 98.100769 51.056375 -83.315649
v 98.210654 56.367614 -46.694855
v 98.100769 51.056375 -48.872428
v 97.565608 25.187659 -46.694855
v 97.564880 25.152464 -48.872428
v 97.177085 6.407390 -46.694855
v 97.178559 6.478969 -48.872428
vt 0.491500 0.972602
vt 0.542200 0.930756
vt 0.717385 0.932124
vt 0.767425 0.974757
vt 0.493176 0.758054
vt 0.543216 0.800687
vt 0.571777 0.800910
vt 0.670847 0.801683
vt 0.718401 0.802055
vt 0.718321 0.812259
vt 0.718058 0.845988
vt 0.768428 0.846381
vt 0.547013 0.758474
vt 0.679457 0.759509
vt 0.769101 0.760209
vt 0.768694 0.812383
vt 0.231114 0.898882
vt 0.231114 0.848704
vt 0.274608 0.894188
vt 0.274608 0.898882
vt 0.274608 0.902368
vt 0.231114 0.902368
vt 0.105283 0.620407
vt 0.105283 0.755233
vt 0.104084 0.754998
vt 0.104084 0.620531
vt 0.105283 0.790940
vt 0.104084 0.790331
vt 0.102032 0.754600
vt 0.102032 0.620752
vt 0.105283 0.793841
vt 0.100989 0.793204
vt 0.102032 0.789286
vt 0.105283 0.796594
vt 0.100989 0.796843
vt 0.098937 0.792106
vt 0.101799 0.793841
vt 0.101799 0.796594
vt 0.098937 0.796795
vt 0.088026 0.755233
vt 0.088026 0.620407
vt 0.089225 0.620531
vt 0.089225 0.754998
vt 0.091277 0.620752
vt 0.091277 0.754600
vt 0.088026 0.790940
vt 0.089225 0.790331
vt 0.091277 0.789286
vt 0.088026 0.795865
vt 0.089225 0.793204
vt 0.094372 0.792106
vt 0.088026 0.796594
vt 0.089213 0.796843
vt 0.094372 0.796795
vt 0.137983 0.612774
vt 0.137828 0.632028
vt 0.137491 0.631683
vt 0.137624 0.612787
vt 0.137234 0.632024
vt 0.136906 0.631679
vt 0.137180 0.630388
vt 0.137309 0.612806
vt 0.137839 0.584416
vt 0.138177 0.584320
vt 0.136672 0.632020
vt 0.136351 0.631675
vt 0.136604 0.630339
vt 0.137523 0.584505
vt 0.138262 0.572725
vt 0.137895 0.573298
vt 0.136597 0.642288
vt 0.136278 0.641748
vt 0.136073 0.630717
vt 0.137595 0.573766
vt 0.092151 0.572387
vt 0.092186 0.572963
vt 0.135977 0.641238
vt 0.092214 0.573434
vt 0.044557 0.631345
vt 0.044684 0.612090
vt 0.045048 0.612109
vt 0.044903 0.630371
vt 0.044907 0.583613
vt 0.045243 0.583737
vt 0.045357 0.612133
vt 0.045228 0.629714
vt 0.045151 0.631349
vt 0.045488 0.630375
vt 0.044991 0.572041
vt 0.045350 0.572620
vt 0.045558 0.583830
vt 0.045805 0.629674
vt 0.045713 0.631353
vt 0.046042 0.630517
vt 0.091103 0.572379
vt 0.091060 0.572955
vt 0.045643 0.573092
vt 0.046331 0.630059
vt 0.045718 0.630640
vt 0.045156 0.630636
vt 0.045637 0.641622
vt 0.045964 0.641086
vt 0.091025 0.573425
vt 0.046272 0.640580
vt 0.283859 0.848704
vt 0.283859 0.897698
vt 0.280375 0.897698
vt 0.280375 0.848704
vt 0.983354 0.701732
vt 0.983657 0.757860
vt 0.855280 0.758553
vt 0.854977 0.702424
vt 0.821280 0.758736
vt 0.820982 0.703352
vt 0.982847 0.607678
vt 0.854470 0.608371
vt 0.769107 0.759018
vt 0.768806 0.703633
vt 0.820470 0.608554
vt 0.982584 0.558941
vt 0.854207 0.559634
vt 0.771491 0.689160
vt 0.818142 0.688908
vt 0.817708 0.608473
vt 0.820207 0.559817
vt 0.768296 0.608835
vt 0.771054 0.608131
vt 0.817446 0.560024
vt 0.768033 0.560099
vt 0.770794 0.559764
vt 0.492900 0.709639
vt 0.493404 0.801847
vt 0.190308 0.803506
vt 0.189855 0.720750
vt 0.492295 0.599136
vt 0.189147 0.591344
vt 0.491866 0.520834
vt 0.188770 0.522493
vt 0.083406 0.796452
vt 0.066989 0.796452
vt 0.066989 0.662604
vt 0.083406 0.662604
vt 0.066989 0.627918
vt 0.083406 0.627918
vt 0.066874 0.625099
vt 0.083469 0.625099
vt 0.066677 0.620409
vt 0.083440 0.620409
vt 0.109840 0.620409
vt 0.126258 0.620409
vt 0.126258 0.842171
vt 0.109840 0.842171
vt 0.319490 0.848706
vt 0.322310 0.848728
vt 0.322310 0.864785
vt 0.319490 0.865125
vt 0.324889 0.848808
vt 0.324889 0.864522
vt 0.065795 0.896254
vt 0.065795 0.845455
vt 0.068542 0.845139
vt 0.068542 0.895571
vt 0.065795 0.981350
vt 0.068542 0.966960
vt 0.114789 0.981350
vt 0.112036 0.966960
vt 0.114789 0.896875
vt 0.112036 0.896781
vt 0.114789 0.845995
vt 0.112036 0.846189
vt 0.677186 0.700741
vt 0.546685 0.699244
vt 0.678637 0.609327
vt 0.768286 0.608835
vt 0.493169 0.758769
vt 0.546187 0.608293
vt 0.678430 0.560621
vt 0.768018 0.560098
vt 0.545920 0.559555
vt 0.492079 0.559850
vt 0.048717 0.612112
vt 0.048854 0.629694
vt 0.045495 0.629715
vt 0.048917 0.583809
vt 0.045490 0.573091
vt 0.048850 0.573070
vt 0.140420 0.848807
vt 0.190600 0.848807
vt 0.190600 0.899238
vt 0.140420 0.899238
vt 0.190600 0.970629
vt 0.140420 0.970629
vt 0.136936 0.899139
vt 0.136936 0.848706
vt 0.136936 0.970528
vt 0.201034 0.969579
vt 0.196342 0.969579
vt 0.196342 0.899397
vt 0.201034 0.899397
vt 0.196342 0.852326
vt 0.201034 0.848806
vt 0.204517 0.899298
vt 0.204517 0.969478
vt 0.204517 0.848706
vt 0.209381 0.905233
vt 0.209470 0.853820
vt 0.225183 0.853820
vt 0.225097 0.905233
vt 0.209957 0.851339
vt 0.225672 0.851339
vt 0.209470 0.848706
vt 0.225183 0.848706
vt 0.314053 0.848706
vt 0.314053 0.865125
vt 0.312854 0.865804
vt 0.312854 0.849385
vt 0.310802 0.865125
vt 0.310802 0.848706
vt 0.289066 0.865558
vt 0.289066 0.848795
vt 0.290253 0.848743
vt 0.293360 0.866146
vt 0.295412 0.848706
vt 0.295412 0.865469
vt 0.300660 0.865125
vt 0.300660 0.848706
vt 0.303477 0.848706
vt 0.303477 0.866079
vt 0.305772 0.848706
vt 0.305772 0.865125
vt 0.119552 0.896037
vt 0.119552 0.845240
vt 0.123036 0.845139
vt 0.123036 0.895938
vt 0.119552 0.981134
vt 0.123036 0.981033
vt 0.131726 0.899686
vt 0.131726 0.984162
vt 0.128243 0.984061
vt 0.128243 0.899587
vt 0.131726 0.848806
vt 0.128243 0.848706
vn 0.000000 0.000000 1.000000
vn 0.000000 -0.000000 1.000000
vn 0.000000 -0.000000 1.000000
vn 0.000000 0.000000 1.000000
vn -0.999786 0.020684 0.000000
vn -0.999786 0.020684 0.000000
vn -0.999786 0.020684 0.000000
vn -0.999786 0.020684 0.000000
vn 0.999786 -0.020684 0.000000
vn 0.999786 -0.020685 0.000000
vn 0.999786 -0.020685 0.000000
vn 0.999786 -0.020684 0.000000
vn 0.051370 -0.997568 -0.047114
vn 0.042252 -0.997621 -0.054473
vn -0.062048 -0.995898 -0.065857
vn -0.071240 -0.995709 -0.059069
vn -0.150402 -0.988625 0.000000
vn -0.150402 -0.988625 0.000000
vn -0.073169 -0.995507 0.060102
vn -0.064369 -0.995683 0.066879
vn -0.013138 -0.994957 0.099440
vn -0.014357 -0.994924 0.099595
vn 0.091523 -0.995705 0.013934
vn 0.086557 -0.996088 0.017801
vn -0.999786 0.020686 0.000000
vn -0.999786 0.020686 0.000000
vn -0.999786 0.020686 0.000000
vn -0.999786 0.020686 0.000000
vn -0.000240 0.000005 1.000000
vn -0.000241 0.000005 1.000000
vn -0.000000 0.000000 1.000000
vn -0.000000 0.000000 1.000000
vn 0.999786 -0.020683 0.000000
vn 0.999786 -0.020683 0.000000
vn 0.999786 -0.020683 0.000000
vn 0.999786 -0.020683 0.000000
vn -0.999786 0.020683 0.000000
vn -0.999786 0.020683 0.000000
vn -0.999786 0.020683 0.000000
vn -0.999786 0.020683 0.000000
vn -0.000008 -0.000493 1.000000
vn -0.000020 -0.001431 0.999999
vn -0.000591 -0.001419 0.999999
vn -0.000202 -0.000484 1.000000
vn 0.999786 -0.020683 0.000000
vn 0.999786 -0.020683 0.000000
vn 0.999786 -0.020683 0.000000
vn 0.999786 -0.020683 0.000000
vn 0.001028 -0.000021 0.999999
vn 0.001028 -0.000021 0.999999
vn 0.000002 -0.000000 1.000000
vn -0.000002 0.000000 1.000000
vn 0.000000 0.000000 1.000000
vn 0.000000 0.000000 1.000000
vn 0.000258 -0.001020 0.999999
vn 0.000091 -0.000361 1.000000
vn 0.000000 0.000000 1.000000
vn 0.000000 0.000000 1.000000
vn 0.000000 0.000000 1.000000
vn 0.000000 0.000000 1.000000
vn -0.011309 -0.995003 0.099205
vn -0.014222 -0.994928 0.099579
vn -0.999786 0.020684 0.000000
vn -0.999786 0.020684 0.000000
vn -0.999786 0.020683 0.000000
vn -0.999786 0.020684 -0.000000
vn -0.150402 -0.988625 0.000000
vn -0.150402 -0.988625 0.000000
vn -0.998307 0.020655 0.054370
vn -0.998330 0.020656 0.053958
vn -0.999786 0.020683 -0.000000
vn -0.999786 0.020683 -0.000000
vn -0.999786 0.020683 0.000000
vn -0.999786 0.020683 0.000000
vn -0.999786 0.020683 0.000000
vn -0.999786 0.020683 0.000000
vn -0.999786 0.020683 0.000000
vn -0.999786 0.020683 -0.000000
vn -0.999786 0.020683 -0.000002
vn -0.999786 0.020683 -0.000003
vn -0.968244 0.020031 0.249203
vn -0.966764 0.020001 0.254886
vn -0.998564 0.020658 -0.049428
vn -0.982005 0.020316 0.187761
vn -0.984386 0.020366 0.174840
vn -0.998564 0.020658 -0.049428
vn 0.000000 -0.000000 1.000000
vn 0.000000 -0.000000 1.000000
vn 0.000000 -0.000000 1.000000
vn -0.000000 0.000000 1.000000
vn 0.000000 0.000000 1.000000
vn -0.000000 0.000000 1.000000
vn -0.018354 -0.999832 -0.000000
vn -0.020683 -0.999786 -0.000000
vn -0.020683 -0.999786 -0.000000
vn -0.018354 -0.999832 -0.000000
vn 0.000000 -0.000000 -1.000000
vn 0.000000 0.000000 -1.000000
vn 0.000000 0.000000 -1.000000
vn 0.000000 -0.000000 -1.000000
vn 0.000000 0.000000 -1.000000
vn 0.000000 -0.000000 -1.000000
vn -0.002663 0.000055 0.999996
vn -0.002663 0.000055 0.999997
vn -0.002663 0.000055 0.999996
vn -0.002663 0.000055 0.999997
vn -0.162564 0.003363 0.986692
vn -0.162564 0.003363 0.986692
vn -0.162546 0.003363 0.986695
vn -0.162548 0.003363 0.986695
vn 0.397323 0.917679 0.000000
vn 0.397322 0.917679 0.000000
vn 0.041669 0.999132 0.000000
vn 0.040098 0.999196 0.000000
vn -0.397316 -0.917682 0.000000
vn -0.397316 -0.917682 0.000000
vn -0.040091 -0.999196 0.000000
vn -0.041663 -0.999132 0.000000
vn 0.343698 0.939054 -0.007006
vn 0.105036 0.994458 0.004510
vn -0.398198 -0.917300 -0.000491
vn -0.095316 -0.995433 -0.005213
vn 0.140228 0.990085 0.008275
vn -0.031134 0.998542 0.044090
vn 0.141733 0.014885 -0.989793
vn 0.141733 0.014885 -0.989793
vn 0.057322 0.006020 -0.998338
vn 0.044491 0.004673 -0.998999
vn -0.178538 -0.982521 0.052689
vn -0.033204 -0.999380 0.011685
vn -0.014695 -0.999884 -0.004091
vn -0.027003 -0.997231 0.069286
vn -0.022182 -0.998550 0.049047
vn -0.014551 -0.999127 -0.039149
vn 0.041682 0.997847 -0.050638
vn 0.014689 0.996676 -0.080131
vn 0.014889 0.999869 0.006334
vn 0.023091 0.998448 -0.050675
vn -0.219564 -0.975588 0.004426
vn -0.005902 -0.999982 0.001327
vn 0.110115 0.992641 0.050393
vn 0.035225 0.997887 0.054598
vn -0.031357 -0.990300 0.135358
vn -0.020472 -0.989558 0.142673
vn -0.020453 -0.995653 0.090863
vn -0.015143 -0.996019 -0.087849
vn 0.679756 -0.014060 0.733303
vn 0.679756 -0.014060 0.733303
vn 0.679754 -0.014061 0.733306
vn 0.679754 -0.014061 0.733306
vn 0.020011 0.990867 -0.133347
vn 0.029088 0.992822 -0.116012
vn 0.020893 0.993747 0.109684
vn 0.019980 0.996189 -0.084905
vn -0.246827 0.968842 -0.020538
vn -0.271221 0.962517 0.000462
vn 0.005750 0.999983 0.000485
vn -0.068632 0.997462 -0.018959
vn 0.104155 -0.002155 0.994559
vn 0.104155 -0.002155 0.994559
vn 0.104158 -0.002155 0.994558
vn 0.104158 -0.002155 0.994559
vn -0.020677 -0.999786 0.000000
vn -0.020479 -0.999781 -0.004424
vn -0.020388 -0.999771 -0.006501
vn -0.020679 -0.999786 0.000000
vn -0.013356 -0.998460 -0.053843
vn -0.012978 -0.998967 -0.043543
vn 0.017165 0.989793 -0.141473
vn 0.015707 0.999875 0.001926
vn -0.211655 0.977345 0.000000
vn -0.211655 0.977345 0.000000
vn -0.162537 0.003363 0.986697
vn -0.162537 0.003363 0.986697
vn 0.211652 -0.977345 0.000000
vn 0.211652 -0.977345 0.000000
vn 0.197408 -0.980306 -0.005503
vn 0.059504 -0.998106 0.015626
vn -0.020306 -0.002132 -0.999792
vn -0.020306 -0.002132 -0.999791
vn -0.157324 0.984774 0.073958
vn -0.202059 0.979294 0.012451
vn 0.368703 0.929547 0.000456
vn 0.321018 0.946193 0.040830
vn 0.014777 0.991148 0.131936
vn -0.012390 -0.999215 -0.037633
vn -0.020683 -0.999786 -0.000001
vn -0.020683 -0.999786 0.000000
vn 0.104161 -0.002155 0.994558
vn 0.104161 -0.002155 0.994558
vn 0.015058 0.994401 0.104596
vn 0.016538 0.993234 0.114951
vn -0.055485 0.996408 0.063974
vn 0.000224 0.990767 0.135574
vn 0.019123 0.987356 0.157364
vn 0.679751 -0.014063 0.733308
vn 0.679751 -0.014063 0.733308
vn -0.019533 -0.985566 -0.168161
vn 0.022474 -0.996812 -0.076554
vn 0.052615 -0.998615 -0.000235
vn -0.014699 -0.991819 -0.126807
vn -0.014432 -0.996271 -0.085060
vn -0.906448 0.018754 0.421902
vn -0.906448 0.018754 0.421902
vn -0.999786 0.020683 -0.000000
vn -0.999786 0.020684 0.000000
vn -0.999786 0.020684 0.000000
vn -0.999786 0.020684 -0.000000
vn -0.999786 0.020684 -0.000000
vn -0.999786 0.020683 -0.000000
vn -0.999786 0.020684 0.000000
vn -0.999786 0.020684 0.000001
vn -0.999786 0.020683 0.000002
vn -0.999786 0.020683 0.000002
vn -0.999786 0.020684 0.000002
vn -0.999786 0.020684 0.000002
vn 0.121016 0.992252 0.028140
vn -0.006337 0.999649 0.025718
vn -0.202904 0.978970 0.021150
vn -0.999786 0.020683 0.000004
vn -0.999786 0.020683 0.000004
vn 0.028709 -0.998746 0.041026
vn 0.042032 -0.998403 0.037754
vn -0.097366 -0.992674 0.071542
vn 0.000000 -0.000000 -1.000000
vn -0.000001 0.000000 -1.000000
vn -0.000001 0.000000 -1.000000
vn -0.000000 0.000000 -1.000000
vn -0.000002 -0.998564 -0.053575
vn -0.000002 -0.998564 -0.053575
vn -0.000002 -0.998564 -0.053575
vn -0.000002 -0.998564 -0.053575
vn -0.000002 0.000000 1.000000
vn -0.000002 0.000000 1.000000
vn 0.000001 -0.000000 -1.000000
vn 0.000001 -0.000000 -1.000000
vn -0.000002 0.000000 1.000000
vn -0.000005 1.000000 0.000000
vn -0.000005 1.000000 0.000000
vn -0.000005 1.000000 0.000000
vn -0.000005 1.000000 0.000000
vn -0.000001 -1.000000 0.000000
vn -0.000001 -1.000000 0.000000
vn -0.000000 0.000000 1.000000
vn -0.000000 0.000000 1.000000
vn -0.000000 0.000000 1.000000
vn -0.000000 0.000000 1.000000
vn 0.000000 -0.000000 -1.000000
vn 0.000000 -0.000000 -1.000000
vn -0.000000 0.000000 1.000000
vn -0.000000 0.000000 1.000000
vn 0.000000 -0.000000 -1.000000
vn 0.000001 -0.999460 -0.032855
vn 0.000001 -0.999460 -0.032855
vn 0.000001 -0.999460 -0.032855
vn 0.000001 -0.999460 -0.032855
vn -0.013437 -0.999910 -0.000342
vn -0.013437 -0.999910 -0.000342
vn -0.013437 -0.999910 -0.000342
vn -0.013437 -0.999910 -0.000342
vn -0.013437 -0.999910 -0.000342
vn -0.013437 -0.999910 -0.000342
vn -0.013437 -0.999910 -0.000342
vn -0.013437 -0.999910 -0.000342
s 1
g NautralHistoryGallery
usemtl blinn13SG
f 35/14/1 34/171/2 22/118/3 6/117/4
s 2
f 21/109/5 4/110/6 47/111/7 46/112/8
s 3
f 23/131/9 5/132/10 3/133/11 24/134/12
s 4
f 3/1/13 9/2/14 10/3/15 4/4/16
f 4/4/16 10/3/15 48/11/17 47/12/18
f 6/15/19 11/9/20 36/8/21 35/14/22
f 5/5/23 12/6/24 9/2/14 3/1/13
s 6
f 64/139/25 65/140/26 66/141/27 67/142/28
s 7
f 73/85/29 72/181/30 74/182/31 75/183/32
s off
f 81/149/33 80/150/34 82/151/35 83/152/36
s 2
f 13/120/37 17/115/38 45/116/39 44/121/40
s 1
f 33/173/41 32/177/42 14/178/43 18/174/44
s 3
f 15/137/45 19/135/46 20/136/47 16/138/48
s 2
f 17/115/38 21/109/5 46/112/8 45/116/39
s 1
f 34/171/2 33/173/41 18/174/44 22/118/3
s 3
f 19/135/46 23/131/9 24/134/12 20/136/47
s 7
f 80/185/49 81/186/50 84/184/51 85/91/52
s 1
f 19/135/53 15/180/54 26/179/55 27/176/56
f 23/131/57 19/135/53 27/176/56 28/172/58
f 5/175/59 23/131/57 28/172/58 29/13/60
s 4
f 30/7/61 12/6/24 5/5/23 29/13/62
s 1
f 29/13/60 28/172/58 34/171/2 35/14/1
s 4
f 36/8/21 30/7/61 29/13/62 35/14/22
s 2
f 41/113/63 6/117/64 22/118/65 40/114/66
s 4
f 42/10/67 11/9/20 6/15/19 41/16/68
s 6
f 67/142/28 66/141/27 68/143/69 69/144/70
s 2
f 45/116/39 39/119/71 38/125/72 44/121/40
f 46/112/8 40/114/66 39/119/71 45/116/39
f 47/111/7 41/113/63 40/114/66 46/112/8
s 4
f 48/11/17 42/10/67 41/16/68 47/12/18
s 2
f 14/129/73 113/130/74 114/127/75 18/126/76
f 18/126/76 114/127/75 115/122/77 22/118/65
f 22/118/65 115/122/77 116/123/78 40/114/66
f 40/114/66 116/123/78 117/124/79 39/119/71
f 39/119/71 117/124/79 118/128/80 38/125/72
s 6
f 68/143/69 120/145/81 121/146/82 69/144/70
s 11
f 74/153/83 110/154/84 111/155/85 75/156/86
s 12
f 50/187/87 58/188/88 57/189/89 49/190/90
f 49/190/90 57/189/89 59/191/91 51/192/92
s 13
f 51/17/93 59/18/94 60/19/95 52/20/96
s 14
f 52/196/97 60/197/98 61/198/99 53/199/100
f 53/199/100 61/198/99 62/200/101 54/201/102
s off
f 76/205/103 78/206/104 79/207/105 77/208/106
s 15
f 2/213/107 13/214/108 87/215/109 88/216/110
s 16
f 13/23/111 44/24/112 86/25/113 87/26/114
s 17
f 43/40/115 2/41/116 88/42/117 89/43/118
s 16
f 44/24/112 38/27/119 93/28/120 86/25/113
s 17
f 37/46/121 43/40/115 89/43/118 90/47/122
s 16
f 38/27/119 118/31/123 119/32/124 93/28/120
s 18
f 54/219/125 55/220/126 91/221/127 92/222/128
s 17
f 123/49/129 37/46/121 90/47/122 122/50/130
s 19
f 31/55/131 8/56/132 106/57/133 107/58/134
s 20
f 14/79/135 32/80/136 100/81/137 101/82/138
s 19
f 8/56/132 108/59/139 109/60/140 106/57/133
s 20
f 113/87/141 14/79/135 101/82/138 112/88/142
s 19
f 56/65/143 63/71/144 104/72/145 105/66/146
s 22
f 63/211/147 58/212/148 103/210/149 104/209/150
s 20
f 58/101/151 50/93/152 102/94/153 103/102/154
f 15/89/155 16/95/156 94/96/157 95/90/158
s 24
f 16/225/159 1/226/160 99/227/161 94/228/162
s 19
f 1/75/163 7/69/164 98/70/165 99/76/166
f 7/69/164 25/64/167 97/63/168 98/70/165
s 20
f 26/83/169 15/89/155 95/90/158 96/84/170
s 16
f 87/26/114 86/25/113 66/29/171 65/30/172
s 15
f 88/216/110 87/215/109 65/217/173 64/218/174
s 17
f 89/43/118 88/42/117 64/44/175 67/45/176
f 90/47/122 89/43/118 67/45/176 69/48/177
f 122/50/130 90/47/122 69/48/177 121/51/178
s 18
f 92/222/128 91/221/127 71/223/179 70/224/180
s 16
f 93/28/120 119/32/124 120/36/181 68/33/182
f 86/25/113 93/28/120 68/33/182 66/29/171
s 20
f 95/90/158 94/96/157 82/103/183 80/97/184
f 96/84/170 95/90/158 80/97/184 85/91/185
s 19
f 98/70/165 97/63/168 84/68/186 81/74/187
f 99/76/166 98/70/165 81/74/187 83/78/188
s 24
f 94/228/162 99/227/161 83/229/189 82/230/190
s 20
f 101/82/138 100/81/137 73/85/191 75/86/192
f 112/88/142 101/82/138 75/86/192 111/92/193
f 103/102/154 102/94/153 77/98/194 79/104/195
s 22
f 104/209/150 103/210/149 79/207/196 78/206/197
s 19
f 105/66/146 104/72/145 78/77/198 76/73/199
f 106/57/133 109/60/140 110/67/200 74/61/201
f 107/58/134 106/57/133 74/61/201 72/62/202
f 108/59/139 56/65/143 105/66/146 109/60/140
f 110/67/200 109/60/140 105/66/146 76/73/199
s 11
f 111/155/85 110/154/84 76/157/203 77/158/204
s 20
f 102/94/153 112/88/142 111/92/193 77/98/194
f 50/93/152 113/87/141 112/88/142 102/94/153
s 26
f 125/159/205 124/160/206 126/161/207 127/162/208
f 128/163/209 125/159/205 127/162/208 129/164/210
f 130/165/211 128/163/209 129/164/210 131/166/212
f 132/167/213 130/165/211 131/166/212 133/168/214
f 134/169/215 132/167/213 133/168/214 135/170/216
s 16
f 119/32/124 118/31/123 54/34/217 92/35/218
f 120/36/181 119/32/124 92/35/218 70/39/219
s 6
f 121/146/82 120/145/81 70/147/220 71/148/221
s 17
f 91/53/222 122/50/130 121/51/178 71/54/223
f 55/52/224 123/49/129 122/50/130 91/53/222
s 27
f 114/231/225 113/232/226 124/233/227 125/234/228
s off
f 113/87/229 50/93/230 126/99/231 124/100/232
s 12
f 50/187/87 49/190/90 127/193/233 126/194/234
s 27
f 115/235/235 114/231/225 125/234/228 128/236/236
s 12
f 49/190/90 51/192/92 129/195/237 127/193/233
s off
f 116/105/238 115/106/239 128/107/240 130/108/241
s 13
f 51/17/93 52/20/96 131/21/242 129/22/243
s 28
f 117/237/244 116/238/245 130/239/246 132/240/247
s 14
f 52/196/97 53/199/100 133/202/248 131/203/249
s 28
f 118/241/250 117/237/244 132/240/247 134/242/251
s 14
f 53/199/100 54/201/102 135/204/252 133/202/248
s off
f 54/34/253 118/31/254 134/37/255 135/38/256
s 1
f 27/176/56 26/179/55 32/177/42 33/173/41
s 20
f 100/81/137 32/80/136 26/83/169 96/84/170
s 19
f 97/63/168 25/64/167 31/55/131 107/58/134
s 7
f 85/91/52 84/184/51 72/181/30 73/85/29
s 19
f 72/62/202 84/68/186 97/63/168 107/58/134
s 20
f 85/91/185 73/85/191 100/81/137 96/84/170
s 1
f 34/171/2 28/172/58 27/176/56 33/173/41
s off
f 10/3/257 9/2/258 12/6/259 30/7/260 36/8/261 11/9/262 42/10/263 48/11/264
